<ttFont>
    <TTGlyph name=".notdef" xMin="150" yMin="0" xMax="744" yMax="1510">
      <contour>
        <pt x="150" y="0" on="1"/>
        <pt x="150" y="1510" on="1"/>
        <pt x="744" y="1510" on="1"/>
        <pt x="744" y="0" on="1"/>
      </contour>
      <contour>
        <pt x="268" y="1392" on="1"/>
        <pt x="268" y="118" on="1"/>
        <pt x="626" y="118" on="1"/>
        <pt x="626" y="1392" on="1"/>
      </contour>
    </TTGlyph>
    <TTGlyph name="A" xMin="50" yMin="-40" xMax="1210" yMax="1550">
      <contour>
        <pt x="50" y="522" on="1"/>
        <pt x="50" y="532" on="1"/>
        <pt x="107" y="652" on="1"/>
        <pt x="200" y="652" on="1"/>
        <pt x="200" y="1160" on="1"/>
        <pt x="705" y="1550" on="1"/>
        <pt x="933" y="1550" on="0"/>
        <pt x="1075" y="1405" on="1"/>
        <pt x="1210" y="1267" on="0"/>
        <pt x="1210" y="1050" on="1"/>
        <pt x="1210" y="52" on="1"/>
        <pt x="1020" y="-40" on="1"/>
        <pt x="1010" y="-40" on="1"/>
        <pt x="1010" y="1050" on="1"/>
        <pt x="1010" y="1184" on="0"/>
        <pt x="938" y="1267" on="1"/>
        <pt x="849" y="1370" on="0"/>
        <pt x="705" y="1370" on="1"/>
        <pt x="558" y="1370" on="0"/>
        <pt x="472" y="1267" on="1"/>
        <pt x="400" y="1181" on="0"/>
        <pt x="400" y="1050" on="1"/>
        <pt x="400" y="652" on="1"/>
        <pt x="870" y="652" on="1"/>
        <pt x="870" y="642" on="1"/>
        <pt x="813" y="522" on="1"/>
        <pt x="400" y="522" on="1"/>
        <pt x="400" y="50" on="1"/>
        <pt x="210" y="-40" on="1"/>
        <pt x="200" y="-40" on="1"/>
        <pt x="200" y="522" on="1"/>
      </contour>
    </TTGlyph>
    <TTGlyph name="AE" xMin="50" yMin="-40" xMax="1893" yMax="1550">
      <contour>
        <pt x="200" y="-40" on="1"/>
        <pt x="200" y="522" on="1"/>
        <pt x="50" y="522" on="1"/>
        <pt x="50" y="532" on="1"/>
        <pt x="107" y="652" on="1"/>
        <pt x="200" y="652" on="1"/>
        <pt x="200" y="1160" on="1"/>
        <pt x="705" y="1550" on="1"/>
        <pt x="884" y="1550" on="0"/>
        <pt x="1011" y="1460" on="1"/>
        <pt x="1116" y="1510" on="1"/>
        <pt x="1750" y="1510" on="1"/>
        <pt x="1750" y="1500" on="1"/>
        <pt x="1693" y="1380" on="1"/>
        <pt x="1210" y="1380" on="1"/>
        <pt x="1210" y="652" on="1"/>
        <pt x="1680" y="652" on="1"/>
        <pt x="1680" y="642" on="1"/>
        <pt x="1623" y="522" on="1"/>
        <pt x="1210" y="522" on="1"/>
        <pt x="1210" y="130" on="1"/>
        <pt x="1893" y="130" on="1"/>
        <pt x="1893" y="120" on="1"/>
        <pt x="1836" y="0" on="1"/>
        <pt x="1010" y="0" on="1"/>
        <pt x="1010" y="522" on="1"/>
        <pt x="400" y="522" on="1"/>
        <pt x="400" y="50" on="1"/>
        <pt x="210" y="-40" on="1"/>
      </contour>
      <contour>
        <pt x="400" y="652" on="1"/>
        <pt x="1010" y="652" on="1"/>
        <pt x="1010" y="1050" on="1"/>
        <pt x="1010" y="1184" on="0"/>
        <pt x="938" y="1267" on="1"/>
        <pt x="849" y="1370" on="0"/>
        <pt x="705" y="1370" on="1"/>
        <pt x="558" y="1370" on="0"/>
        <pt x="472" y="1267" on="1"/>
        <pt x="400" y="1181" on="0"/>
        <pt x="400" y="1050" on="1"/>
      </contour>
    </TTGlyph>
    <TTGlyph name="AEacute" xMin="50" yMin="-40" xMax="1893" yMax="1966">
      <contour>
        <pt x="200" y="-40" on="1"/>
        <pt x="200" y="522" on="1"/>
        <pt x="50" y="522" on="1"/>
        <pt x="50" y="532" on="1"/>
        <pt x="107" y="652" on="1"/>
        <pt x="200" y="652" on="1"/>
        <pt x="200" y="1160" on="1"/>
        <pt x="705" y="1550" on="1"/>
        <pt x="884" y="1550" on="0"/>
        <pt x="1011" y="1460" on="1"/>
        <pt x="1116" y="1510" on="1"/>
        <pt x="1750" y="1510" on="1"/>
        <pt x="1750" y="1500" on="1"/>
        <pt x="1693" y="1380" on="1"/>
        <pt x="1210" y="1380" on="1"/>
        <pt x="1210" y="652" on="1"/>
        <pt x="1680" y="652" on="1"/>
        <pt x="1680" y="642" on="1"/>
        <pt x="1623" y="522" on="1"/>
        <pt x="1210" y="522" on="1"/>
        <pt x="1210" y="130" on="1"/>
        <pt x="1893" y="130" on="1"/>
        <pt x="1893" y="120" on="1"/>
        <pt x="1836" y="0" on="1"/>
        <pt x="1010" y="0" on="1"/>
        <pt x="1010" y="522" on="1"/>
        <pt x="400" y="522" on="1"/>
        <pt x="400" y="50" on="1"/>
        <pt x="210" y="-40" on="1"/>
      </contour>
      <contour>
        <pt x="400" y="652" on="1"/>
        <pt x="1010" y="652" on="1"/>
        <pt x="1010" y="1050" on="1"/>
        <pt x="1010" y="1184" on="0"/>
        <pt x="938" y="1267" on="1"/>
        <pt x="849" y="1370" on="0"/>
        <pt x="705" y="1370" on="1"/>
        <pt x="558" y="1370" on="0"/>
        <pt x="472" y="1267" on="1"/>
        <pt x="400" y="1181" on="0"/>
        <pt x="400" y="1050" on="1"/>
      </contour>
      <contour>
        <pt x="1107" y="1966" on="1"/>
        <pt x="1117" y="1966" on="1"/>
        <pt x="1293" y="1882" on="1"/>
        <pt x="1072" y="1566" on="1"/>
        <pt x="1062" y="1566" on="1"/>
        <pt x="945" y="1621" on="1"/>
      </contour>
    </TTGlyph>
    <TTGlyph name="Aacute" xMin="50" yMin="-40" xMax="1210" yMax="1966">
      <contour>
        <pt x="50" y="522" on="1"/>
        <pt x="50" y="532" on="1"/>
        <pt x="107" y="652" on="1"/>
        <pt x="200" y="652" on="1"/>
        <pt x="200" y="1160" on="1"/>
        <pt x="705" y="1550" on="1"/>
        <pt x="933" y="1550" on="0"/>
        <pt x="1075" y="1405" on="1"/>
        <pt x="1210" y="1267" on="0"/>
        <pt x="1210" y="1050" on="1"/>
        <pt x="1210" y="52" on="1"/>
        <pt x="1020" y="-40" on="1"/>
        <pt x="1010" y="-40" on="1"/>
        <pt x="1010" y="1050" on="1"/>
        <pt x="1010" y="1184" on="0"/>
        <pt x="938" y="1267" on="1"/>
        <pt x="849" y="1370" on="0"/>
        <pt x="705" y="1370" on="1"/>
        <pt x="558" y="1370" on="0"/>
        <pt x="472" y="1267" on="1"/>
        <pt x="400" y="1181" on="0"/>
        <pt x="400" y="1050" on="1"/>
        <pt x="400" y="652" on="1"/>
        <pt x="870" y="652" on="1"/>
        <pt x="870" y="642" on="1"/>
        <pt x="813" y="522" on="1"/>
        <pt x="400" y="522" on="1"/>
        <pt x="400" y="50" on="1"/>
        <pt x="210" y="-40" on="1"/>
        <pt x="200" y="-40" on="1"/>
        <pt x="200" y="522" on="1"/>
      </contour>
      <contour>
        <pt x="796" y="1966" on="1"/>
        <pt x="806" y="1966" on="1"/>
        <pt x="982" y="1882" on="1"/>
        <pt x="761" y="1566" on="1"/>
        <pt x="751" y="1566" on="1"/>
        <pt x="634" y="1621" on="1"/>
      </contour>
    </TTGlyph>
    <TTGlyph name="Abreve" xMin="50" yMin="-40" xMax="1210" yMax="1902">
      <contour>
        <pt x="50" y="522" on="1"/>
        <pt x="50" y="532" on="1"/>
        <pt x="107" y="652" on="1"/>
        <pt x="200" y="652" on="1"/>
        <pt x="200" y="1160" on="1"/>
        <pt x="705" y="1550" on="1"/>
        <pt x="933" y="1550" on="0"/>
        <pt x="1075" y="1405" on="1"/>
        <pt x="1210" y="1267" on="0"/>
        <pt x="1210" y="1050" on="1"/>
        <pt x="1210" y="52" on="1"/>
        <pt x="1020" y="-40" on="1"/>
        <pt x="1010" y="-40" on="1"/>
        <pt x="1010" y="1050" on="1"/>
        <pt x="1010" y="1184" on="0"/>
        <pt x="938" y="1267" on="1"/>
        <pt x="849" y="1370" on="0"/>
        <pt x="705" y="1370" on="1"/>
        <pt x="558" y="1370" on="0"/>
        <pt x="472" y="1267" on="1"/>
        <pt x="400" y="1181" on="0"/>
        <pt x="400" y="1050" on="1"/>
        <pt x="400" y="652" on="1"/>
        <pt x="870" y="652" on="1"/>
        <pt x="870" y="642" on="1"/>
        <pt x="813" y="522" on="1"/>
        <pt x="400" y="522" on="1"/>
        <pt x="400" y="50" on="1"/>
        <pt x="210" y="-40" on="1"/>
        <pt x="200" y="-40" on="1"/>
        <pt x="200" y="522" on="1"/>
      </contour>
      <contour>
        <pt x="402" y="1785" on="1"/>
        <pt x="533" y="1902" on="1"/>
        <pt x="543" y="1902" on="1"/>
        <pt x="627" y="1796" on="0"/>
        <pt x="729" y="1796" on="1"/>
        <pt x="832" y="1796" on="0"/>
        <pt x="939" y="1897" on="1"/>
        <pt x="949" y="1897" on="1"/>
        <pt x="998" y="1853" on="1"/>
        <pt x="747" y="1638" on="1"/>
        <pt x="558" y="1638" on="0"/>
      </contour>
    </TTGlyph>
    <TTGlyph name="Acircumflex" xMin="50" yMin="-40" xMax="1210" yMax="1966">
      <contour>
        <pt x="50" y="522" on="1"/>
        <pt x="50" y="532" on="1"/>
        <pt x="107" y="652" on="1"/>
        <pt x="200" y="652" on="1"/>
        <pt x="200" y="1160" on="1"/>
        <pt x="705" y="1550" on="1"/>
        <pt x="933" y="1550" on="0"/>
        <pt x="1075" y="1405" on="1"/>
        <pt x="1210" y="1267" on="0"/>
        <pt x="1210" y="1050" on="1"/>
        <pt x="1210" y="52" on="1"/>
        <pt x="1020" y="-40" on="1"/>
        <pt x="1010" y="-40" on="1"/>
        <pt x="1010" y="1050" on="1"/>
        <pt x="1010" y="1184" on="0"/>
        <pt x="938" y="1267" on="1"/>
        <pt x="849" y="1370" on="0"/>
        <pt x="705" y="1370" on="1"/>
        <pt x="558" y="1370" on="0"/>
        <pt x="472" y="1267" on="1"/>
        <pt x="400" y="1181" on="0"/>
        <pt x="400" y="1050" on="1"/>
        <pt x="400" y="652" on="1"/>
        <pt x="870" y="652" on="1"/>
        <pt x="870" y="642" on="1"/>
        <pt x="813" y="522" on="1"/>
        <pt x="400" y="522" on="1"/>
        <pt x="400" y="50" on="1"/>
        <pt x="210" y="-40" on="1"/>
        <pt x="200" y="-40" on="1"/>
        <pt x="200" y="522" on="1"/>
      </contour>
      <contour>
        <pt x="806" y="1966" on="1"/>
        <pt x="1031" y="1648" on="1"/>
        <pt x="858" y="1566" on="1"/>
        <pt x="848" y="1566" on="1"/>
        <pt x="707" y="1794" on="1"/>
        <pt x="566" y="1566" on="1"/>
        <pt x="556" y="1566" on="1"/>
        <pt x="453" y="1615" on="1"/>
        <pt x="623" y="1884" on="1"/>
        <pt x="796" y="1966" on="1"/>
      </contour>
    </TTGlyph>
    <TTGlyph name="Adieresis" xMin="50" yMin="-40" xMax="1210" yMax="1966">
      <contour>
        <pt x="50" y="522" on="1"/>
        <pt x="50" y="532" on="1"/>
        <pt x="107" y="652" on="1"/>
        <pt x="200" y="652" on="1"/>
        <pt x="200" y="1160" on="1"/>
        <pt x="705" y="1550" on="1"/>
        <pt x="933" y="1550" on="0"/>
        <pt x="1075" y="1405" on="1"/>
        <pt x="1210" y="1267" on="0"/>
        <pt x="1210" y="1050" on="1"/>
        <pt x="1210" y="52" on="1"/>
        <pt x="1020" y="-40" on="1"/>
        <pt x="1010" y="-40" on="1"/>
        <pt x="1010" y="1050" on="1"/>
        <pt x="1010" y="1184" on="0"/>
        <pt x="938" y="1267" on="1"/>
        <pt x="849" y="1370" on="0"/>
        <pt x="705" y="1370" on="1"/>
        <pt x="558" y="1370" on="0"/>
        <pt x="472" y="1267" on="1"/>
        <pt x="400" y="1181" on="0"/>
        <pt x="400" y="1050" on="1"/>
        <pt x="400" y="652" on="1"/>
        <pt x="870" y="652" on="1"/>
        <pt x="870" y="642" on="1"/>
        <pt x="813" y="522" on="1"/>
        <pt x="400" y="522" on="1"/>
        <pt x="400" y="50" on="1"/>
        <pt x="210" y="-40" on="1"/>
        <pt x="200" y="-40" on="1"/>
        <pt x="200" y="522" on="1"/>
      </contour>
      <contour>
        <pt x="934" y="1966" on="1"/>
        <pt x="944" y="1966" on="1"/>
        <pt x="944" y="1738" on="1"/>
        <pt x="754" y="1648" on="1"/>
        <pt x="744" y="1648" on="1"/>
        <pt x="744" y="1876" on="1"/>
      </contour>
      <contour>
        <pt x="661" y="1966" on="1"/>
        <pt x="671" y="1966" on="1"/>
        <pt x="671" y="1738" on="1"/>
        <pt x="481" y="1648" on="1"/>
        <pt x="471" y="1648" on="1"/>
        <pt x="471" y="1876" on="1"/>
      </contour>
    </TTGlyph>
    <TTGlyph name="Agrave" xMin="50" yMin="-40" xMax="1210" yMax="1966">
      <contour>
        <pt x="50" y="522" on="1"/>
        <pt x="50" y="532" on="1"/>
        <pt x="107" y="652" on="1"/>
        <pt x="200" y="652" on="1"/>
        <pt x="200" y="1160" on="1"/>
        <pt x="705" y="1550" on="1"/>
        <pt x="933" y="1550" on="0"/>
        <pt x="1075" y="1405" on="1"/>
        <pt x="1210" y="1267" on="0"/>
        <pt x="1210" y="1050" on="1"/>
        <pt x="1210" y="52" on="1"/>
        <pt x="1020" y="-40" on="1"/>
        <pt x="1010" y="-40" on="1"/>
        <pt x="1010" y="1050" on="1"/>
        <pt x="1010" y="1184" on="0"/>
        <pt x="938" y="1267" on="1"/>
        <pt x="849" y="1370" on="0"/>
        <pt x="705" y="1370" on="1"/>
        <pt x="558" y="1370" on="0"/>
        <pt x="472" y="1267" on="1"/>
        <pt x="400" y="1181" on="0"/>
        <pt x="400" y="1050" on="1"/>
        <pt x="400" y="652" on="1"/>
        <pt x="870" y="652" on="1"/>
        <pt x="870" y="642" on="1"/>
        <pt x="813" y="522" on="1"/>
        <pt x="400" y="522" on="1"/>
        <pt x="400" y="50" on="1"/>
        <pt x="210" y="-40" on="1"/>
        <pt x="200" y="-40" on="1"/>
        <pt x="200" y="522" on="1"/>
      </contour>
      <contour>
        <pt x="596" y="1966" on="1"/>
        <pt x="606" y="1966" on="1"/>
        <pt x="768" y="1621" on="1"/>
        <pt x="651" y="1566" on="1"/>
        <pt x="641" y="1566" on="1"/>
        <pt x="420" y="1882" on="1"/>
      </contour>
    </TTGlyph>
    <TTGlyph name="Amacron" xMin="50" yMin="-40" xMax="1210" yMax="1820">
      <contour>
        <pt x="50" y="522" on="1"/>
        <pt x="50" y="532" on="1"/>
        <pt x="107" y="652" on="1"/>
        <pt x="200" y="652" on="1"/>
        <pt x="200" y="1160" on="1"/>
        <pt x="705" y="1550" on="1"/>
        <pt x="933" y="1550" on="0"/>
        <pt x="1075" y="1405" on="1"/>
        <pt x="1210" y="1267" on="0"/>
        <pt x="1210" y="1050" on="1"/>
        <pt x="1210" y="52" on="1"/>
        <pt x="1020" y="-40" on="1"/>
        <pt x="1010" y="-40" on="1"/>
        <pt x="1010" y="1050" on="1"/>
        <pt x="1010" y="1184" on="0"/>
        <pt x="938" y="1267" on="1"/>
        <pt x="849" y="1370" on="0"/>
        <pt x="705" y="1370" on="1"/>
        <pt x="558" y="1370" on="0"/>
        <pt x="472" y="1267" on="1"/>
        <pt x="400" y="1181" on="0"/>
        <pt x="400" y="1050" on="1"/>
        <pt x="400" y="652" on="1"/>
        <pt x="870" y="652" on="1"/>
        <pt x="870" y="642" on="1"/>
        <pt x="813" y="522" on="1"/>
        <pt x="400" y="522" on="1"/>
        <pt x="400" y="50" on="1"/>
        <pt x="210" y="-40" on="1"/>
        <pt x="200" y="-40" on="1"/>
        <pt x="200" y="522" on="1"/>
      </contour>
      <contour>
        <pt x="467" y="1638" on="1"/>
        <pt x="467" y="1648" on="1"/>
        <pt x="548" y="1820" on="1"/>
        <pt x="1006" y="1820" on="1"/>
        <pt x="1006" y="1810" on="1"/>
        <pt x="925" y="1638" on="1"/>
      </contour>
    </TTGlyph>
    <TTGlyph name="Aogonek" xMin="50" yMin="-450" xMax="1210" yMax="1550">
      <contour>
        <pt x="200" y="-40" on="1"/>
        <pt x="200" y="522" on="1"/>
        <pt x="50" y="522" on="1"/>
        <pt x="50" y="532" on="1"/>
        <pt x="107" y="652" on="1"/>
        <pt x="200" y="652" on="1"/>
        <pt x="200" y="1160" on="1"/>
        <pt x="705" y="1550" on="1"/>
        <pt x="933" y="1550" on="0"/>
        <pt x="1075" y="1405" on="1"/>
        <pt x="1210" y="1267" on="0"/>
        <pt x="1210" y="1050" on="1"/>
        <pt x="1210" y="52" on="1"/>
        <pt x="1159" y="27" on="1"/>
        <pt x="1097" y="-78" on="0"/>
        <pt x="1097" y="-178" on="1"/>
        <pt x="1097" y="-288" on="0"/>
        <pt x="1205" y="-360" on="1"/>
        <pt x="1015" y="-450" on="1"/>
        <pt x="1005" y="-450" on="1"/>
        <pt x="922" y="-348" on="0"/>
        <pt x="909" y="-159" on="1"/>
        <pt x="1010" y="-40" on="1"/>
        <pt x="1010" y="1050" on="1"/>
        <pt x="1010" y="1184" on="0"/>
        <pt x="938" y="1267" on="1"/>
        <pt x="849" y="1370" on="0"/>
        <pt x="705" y="1370" on="1"/>
        <pt x="558" y="1370" on="0"/>
        <pt x="472" y="1267" on="1"/>
        <pt x="400" y="1181" on="0"/>
        <pt x="400" y="1050" on="1"/>
        <pt x="400" y="652" on="1"/>
        <pt x="870" y="652" on="1"/>
        <pt x="870" y="642" on="1"/>
        <pt x="813" y="522" on="1"/>
        <pt x="400" y="522" on="1"/>
        <pt x="400" y="50" on="1"/>
        <pt x="210" y="-40" on="1"/>
      </contour>
    </TTGlyph>
    <TTGlyph name="Aring" xMin="50" yMin="-40" xMax="1210" yMax="1966">
      <contour>
        <pt x="50" y="522" on="1"/>
        <pt x="50" y="532" on="1"/>
        <pt x="107" y="652" on="1"/>
        <pt x="200" y="652" on="1"/>
        <pt x="200" y="1160" on="1"/>
        <pt x="705" y="1550" on="1"/>
        <pt x="933" y="1550" on="0"/>
        <pt x="1075" y="1405" on="1"/>
        <pt x="1210" y="1267" on="0"/>
        <pt x="1210" y="1050" on="1"/>
        <pt x="1210" y="52" on="1"/>
        <pt x="1020" y="-40" on="1"/>
        <pt x="1010" y="-40" on="1"/>
        <pt x="1010" y="1050" on="1"/>
        <pt x="1010" y="1184" on="0"/>
        <pt x="938" y="1267" on="1"/>
        <pt x="849" y="1370" on="0"/>
        <pt x="705" y="1370" on="1"/>
        <pt x="558" y="1370" on="0"/>
        <pt x="472" y="1267" on="1"/>
        <pt x="400" y="1181" on="0"/>
        <pt x="400" y="1050" on="1"/>
        <pt x="400" y="652" on="1"/>
        <pt x="870" y="652" on="1"/>
        <pt x="870" y="642" on="1"/>
        <pt x="813" y="522" on="1"/>
        <pt x="400" y="522" on="1"/>
        <pt x="400" y="50" on="1"/>
        <pt x="210" y="-40" on="1"/>
        <pt x="200" y="-40" on="1"/>
        <pt x="200" y="522" on="1"/>
      </contour>
      <contour>
        <pt x="705" y="1966" on="1"/>
        <pt x="791" y="1964" on="0"/>
        <pt x="844" y="1920" on="1"/>
        <pt x="902" y="1872" on="0"/>
        <pt x="902" y="1777" on="1"/>
        <pt x="902" y="1753" on="1"/>
        <pt x="716" y="1589" on="1"/>
        <pt x="622" y="1596" on="0"/>
        <pt x="577" y="1635" on="1"/>
        <pt x="519" y="1685" on="0"/>
        <pt x="519" y="1777" on="1"/>
        <pt x="519" y="1802" on="1"/>
      </contour>
      <contour>
        <pt x="712" y="1862" on="1"/>
        <pt x="678" y="1862" on="0"/>
        <pt x="638" y="1820" on="0"/>
        <pt x="638" y="1777" on="1"/>
        <pt x="638" y="1731" on="0"/>
        <pt x="659" y="1712" on="1"/>
        <pt x="681" y="1692" on="0"/>
        <pt x="714" y="1692" on="1"/>
        <pt x="742" y="1692" on="0"/>
        <pt x="764" y="1714" on="1"/>
        <pt x="784" y="1733" on="0"/>
        <pt x="784" y="1777" on="1"/>
        <pt x="784" y="1822" on="0"/>
        <pt x="762" y="1843" on="1"/>
        <pt x="742" y="1862" on="0"/>
      </contour>
    </TTGlyph>
    <TTGlyph name="Atilde" xMin="50" yMin="-40" xMax="1210" yMax="1896">
      <contour>
        <pt x="50" y="522" on="1"/>
        <pt x="50" y="532" on="1"/>
        <pt x="107" y="652" on="1"/>
        <pt x="200" y="652" on="1"/>
        <pt x="200" y="1160" on="1"/>
        <pt x="705" y="1550" on="1"/>
        <pt x="933" y="1550" on="0"/>
        <pt x="1075" y="1405" on="1"/>
        <pt x="1210" y="1267" on="0"/>
        <pt x="1210" y="1050" on="1"/>
        <pt x="1210" y="52" on="1"/>
        <pt x="1020" y="-40" on="1"/>
        <pt x="1010" y="-40" on="1"/>
        <pt x="1010" y="1050" on="1"/>
        <pt x="1010" y="1184" on="0"/>
        <pt x="938" y="1267" on="1"/>
        <pt x="849" y="1370" on="0"/>
        <pt x="705" y="1370" on="1"/>
        <pt x="558" y="1370" on="0"/>
        <pt x="472" y="1267" on="1"/>
        <pt x="400" y="1181" on="0"/>
        <pt x="400" y="1050" on="1"/>
        <pt x="400" y="652" on="1"/>
        <pt x="870" y="652" on="1"/>
        <pt x="870" y="642" on="1"/>
        <pt x="813" y="522" on="1"/>
        <pt x="400" y="522" on="1"/>
        <pt x="400" y="50" on="1"/>
        <pt x="210" y="-40" on="1"/>
        <pt x="200" y="-40" on="1"/>
        <pt x="200" y="522" on="1"/>
      </contour>
      <contour>
        <pt x="510" y="1639" on="1"/>
        <pt x="425" y="1688" on="1"/>
        <pt x="637" y="1896" on="1"/>
        <pt x="701" y="1896" on="0"/>
        <pt x="732" y="1857" on="1"/>
        <pt x="779" y="1798" on="0"/>
        <pt x="831" y="1798" on="1"/>
        <pt x="892" y="1798" on="0"/>
        <pt x="934" y="1896" on="1"/>
        <pt x="944" y="1896" on="1"/>
        <pt x="1029" y="1847" on="1"/>
        <pt x="817" y="1639" on="1"/>
        <pt x="753" y="1639" on="0"/>
        <pt x="722" y="1678" on="1"/>
        <pt x="675" y="1737" on="0"/>
        <pt x="623" y="1737" on="1"/>
        <pt x="562" y="1737" on="0"/>
        <pt x="520" y="1639" on="1"/>
      </contour>
    </TTGlyph>
    <TTGlyph name="B" xMin="200" yMin="-40" xMax="1182" yMax="1550">
      <contour>
        <pt x="200" y="-40" on="1"/>
        <pt x="200" y="1460" on="1"/>
        <pt x="390" y="1550" on="1"/>
        <pt x="400" y="1550" on="1"/>
        <pt x="400" y="100" on="1"/>
        <pt x="646" y="144" on="0"/>
        <pt x="804" y="263" on="1"/>
        <pt x="996" y="408" on="0"/>
        <pt x="996" y="575" on="1"/>
        <pt x="996" y="722" on="0"/>
        <pt x="812" y="822" on="1"/>
        <pt x="713" y="876" on="0"/>
        <pt x="627" y="900" on="1"/>
        <pt x="845" y="1023" on="0"/>
        <pt x="845" y="1181" on="1"/>
        <pt x="845" y="1282" on="0"/>
        <pt x="698" y="1354" on="1"/>
        <pt x="564" y="1421" on="0"/>
        <pt x="409" y="1441" on="1"/>
        <pt x="638" y="1550" on="1"/>
        <pt x="648" y="1550" on="1"/>
        <pt x="798" y="1513" on="0"/>
        <pt x="887" y="1438" on="1"/>
        <pt x="1004" y="1340" on="0"/>
        <pt x="1004" y="1207" on="1"/>
        <pt x="1004" y="1090" on="0"/>
        <pt x="870" y="985" on="1"/>
        <pt x="960" y="960" on="0"/>
        <pt x="1038" y="897" on="1"/>
        <pt x="1182" y="781" on="0"/>
        <pt x="1182" y="618" on="1"/>
        <pt x="1182" y="376" on="0"/>
        <pt x="933" y="207" on="1"/>
        <pt x="631" y="4" on="0"/>
        <pt x="210" y="-40" on="1"/>
      </contour>
    </TTGlyph>
    <TTGlyph name="C" xMin="200" yMin="-40" xMax="1210" yMax="1550">
      <contour>
        <pt x="705" y="-40" on="1"/>
        <pt x="477" y="-40" on="0"/>
        <pt x="335" y="105" on="1"/>
        <pt x="200" y="243" on="0"/>
        <pt x="200" y="460" on="1"/>
        <pt x="200" y="1160" on="1"/>
        <pt x="705" y="1550" on="1"/>
        <pt x="933" y="1550" on="0"/>
        <pt x="1075" y="1405" on="1"/>
        <pt x="1210" y="1267" on="0"/>
        <pt x="1210" y="1050" on="1"/>
        <pt x="1020" y="960" on="1"/>
        <pt x="1010" y="960" on="1"/>
        <pt x="1010" y="1050" on="1"/>
        <pt x="1010" y="1184" on="0"/>
        <pt x="938" y="1267" on="1"/>
        <pt x="849" y="1370" on="0"/>
        <pt x="705" y="1370" on="1"/>
        <pt x="560" y="1370" on="0"/>
        <pt x="472" y="1267" on="1"/>
        <pt x="400" y="1184" on="0"/>
        <pt x="400" y="1050" on="1"/>
        <pt x="400" y="460" on="1"/>
        <pt x="400" y="328" on="0"/>
        <pt x="472" y="243" on="1"/>
        <pt x="559" y="140" on="0"/>
        <pt x="705" y="140" on="1"/>
        <pt x="848" y="140" on="0"/>
        <pt x="938" y="243" on="1"/>
        <pt x="1010" y="326" on="0"/>
        <pt x="1010" y="460" on="1"/>
        <pt x="1200" y="550" on="1"/>
        <pt x="1210" y="550" on="1"/>
        <pt x="1210" y="350" on="1"/>
      </contour>
    </TTGlyph>
    <TTGlyph name="Cacute" xMin="200" yMin="-40" xMax="1210" yMax="1966">
      <contour>
        <pt x="705" y="-40" on="1"/>
        <pt x="477" y="-40" on="0"/>
        <pt x="335" y="105" on="1"/>
        <pt x="200" y="243" on="0"/>
        <pt x="200" y="460" on="1"/>
        <pt x="200" y="1160" on="1"/>
        <pt x="705" y="1550" on="1"/>
        <pt x="933" y="1550" on="0"/>
        <pt x="1075" y="1405" on="1"/>
        <pt x="1210" y="1267" on="0"/>
        <pt x="1210" y="1050" on="1"/>
        <pt x="1020" y="960" on="1"/>
        <pt x="1010" y="960" on="1"/>
        <pt x="1010" y="1050" on="1"/>
        <pt x="1010" y="1184" on="0"/>
        <pt x="938" y="1267" on="1"/>
        <pt x="849" y="1370" on="0"/>
        <pt x="705" y="1370" on="1"/>
        <pt x="560" y="1370" on="0"/>
        <pt x="472" y="1267" on="1"/>
        <pt x="400" y="1184" on="0"/>
        <pt x="400" y="1050" on="1"/>
        <pt x="400" y="460" on="1"/>
        <pt x="400" y="328" on="0"/>
        <pt x="472" y="243" on="1"/>
        <pt x="559" y="140" on="0"/>
        <pt x="705" y="140" on="1"/>
        <pt x="848" y="140" on="0"/>
        <pt x="938" y="243" on="1"/>
        <pt x="1010" y="326" on="0"/>
        <pt x="1010" y="460" on="1"/>
        <pt x="1200" y="550" on="1"/>
        <pt x="1210" y="550" on="1"/>
        <pt x="1210" y="350" on="1"/>
      </contour>
      <contour>
        <pt x="796" y="1966" on="1"/>
        <pt x="806" y="1966" on="1"/>
        <pt x="982" y="1882" on="1"/>
        <pt x="761" y="1566" on="1"/>
        <pt x="751" y="1566" on="1"/>
        <pt x="634" y="1621" on="1"/>
      </contour>
    </TTGlyph>
    <TTGlyph name="Ccaron" xMin="200" yMin="-40" xMax="1210" yMax="1966">
      <contour>
        <pt x="705" y="-40" on="1"/>
        <pt x="477" y="-40" on="0"/>
        <pt x="335" y="105" on="1"/>
        <pt x="200" y="243" on="0"/>
        <pt x="200" y="460" on="1"/>
        <pt x="200" y="1160" on="1"/>
        <pt x="705" y="1550" on="1"/>
        <pt x="933" y="1550" on="0"/>
        <pt x="1075" y="1405" on="1"/>
        <pt x="1210" y="1267" on="0"/>
        <pt x="1210" y="1050" on="1"/>
        <pt x="1020" y="960" on="1"/>
        <pt x="1010" y="960" on="1"/>
        <pt x="1010" y="1050" on="1"/>
        <pt x="1010" y="1184" on="0"/>
        <pt x="938" y="1267" on="1"/>
        <pt x="849" y="1370" on="0"/>
        <pt x="705" y="1370" on="1"/>
        <pt x="560" y="1370" on="0"/>
        <pt x="472" y="1267" on="1"/>
        <pt x="400" y="1184" on="0"/>
        <pt x="400" y="1050" on="1"/>
        <pt x="400" y="460" on="1"/>
        <pt x="400" y="328" on="0"/>
        <pt x="472" y="243" on="1"/>
        <pt x="559" y="140" on="0"/>
        <pt x="705" y="140" on="1"/>
        <pt x="848" y="140" on="0"/>
        <pt x="938" y="243" on="1"/>
        <pt x="1010" y="326" on="0"/>
        <pt x="1010" y="460" on="1"/>
        <pt x="1200" y="550" on="1"/>
        <pt x="1210" y="550" on="1"/>
        <pt x="1210" y="350" on="1"/>
      </contour>
      <contour>
        <pt x="577" y="1966" on="1"/>
        <pt x="587" y="1966" on="1"/>
        <pt x="728" y="1738" on="1"/>
        <pt x="869" y="1966" on="1"/>
        <pt x="879" y="1966" on="1"/>
        <pt x="982" y="1917" on="1"/>
        <pt x="812" y="1648" on="1"/>
        <pt x="639" y="1566" on="1"/>
        <pt x="629" y="1566" on="1"/>
        <pt x="404" y="1884" on="1"/>
      </contour>
    </TTGlyph>
    <TTGlyph name="Ccedilla" xMin="200" yMin="-450" xMax="1210" yMax="1550">
      <contour>
        <pt x="1210" y="550" on="1"/>
        <pt x="1210" y="350" on="1"/>
        <pt x="776" y="15" on="1"/>
        <pt x="923" y="-159" on="1"/>
        <pt x="910" y="-348" on="0"/>
        <pt x="827" y="-450" on="1"/>
        <pt x="817" y="-450" on="1"/>
        <pt x="627" y="-360" on="1"/>
        <pt x="735" y="-284" on="0"/>
        <pt x="735" y="-178" on="1"/>
        <pt x="735" y="-106" on="0"/>
        <pt x="705" y="-40" on="1"/>
        <pt x="477" y="-40" on="0"/>
        <pt x="335" y="105" on="1"/>
        <pt x="200" y="243" on="0"/>
        <pt x="200" y="460" on="1"/>
        <pt x="200" y="1160" on="1"/>
        <pt x="705" y="1550" on="1"/>
        <pt x="933" y="1550" on="0"/>
        <pt x="1075" y="1405" on="1"/>
        <pt x="1210" y="1267" on="0"/>
        <pt x="1210" y="1050" on="1"/>
        <pt x="1020" y="960" on="1"/>
        <pt x="1010" y="960" on="1"/>
        <pt x="1010" y="1050" on="1"/>
        <pt x="1010" y="1184" on="0"/>
        <pt x="938" y="1267" on="1"/>
        <pt x="849" y="1370" on="0"/>
        <pt x="561" y="1370" on="0"/>
        <pt x="472" y="1267" on="1"/>
        <pt x="400" y="1183" on="0"/>
        <pt x="400" y="1050" on="1"/>
        <pt x="400" y="460" on="1"/>
        <pt x="400" y="328" on="0"/>
        <pt x="472" y="243" on="1"/>
        <pt x="559" y="140" on="0"/>
        <pt x="705" y="140" on="1"/>
        <pt x="848" y="140" on="0"/>
        <pt x="938" y="243" on="1"/>
        <pt x="1010" y="326" on="0"/>
        <pt x="1010" y="460" on="1"/>
        <pt x="1200" y="550" on="1"/>
      </contour>
    </TTGlyph>
    <TTGlyph name="Ccircumflex" xMin="200" yMin="-40" xMax="1210" yMax="1966">
      <contour>
        <pt x="705" y="-40" on="1"/>
        <pt x="477" y="-40" on="0"/>
        <pt x="335" y="105" on="1"/>
        <pt x="200" y="243" on="0"/>
        <pt x="200" y="460" on="1"/>
        <pt x="200" y="1160" on="1"/>
        <pt x="705" y="1550" on="1"/>
        <pt x="933" y="1550" on="0"/>
        <pt x="1075" y="1405" on="1"/>
        <pt x="1210" y="1267" on="0"/>
        <pt x="1210" y="1050" on="1"/>
        <pt x="1020" y="960" on="1"/>
        <pt x="1010" y="960" on="1"/>
        <pt x="1010" y="1050" on="1"/>
        <pt x="1010" y="1184" on="0"/>
        <pt x="938" y="1267" on="1"/>
        <pt x="849" y="1370" on="0"/>
        <pt x="705" y="1370" on="1"/>
        <pt x="560" y="1370" on="0"/>
        <pt x="472" y="1267" on="1"/>
        <pt x="400" y="1184" on="0"/>
        <pt x="400" y="1050" on="1"/>
        <pt x="400" y="460" on="1"/>
        <pt x="400" y="328" on="0"/>
        <pt x="472" y="243" on="1"/>
        <pt x="559" y="140" on="0"/>
        <pt x="705" y="140" on="1"/>
        <pt x="848" y="140" on="0"/>
        <pt x="938" y="243" on="1"/>
        <pt x="1010" y="326" on="0"/>
        <pt x="1010" y="460" on="1"/>
        <pt x="1200" y="550" on="1"/>
        <pt x="1210" y="550" on="1"/>
        <pt x="1210" y="350" on="1"/>
      </contour>
      <contour>
        <pt x="806" y="1966" on="1"/>
        <pt x="1031" y="1648" on="1"/>
        <pt x="858" y="1566" on="1"/>
        <pt x="848" y="1566" on="1"/>
        <pt x="707" y="1794" on="1"/>
        <pt x="566" y="1566" on="1"/>
        <pt x="556" y="1566" on="1"/>
        <pt x="453" y="1615" on="1"/>
        <pt x="623" y="1884" on="1"/>
        <pt x="796" y="1966" on="1"/>
      </contour>
    </TTGlyph>
    <TTGlyph name="Cdotaccent" xMin="200" yMin="-40" xMax="1210" yMax="1966">
      <contour>
        <pt x="705" y="-40" on="1"/>
        <pt x="477" y="-40" on="0"/>
        <pt x="335" y="105" on="1"/>
        <pt x="200" y="243" on="0"/>
        <pt x="200" y="460" on="1"/>
        <pt x="200" y="1160" on="1"/>
        <pt x="705" y="1550" on="1"/>
        <pt x="933" y="1550" on="0"/>
        <pt x="1075" y="1405" on="1"/>
        <pt x="1210" y="1267" on="0"/>
        <pt x="1210" y="1050" on="1"/>
        <pt x="1020" y="960" on="1"/>
        <pt x="1010" y="960" on="1"/>
        <pt x="1010" y="1050" on="1"/>
        <pt x="1010" y="1184" on="0"/>
        <pt x="938" y="1267" on="1"/>
        <pt x="849" y="1370" on="0"/>
        <pt x="705" y="1370" on="1"/>
        <pt x="560" y="1370" on="0"/>
        <pt x="472" y="1267" on="1"/>
        <pt x="400" y="1184" on="0"/>
        <pt x="400" y="1050" on="1"/>
        <pt x="400" y="460" on="1"/>
        <pt x="400" y="328" on="0"/>
        <pt x="472" y="243" on="1"/>
        <pt x="559" y="140" on="0"/>
        <pt x="705" y="140" on="1"/>
        <pt x="848" y="140" on="0"/>
        <pt x="938" y="243" on="1"/>
        <pt x="1010" y="326" on="0"/>
        <pt x="1010" y="460" on="1"/>
        <pt x="1200" y="550" on="1"/>
        <pt x="1210" y="550" on="1"/>
        <pt x="1210" y="350" on="1"/>
      </contour>
      <contour>
        <pt x="800" y="1966" on="1"/>
        <pt x="800" y="1738" on="1"/>
        <pt x="610" y="1648" on="1"/>
        <pt x="600" y="1648" on="1"/>
        <pt x="600" y="1876" on="1"/>
        <pt x="790" y="1966" on="1"/>
      </contour>
    </TTGlyph>
    <TTGlyph name="D" xMin="200" yMin="-40" xMax="1218" yMax="1550">
      <contour>
        <pt x="200" y="-40" on="1"/>
        <pt x="200" y="1460" on="1"/>
        <pt x="390" y="1550" on="1"/>
        <pt x="400" y="1550" on="1"/>
        <pt x="400" y="100" on="1"/>
        <pt x="638" y="189" on="0"/>
        <pt x="797" y="326" on="1"/>
        <pt x="1026" y="522" on="0"/>
        <pt x="1026" y="816" on="1"/>
        <pt x="1026" y="1072" on="0"/>
        <pt x="839" y="1245" on="1"/>
        <pt x="705" y="1369" on="0"/>
        <pt x="411" y="1441" on="1"/>
        <pt x="640" y="1550" on="1"/>
        <pt x="650" y="1550" on="1"/>
        <pt x="884" y="1488" on="0"/>
        <pt x="1023" y="1341" on="1"/>
        <pt x="1218" y="1137" on="0"/>
        <pt x="1218" y="849" on="1"/>
        <pt x="1218" y="463" on="0"/>
        <pt x="870" y="220" on="1"/>
        <pt x="588" y="22" on="0"/>
        <pt x="210" y="-40" on="1"/>
      </contour>
    </TTGlyph>
    <TTGlyph name="Dcaron" xMin="200" yMin="-40" xMax="1218" yMax="1966">
      <contour>
        <pt x="526" y="1966" on="1"/>
        <pt x="536" y="1966" on="1"/>
        <pt x="677" y="1738" on="1"/>
        <pt x="818" y="1966" on="1"/>
        <pt x="828" y="1966" on="1"/>
        <pt x="931" y="1917" on="1"/>
        <pt x="761" y="1648" on="1"/>
        <pt x="588" y="1566" on="1"/>
        <pt x="578" y="1566" on="1"/>
        <pt x="353" y="1884" on="1"/>
      </contour>
      <contour>
        <pt x="200" y="-40" on="1"/>
        <pt x="200" y="1460" on="1"/>
        <pt x="390" y="1550" on="1"/>
        <pt x="400" y="1550" on="1"/>
        <pt x="400" y="100" on="1"/>
        <pt x="638" y="189" on="0"/>
        <pt x="797" y="326" on="1"/>
        <pt x="1026" y="522" on="0"/>
        <pt x="1026" y="816" on="1"/>
        <pt x="1026" y="1072" on="0"/>
        <pt x="839" y="1245" on="1"/>
        <pt x="705" y="1369" on="0"/>
        <pt x="411" y="1441" on="1"/>
        <pt x="640" y="1550" on="1"/>
        <pt x="650" y="1550" on="1"/>
        <pt x="884" y="1488" on="0"/>
        <pt x="1023" y="1341" on="1"/>
        <pt x="1218" y="1137" on="0"/>
        <pt x="1218" y="849" on="1"/>
        <pt x="1218" y="463" on="0"/>
        <pt x="870" y="220" on="1"/>
        <pt x="588" y="22" on="0"/>
        <pt x="210" y="-40" on="1"/>
      </contour>
    </TTGlyph>
    <TTGlyph name="Dcroat" xMin="50" yMin="-40" xMax="1218" yMax="1550">
      <contour>
        <pt x="200" y="-40" on="1"/>
        <pt x="200" y="522" on="1"/>
        <pt x="50" y="522" on="1"/>
        <pt x="50" y="532" on="1"/>
        <pt x="107" y="652" on="1"/>
        <pt x="200" y="652" on="1"/>
        <pt x="200" y="1460" on="1"/>
        <pt x="390" y="1550" on="1"/>
        <pt x="400" y="1550" on="1"/>
        <pt x="400" y="652" on="1"/>
        <pt x="870" y="652" on="1"/>
        <pt x="870" y="642" on="1"/>
        <pt x="813" y="522" on="1"/>
        <pt x="400" y="522" on="1"/>
        <pt x="400" y="100" on="1"/>
        <pt x="637" y="189" on="0"/>
        <pt x="797" y="326" on="1"/>
        <pt x="1026" y="523" on="0"/>
        <pt x="1026" y="816" on="1"/>
        <pt x="1026" y="1072" on="0"/>
        <pt x="839" y="1245" on="1"/>
        <pt x="705" y="1369" on="0"/>
        <pt x="411" y="1441" on="1"/>
        <pt x="640" y="1550" on="1"/>
        <pt x="650" y="1550" on="1"/>
        <pt x="883" y="1488" on="0"/>
        <pt x="1023" y="1341" on="1"/>
        <pt x="1218" y="1136" on="0"/>
        <pt x="1218" y="849" on="1"/>
        <pt x="1218" y="464" on="0"/>
        <pt x="870" y="220" on="1"/>
        <pt x="587" y="22" on="0"/>
        <pt x="210" y="-40" on="1"/>
      </contour>
    </TTGlyph>
    <TTGlyph name="Delta" xMin="5" yMin="0" xMax="1186" yMax="1550">
      <contour>
        <pt x="5" y="0" on="1"/>
        <pt x="493" y="1468" on="1"/>
        <pt x="666" y="1550" on="1"/>
        <pt x="676" y="1550" on="1"/>
        <pt x="1186" y="0" on="1"/>
      </contour>
      <contour>
        <pt x="182" y="130" on="1"/>
        <pt x="933" y="130" on="1"/>
        <pt x="561" y="1276" on="1"/>
      </contour>
    </TTGlyph>
    <TTGlyph name="E" xMin="50" yMin="0" xMax="1083" yMax="1510">
      <contour>
        <pt x="50" y="0" on="1"/>
        <pt x="50" y="10" on="1"/>
        <pt x="107" y="130" on="1"/>
        <pt x="200" y="130" on="1"/>
        <pt x="200" y="522" on="1"/>
        <pt x="50" y="522" on="1"/>
        <pt x="50" y="532" on="1"/>
        <pt x="107" y="652" on="1"/>
        <pt x="200" y="652" on="1"/>
        <pt x="200" y="1460" on="1"/>
        <pt x="306" y="1510" on="1"/>
        <pt x="940" y="1510" on="1"/>
        <pt x="940" y="1500" on="1"/>
        <pt x="883" y="1380" on="1"/>
        <pt x="400" y="1380" on="1"/>
        <pt x="400" y="652" on="1"/>
        <pt x="870" y="652" on="1"/>
        <pt x="870" y="642" on="1"/>
        <pt x="813" y="522" on="1"/>
        <pt x="400" y="522" on="1"/>
        <pt x="400" y="130" on="1"/>
        <pt x="1083" y="130" on="1"/>
        <pt x="1083" y="120" on="1"/>
        <pt x="1026" y="0" on="1"/>
      </contour>
    </TTGlyph>
    <TTGlyph name="Eacute" xMin="50" yMin="0" xMax="1083" yMax="1966">
      <contour>
        <pt x="50" y="0" on="1"/>
        <pt x="50" y="10" on="1"/>
        <pt x="107" y="130" on="1"/>
        <pt x="200" y="130" on="1"/>
        <pt x="200" y="522" on="1"/>
        <pt x="50" y="522" on="1"/>
        <pt x="50" y="532" on="1"/>
        <pt x="107" y="652" on="1"/>
        <pt x="200" y="652" on="1"/>
        <pt x="200" y="1460" on="1"/>
        <pt x="306" y="1510" on="1"/>
        <pt x="940" y="1510" on="1"/>
        <pt x="940" y="1500" on="1"/>
        <pt x="883" y="1380" on="1"/>
        <pt x="400" y="1380" on="1"/>
        <pt x="400" y="652" on="1"/>
        <pt x="870" y="652" on="1"/>
        <pt x="870" y="642" on="1"/>
        <pt x="813" y="522" on="1"/>
        <pt x="400" y="522" on="1"/>
        <pt x="400" y="130" on="1"/>
        <pt x="1083" y="130" on="1"/>
        <pt x="1083" y="120" on="1"/>
        <pt x="1026" y="0" on="1"/>
      </contour>
      <contour>
        <pt x="669" y="1966" on="1"/>
        <pt x="679" y="1966" on="1"/>
        <pt x="855" y="1882" on="1"/>
        <pt x="634" y="1566" on="1"/>
        <pt x="624" y="1566" on="1"/>
        <pt x="507" y="1621" on="1"/>
      </contour>
    </TTGlyph>
    <TTGlyph name="Ebreve" xMin="50" yMin="0" xMax="1083" yMax="1902">
      <contour>
        <pt x="50" y="0" on="1"/>
        <pt x="50" y="10" on="1"/>
        <pt x="107" y="130" on="1"/>
        <pt x="200" y="130" on="1"/>
        <pt x="200" y="522" on="1"/>
        <pt x="50" y="522" on="1"/>
        <pt x="50" y="532" on="1"/>
        <pt x="107" y="652" on="1"/>
        <pt x="200" y="652" on="1"/>
        <pt x="200" y="1460" on="1"/>
        <pt x="306" y="1510" on="1"/>
        <pt x="940" y="1510" on="1"/>
        <pt x="940" y="1500" on="1"/>
        <pt x="883" y="1380" on="1"/>
        <pt x="400" y="1380" on="1"/>
        <pt x="400" y="652" on="1"/>
        <pt x="870" y="652" on="1"/>
        <pt x="870" y="642" on="1"/>
        <pt x="813" y="522" on="1"/>
        <pt x="400" y="522" on="1"/>
        <pt x="400" y="130" on="1"/>
        <pt x="1083" y="130" on="1"/>
        <pt x="1083" y="120" on="1"/>
        <pt x="1026" y="0" on="1"/>
      </contour>
      <contour>
        <pt x="269" y="1785" on="1"/>
        <pt x="400" y="1902" on="1"/>
        <pt x="410" y="1902" on="1"/>
        <pt x="494" y="1796" on="0"/>
        <pt x="596" y="1796" on="1"/>
        <pt x="699" y="1796" on="0"/>
        <pt x="806" y="1897" on="1"/>
        <pt x="816" y="1897" on="1"/>
        <pt x="865" y="1853" on="1"/>
        <pt x="614" y="1638" on="1"/>
        <pt x="425" y="1638" on="0"/>
      </contour>
    </TTGlyph>
    <TTGlyph name="Ecaron" xMin="50" yMin="0" xMax="1083" yMax="1966">
      <contour>
        <pt x="50" y="0" on="1"/>
        <pt x="50" y="10" on="1"/>
        <pt x="107" y="130" on="1"/>
        <pt x="200" y="130" on="1"/>
        <pt x="200" y="522" on="1"/>
        <pt x="50" y="522" on="1"/>
        <pt x="50" y="532" on="1"/>
        <pt x="107" y="652" on="1"/>
        <pt x="200" y="652" on="1"/>
        <pt x="200" y="1460" on="1"/>
        <pt x="306" y="1510" on="1"/>
        <pt x="940" y="1510" on="1"/>
        <pt x="940" y="1500" on="1"/>
        <pt x="883" y="1380" on="1"/>
        <pt x="400" y="1380" on="1"/>
        <pt x="400" y="652" on="1"/>
        <pt x="870" y="652" on="1"/>
        <pt x="870" y="642" on="1"/>
        <pt x="813" y="522" on="1"/>
        <pt x="400" y="522" on="1"/>
        <pt x="400" y="130" on="1"/>
        <pt x="1083" y="130" on="1"/>
        <pt x="1083" y="120" on="1"/>
        <pt x="1026" y="0" on="1"/>
      </contour>
      <contour>
        <pt x="458" y="1966" on="1"/>
        <pt x="468" y="1966" on="1"/>
        <pt x="609" y="1738" on="1"/>
        <pt x="750" y="1966" on="1"/>
        <pt x="760" y="1966" on="1"/>
        <pt x="863" y="1917" on="1"/>
        <pt x="693" y="1648" on="1"/>
        <pt x="520" y="1566" on="1"/>
        <pt x="510" y="1566" on="1"/>
        <pt x="285" y="1884" on="1"/>
      </contour>
    </TTGlyph>
    <TTGlyph name="Ecircumflex" xMin="50" yMin="0" xMax="1083" yMax="1966">
      <contour>
        <pt x="50" y="0" on="1"/>
        <pt x="50" y="10" on="1"/>
        <pt x="107" y="130" on="1"/>
        <pt x="200" y="130" on="1"/>
        <pt x="200" y="522" on="1"/>
        <pt x="50" y="522" on="1"/>
        <pt x="50" y="532" on="1"/>
        <pt x="107" y="652" on="1"/>
        <pt x="200" y="652" on="1"/>
        <pt x="200" y="1460" on="1"/>
        <pt x="306" y="1510" on="1"/>
        <pt x="940" y="1510" on="1"/>
        <pt x="940" y="1500" on="1"/>
        <pt x="883" y="1380" on="1"/>
        <pt x="400" y="1380" on="1"/>
        <pt x="400" y="652" on="1"/>
        <pt x="870" y="652" on="1"/>
        <pt x="870" y="642" on="1"/>
        <pt x="813" y="522" on="1"/>
        <pt x="400" y="522" on="1"/>
        <pt x="400" y="130" on="1"/>
        <pt x="1083" y="130" on="1"/>
        <pt x="1083" y="120" on="1"/>
        <pt x="1026" y="0" on="1"/>
      </contour>
      <contour>
        <pt x="648" y="1966" on="1"/>
        <pt x="873" y="1648" on="1"/>
        <pt x="700" y="1566" on="1"/>
        <pt x="690" y="1566" on="1"/>
        <pt x="549" y="1794" on="1"/>
        <pt x="408" y="1566" on="1"/>
        <pt x="398" y="1566" on="1"/>
        <pt x="295" y="1615" on="1"/>
        <pt x="465" y="1884" on="1"/>
        <pt x="638" y="1966" on="1"/>
      </contour>
    </TTGlyph>
    <TTGlyph name="Edieresis" xMin="50" yMin="0" xMax="1083" yMax="1966">
      <contour>
        <pt x="50" y="0" on="1"/>
        <pt x="50" y="10" on="1"/>
        <pt x="107" y="130" on="1"/>
        <pt x="200" y="130" on="1"/>
        <pt x="200" y="522" on="1"/>
        <pt x="50" y="522" on="1"/>
        <pt x="50" y="532" on="1"/>
        <pt x="107" y="652" on="1"/>
        <pt x="200" y="652" on="1"/>
        <pt x="200" y="1460" on="1"/>
        <pt x="306" y="1510" on="1"/>
        <pt x="940" y="1510" on="1"/>
        <pt x="940" y="1500" on="1"/>
        <pt x="883" y="1380" on="1"/>
        <pt x="400" y="1380" on="1"/>
        <pt x="400" y="652" on="1"/>
        <pt x="870" y="652" on="1"/>
        <pt x="870" y="642" on="1"/>
        <pt x="813" y="522" on="1"/>
        <pt x="400" y="522" on="1"/>
        <pt x="400" y="130" on="1"/>
        <pt x="1083" y="130" on="1"/>
        <pt x="1083" y="120" on="1"/>
        <pt x="1026" y="0" on="1"/>
      </contour>
      <contour>
        <pt x="828" y="1966" on="1"/>
        <pt x="838" y="1966" on="1"/>
        <pt x="838" y="1738" on="1"/>
        <pt x="648" y="1648" on="1"/>
        <pt x="638" y="1648" on="1"/>
        <pt x="638" y="1876" on="1"/>
      </contour>
      <contour>
        <pt x="555" y="1966" on="1"/>
        <pt x="565" y="1966" on="1"/>
        <pt x="565" y="1738" on="1"/>
        <pt x="375" y="1648" on="1"/>
        <pt x="365" y="1648" on="1"/>
        <pt x="365" y="1876" on="1"/>
      </contour>
    </TTGlyph>
    <TTGlyph name="Edotaccent" xMin="50" yMin="0" xMax="1083" yMax="1966">
      <contour>
        <pt x="50" y="0" on="1"/>
        <pt x="50" y="10" on="1"/>
        <pt x="107" y="130" on="1"/>
        <pt x="200" y="130" on="1"/>
        <pt x="200" y="522" on="1"/>
        <pt x="50" y="522" on="1"/>
        <pt x="50" y="532" on="1"/>
        <pt x="107" y="652" on="1"/>
        <pt x="200" y="652" on="1"/>
        <pt x="200" y="1460" on="1"/>
        <pt x="306" y="1510" on="1"/>
        <pt x="940" y="1510" on="1"/>
        <pt x="940" y="1500" on="1"/>
        <pt x="883" y="1380" on="1"/>
        <pt x="400" y="1380" on="1"/>
        <pt x="400" y="652" on="1"/>
        <pt x="870" y="652" on="1"/>
        <pt x="870" y="642" on="1"/>
        <pt x="813" y="522" on="1"/>
        <pt x="400" y="522" on="1"/>
        <pt x="400" y="130" on="1"/>
        <pt x="1083" y="130" on="1"/>
        <pt x="1083" y="120" on="1"/>
        <pt x="1026" y="0" on="1"/>
      </contour>
      <contour>
        <pt x="686" y="1966" on="1"/>
        <pt x="686" y="1738" on="1"/>
        <pt x="496" y="1648" on="1"/>
        <pt x="486" y="1648" on="1"/>
        <pt x="486" y="1876" on="1"/>
        <pt x="676" y="1966" on="1"/>
      </contour>
    </TTGlyph>
    <TTGlyph name="Egrave" xMin="50" yMin="0" xMax="1083" yMax="1966">
      <contour>
        <pt x="50" y="0" on="1"/>
        <pt x="50" y="10" on="1"/>
        <pt x="107" y="130" on="1"/>
        <pt x="200" y="130" on="1"/>
        <pt x="200" y="522" on="1"/>
        <pt x="50" y="522" on="1"/>
        <pt x="50" y="532" on="1"/>
        <pt x="107" y="652" on="1"/>
        <pt x="200" y="652" on="1"/>
        <pt x="200" y="1460" on="1"/>
        <pt x="306" y="1510" on="1"/>
        <pt x="940" y="1510" on="1"/>
        <pt x="940" y="1500" on="1"/>
        <pt x="883" y="1380" on="1"/>
        <pt x="400" y="1380" on="1"/>
        <pt x="400" y="652" on="1"/>
        <pt x="870" y="652" on="1"/>
        <pt x="870" y="642" on="1"/>
        <pt x="813" y="522" on="1"/>
        <pt x="400" y="522" on="1"/>
        <pt x="400" y="130" on="1"/>
        <pt x="1083" y="130" on="1"/>
        <pt x="1083" y="120" on="1"/>
        <pt x="1026" y="0" on="1"/>
      </contour>
      <contour>
        <pt x="526" y="1966" on="1"/>
        <pt x="536" y="1966" on="1"/>
        <pt x="698" y="1621" on="1"/>
        <pt x="581" y="1566" on="1"/>
        <pt x="571" y="1566" on="1"/>
        <pt x="350" y="1882" on="1"/>
      </contour>
    </TTGlyph>
    <TTGlyph name="Emacron" xMin="50" yMin="0" xMax="1083" yMax="1820">
      <contour>
        <pt x="50" y="0" on="1"/>
        <pt x="50" y="10" on="1"/>
        <pt x="107" y="130" on="1"/>
        <pt x="200" y="130" on="1"/>
        <pt x="200" y="522" on="1"/>
        <pt x="50" y="522" on="1"/>
        <pt x="50" y="532" on="1"/>
        <pt x="107" y="652" on="1"/>
        <pt x="200" y="652" on="1"/>
        <pt x="200" y="1460" on="1"/>
        <pt x="306" y="1510" on="1"/>
        <pt x="940" y="1510" on="1"/>
        <pt x="940" y="1500" on="1"/>
        <pt x="883" y="1380" on="1"/>
        <pt x="400" y="1380" on="1"/>
        <pt x="400" y="652" on="1"/>
        <pt x="870" y="652" on="1"/>
        <pt x="870" y="642" on="1"/>
        <pt x="813" y="522" on="1"/>
        <pt x="400" y="522" on="1"/>
        <pt x="400" y="130" on="1"/>
        <pt x="1083" y="130" on="1"/>
        <pt x="1083" y="120" on="1"/>
        <pt x="1026" y="0" on="1"/>
      </contour>
      <contour>
        <pt x="331" y="1638" on="1"/>
        <pt x="331" y="1648" on="1"/>
        <pt x="412" y="1820" on="1"/>
        <pt x="870" y="1820" on="1"/>
        <pt x="870" y="1810" on="1"/>
        <pt x="789" y="1638" on="1"/>
      </contour>
    </TTGlyph>
    <TTGlyph name="Eng" xMin="200" yMin="-383" xMax="1210" yMax="1550">
      <contour>
        <pt x="200" y="-40" on="1"/>
        <pt x="200" y="1160" on="1"/>
        <pt x="705" y="1550" on="1"/>
        <pt x="933" y="1550" on="0"/>
        <pt x="1075" y="1405" on="1"/>
        <pt x="1210" y="1267" on="0"/>
        <pt x="1210" y="1050" on="1"/>
        <pt x="1210" y="-122" on="1"/>
        <pt x="873" y="-383" on="1"/>
        <pt x="795" y="-294" on="0"/>
        <pt x="795" y="-292" on="1"/>
        <pt x="891" y="-291" on="0"/>
        <pt x="951" y="-231" on="1"/>
        <pt x="1010" y="-171" on="0"/>
        <pt x="1010" y="-57" on="1"/>
        <pt x="1010" y="1050" on="1"/>
        <pt x="1010" y="1184" on="0"/>
        <pt x="938" y="1267" on="1"/>
        <pt x="849" y="1370" on="0"/>
        <pt x="705" y="1370" on="1"/>
        <pt x="558" y="1370" on="0"/>
        <pt x="472" y="1267" on="1"/>
        <pt x="400" y="1181" on="0"/>
        <pt x="400" y="1050" on="1"/>
        <pt x="400" y="50" on="1"/>
        <pt x="210" y="-40" on="1"/>
      </contour>
    </TTGlyph>
    <TTGlyph name="Eogonek" xMin="50" yMin="-450" xMax="1083" yMax="1510">
      <contour>
        <pt x="50" y="0" on="1"/>
        <pt x="50" y="10" on="1"/>
        <pt x="107" y="130" on="1"/>
        <pt x="200" y="130" on="1"/>
        <pt x="200" y="522" on="1"/>
        <pt x="50" y="522" on="1"/>
        <pt x="50" y="532" on="1"/>
        <pt x="107" y="652" on="1"/>
        <pt x="200" y="652" on="1"/>
        <pt x="200" y="1460" on="1"/>
        <pt x="306" y="1510" on="1"/>
        <pt x="940" y="1510" on="1"/>
        <pt x="940" y="1500" on="1"/>
        <pt x="883" y="1380" on="1"/>
        <pt x="400" y="1380" on="1"/>
        <pt x="400" y="652" on="1"/>
        <pt x="870" y="652" on="1"/>
        <pt x="870" y="642" on="1"/>
        <pt x="813" y="522" on="1"/>
        <pt x="400" y="522" on="1"/>
        <pt x="400" y="130" on="1"/>
        <pt x="1083" y="130" on="1"/>
        <pt x="1083" y="120" on="1"/>
        <pt x="1026" y="0" on="1"/>
        <pt x="958" y="0" on="1"/>
        <pt x="899" y="-92" on="0"/>
        <pt x="899" y="-178" on="1"/>
        <pt x="899" y="-290" on="0"/>
        <pt x="1007" y="-360" on="1"/>
        <pt x="817" y="-450" on="1"/>
        <pt x="807" y="-450" on="1"/>
        <pt x="724" y="-348" on="0"/>
        <pt x="711" y="-159" on="1"/>
        <pt x="846" y="0" on="1"/>
      </contour>
    </TTGlyph>
    <TTGlyph name="Eth" xMin="50" yMin="-40" xMax="1218" yMax="1550">
      <contour>
        <pt x="200" y="-40" on="1"/>
        <pt x="200" y="522" on="1"/>
        <pt x="50" y="522" on="1"/>
        <pt x="50" y="532" on="1"/>
        <pt x="107" y="652" on="1"/>
        <pt x="200" y="652" on="1"/>
        <pt x="200" y="1460" on="1"/>
        <pt x="390" y="1550" on="1"/>
        <pt x="400" y="1550" on="1"/>
        <pt x="400" y="652" on="1"/>
        <pt x="870" y="652" on="1"/>
        <pt x="870" y="642" on="1"/>
        <pt x="813" y="522" on="1"/>
        <pt x="400" y="522" on="1"/>
        <pt x="400" y="100" on="1"/>
        <pt x="637" y="189" on="0"/>
        <pt x="797" y="326" on="1"/>
        <pt x="1026" y="523" on="0"/>
        <pt x="1026" y="816" on="1"/>
        <pt x="1026" y="1072" on="0"/>
        <pt x="839" y="1245" on="1"/>
        <pt x="705" y="1369" on="0"/>
        <pt x="411" y="1441" on="1"/>
        <pt x="640" y="1550" on="1"/>
        <pt x="650" y="1550" on="1"/>
        <pt x="883" y="1488" on="0"/>
        <pt x="1023" y="1341" on="1"/>
        <pt x="1218" y="1136" on="0"/>
        <pt x="1218" y="849" on="1"/>
        <pt x="1218" y="464" on="0"/>
        <pt x="870" y="220" on="1"/>
        <pt x="587" y="22" on="0"/>
        <pt x="210" y="-40" on="1"/>
      </contour>
    </TTGlyph>
    <TTGlyph name="Euro" xMin="50" yMin="-40" xMax="1210" yMax="1550">
      <contour>
        <pt x="705" y="-40" on="1"/>
        <pt x="477" y="-40" on="0"/>
        <pt x="335" y="105" on="1"/>
        <pt x="200" y="243" on="0"/>
        <pt x="200" y="460" on="1"/>
        <pt x="200" y="522" on="1"/>
        <pt x="50" y="522" on="1"/>
        <pt x="50" y="532" on="1"/>
        <pt x="107" y="652" on="1"/>
        <pt x="200" y="652" on="1"/>
        <pt x="200" y="754" on="1"/>
        <pt x="50" y="754" on="1"/>
        <pt x="50" y="764" on="1"/>
        <pt x="107" y="884" on="1"/>
        <pt x="200" y="884" on="1"/>
        <pt x="200" y="1160" on="1"/>
        <pt x="705" y="1550" on="1"/>
        <pt x="933" y="1550" on="0"/>
        <pt x="1075" y="1405" on="1"/>
        <pt x="1210" y="1267" on="0"/>
        <pt x="1210" y="1050" on="1"/>
        <pt x="1020" y="960" on="1"/>
        <pt x="1010" y="960" on="1"/>
        <pt x="1010" y="1050" on="1"/>
        <pt x="1010" y="1184" on="0"/>
        <pt x="938" y="1267" on="1"/>
        <pt x="849" y="1370" on="0"/>
        <pt x="561" y="1370" on="0"/>
        <pt x="472" y="1267" on="1"/>
        <pt x="400" y="1183" on="0"/>
        <pt x="400" y="1050" on="1"/>
        <pt x="400" y="884" on="1"/>
        <pt x="870" y="884" on="1"/>
        <pt x="870" y="874" on="1"/>
        <pt x="813" y="754" on="1"/>
        <pt x="400" y="754" on="1"/>
        <pt x="400" y="652" on="1"/>
        <pt x="870" y="652" on="1"/>
        <pt x="870" y="642" on="1"/>
        <pt x="813" y="522" on="1"/>
        <pt x="400" y="522" on="1"/>
        <pt x="400" y="460" on="1"/>
        <pt x="400" y="328" on="0"/>
        <pt x="472" y="243" on="1"/>
        <pt x="559" y="140" on="0"/>
        <pt x="705" y="140" on="1"/>
        <pt x="848" y="140" on="0"/>
        <pt x="938" y="243" on="1"/>
        <pt x="1010" y="326" on="0"/>
        <pt x="1010" y="460" on="1"/>
        <pt x="1200" y="550" on="1"/>
        <pt x="1210" y="550" on="1"/>
        <pt x="1210" y="350" on="1"/>
      </contour>
    </TTGlyph>
    <TTGlyph name="F" xMin="50" yMin="-40" xMax="940" yMax="1510">
      <contour>
        <pt x="200" y="-40" on="1"/>
        <pt x="200" y="522" on="1"/>
        <pt x="50" y="522" on="1"/>
        <pt x="50" y="532" on="1"/>
        <pt x="107" y="652" on="1"/>
        <pt x="200" y="652" on="1"/>
        <pt x="200" y="1460" on="1"/>
        <pt x="306" y="1510" on="1"/>
        <pt x="940" y="1510" on="1"/>
        <pt x="940" y="1500" on="1"/>
        <pt x="883" y="1380" on="1"/>
        <pt x="400" y="1380" on="1"/>
        <pt x="400" y="652" on="1"/>
        <pt x="870" y="652" on="1"/>
        <pt x="870" y="642" on="1"/>
        <pt x="813" y="522" on="1"/>
        <pt x="400" y="522" on="1"/>
        <pt x="400" y="50" on="1"/>
        <pt x="210" y="-40" on="1"/>
      </contour>
    </TTGlyph>
    <TTGlyph name="G" xMin="200" yMin="-40" xMax="1210" yMax="1550">
      <contour>
        <pt x="705" y="-40" on="1"/>
        <pt x="477" y="-40" on="0"/>
        <pt x="335" y="105" on="1"/>
        <pt x="200" y="243" on="0"/>
        <pt x="200" y="460" on="1"/>
        <pt x="200" y="1160" on="1"/>
        <pt x="705" y="1550" on="1"/>
        <pt x="933" y="1550" on="0"/>
        <pt x="1075" y="1405" on="1"/>
        <pt x="1210" y="1267" on="0"/>
        <pt x="1210" y="1050" on="1"/>
        <pt x="1020" y="960" on="1"/>
        <pt x="1010" y="960" on="1"/>
        <pt x="1010" y="1050" on="1"/>
        <pt x="1010" y="1184" on="0"/>
        <pt x="938" y="1267" on="1"/>
        <pt x="849" y="1370" on="0"/>
        <pt x="705" y="1370" on="1"/>
        <pt x="560" y="1370" on="0"/>
        <pt x="472" y="1267" on="1"/>
        <pt x="400" y="1184" on="0"/>
        <pt x="400" y="1050" on="1"/>
        <pt x="400" y="460" on="1"/>
        <pt x="400" y="328" on="0"/>
        <pt x="472" y="243" on="1"/>
        <pt x="559" y="140" on="0"/>
        <pt x="705" y="140" on="1"/>
        <pt x="848" y="140" on="0"/>
        <pt x="938" y="243" on="1"/>
        <pt x="1010" y="326" on="0"/>
        <pt x="1010" y="460" on="1"/>
        <pt x="1010" y="522" on="1"/>
        <pt x="647" y="522" on="1"/>
        <pt x="647" y="532" on="1"/>
        <pt x="704" y="652" on="1"/>
        <pt x="1210" y="652" on="1"/>
        <pt x="1210" y="350" on="1"/>
      </contour>
    </TTGlyph>
    <TTGlyph name="Gbreve" xMin="200" yMin="-40" xMax="1210" yMax="1902">
      <contour>
        <pt x="705" y="-40" on="1"/>
        <pt x="477" y="-40" on="0"/>
        <pt x="335" y="105" on="1"/>
        <pt x="200" y="243" on="0"/>
        <pt x="200" y="460" on="1"/>
        <pt x="200" y="1160" on="1"/>
        <pt x="705" y="1550" on="1"/>
        <pt x="933" y="1550" on="0"/>
        <pt x="1075" y="1405" on="1"/>
        <pt x="1210" y="1267" on="0"/>
        <pt x="1210" y="1050" on="1"/>
        <pt x="1020" y="960" on="1"/>
        <pt x="1010" y="960" on="1"/>
        <pt x="1010" y="1050" on="1"/>
        <pt x="1010" y="1184" on="0"/>
        <pt x="938" y="1267" on="1"/>
        <pt x="849" y="1370" on="0"/>
        <pt x="705" y="1370" on="1"/>
        <pt x="560" y="1370" on="0"/>
        <pt x="472" y="1267" on="1"/>
        <pt x="400" y="1184" on="0"/>
        <pt x="400" y="1050" on="1"/>
        <pt x="400" y="460" on="1"/>
        <pt x="400" y="328" on="0"/>
        <pt x="472" y="243" on="1"/>
        <pt x="559" y="140" on="0"/>
        <pt x="705" y="140" on="1"/>
        <pt x="848" y="140" on="0"/>
        <pt x="938" y="243" on="1"/>
        <pt x="1010" y="326" on="0"/>
        <pt x="1010" y="460" on="1"/>
        <pt x="1010" y="522" on="1"/>
        <pt x="647" y="522" on="1"/>
        <pt x="647" y="532" on="1"/>
        <pt x="704" y="652" on="1"/>
        <pt x="1210" y="652" on="1"/>
        <pt x="1210" y="350" on="1"/>
      </contour>
      <contour>
        <pt x="402" y="1785" on="1"/>
        <pt x="533" y="1902" on="1"/>
        <pt x="543" y="1902" on="1"/>
        <pt x="627" y="1796" on="0"/>
        <pt x="729" y="1796" on="1"/>
        <pt x="832" y="1796" on="0"/>
        <pt x="939" y="1897" on="1"/>
        <pt x="949" y="1897" on="1"/>
        <pt x="998" y="1853" on="1"/>
        <pt x="747" y="1638" on="1"/>
        <pt x="558" y="1638" on="0"/>
      </contour>
    </TTGlyph>
    <TTGlyph name="Gcircumflex" xMin="200" yMin="-40" xMax="1210" yMax="1966">
      <contour>
        <pt x="705" y="-40" on="1"/>
        <pt x="477" y="-40" on="0"/>
        <pt x="335" y="105" on="1"/>
        <pt x="200" y="243" on="0"/>
        <pt x="200" y="460" on="1"/>
        <pt x="200" y="1160" on="1"/>
        <pt x="705" y="1550" on="1"/>
        <pt x="933" y="1550" on="0"/>
        <pt x="1075" y="1405" on="1"/>
        <pt x="1210" y="1267" on="0"/>
        <pt x="1210" y="1050" on="1"/>
        <pt x="1020" y="960" on="1"/>
        <pt x="1010" y="960" on="1"/>
        <pt x="1010" y="1050" on="1"/>
        <pt x="1010" y="1184" on="0"/>
        <pt x="938" y="1267" on="1"/>
        <pt x="849" y="1370" on="0"/>
        <pt x="705" y="1370" on="1"/>
        <pt x="560" y="1370" on="0"/>
        <pt x="472" y="1267" on="1"/>
        <pt x="400" y="1184" on="0"/>
        <pt x="400" y="1050" on="1"/>
        <pt x="400" y="460" on="1"/>
        <pt x="400" y="328" on="0"/>
        <pt x="472" y="243" on="1"/>
        <pt x="559" y="140" on="0"/>
        <pt x="705" y="140" on="1"/>
        <pt x="848" y="140" on="0"/>
        <pt x="938" y="243" on="1"/>
        <pt x="1010" y="326" on="0"/>
        <pt x="1010" y="460" on="1"/>
        <pt x="1010" y="522" on="1"/>
        <pt x="647" y="522" on="1"/>
        <pt x="647" y="532" on="1"/>
        <pt x="704" y="652" on="1"/>
        <pt x="1210" y="652" on="1"/>
        <pt x="1210" y="350" on="1"/>
      </contour>
      <contour>
        <pt x="806" y="1966" on="1"/>
        <pt x="1031" y="1648" on="1"/>
        <pt x="858" y="1566" on="1"/>
        <pt x="848" y="1566" on="1"/>
        <pt x="707" y="1794" on="1"/>
        <pt x="566" y="1566" on="1"/>
        <pt x="556" y="1566" on="1"/>
        <pt x="453" y="1615" on="1"/>
        <pt x="623" y="1884" on="1"/>
        <pt x="796" y="1966" on="1"/>
      </contour>
    </TTGlyph>
    <TTGlyph name="Gcommaaccent" xMin="200" yMin="-450" xMax="1210" yMax="1550">
      <contour>
        <pt x="705" y="-40" on="1"/>
        <pt x="477" y="-40" on="0"/>
        <pt x="335" y="105" on="1"/>
        <pt x="200" y="243" on="0"/>
        <pt x="200" y="460" on="1"/>
        <pt x="200" y="1160" on="1"/>
        <pt x="705" y="1550" on="1"/>
        <pt x="933" y="1550" on="0"/>
        <pt x="1075" y="1405" on="1"/>
        <pt x="1210" y="1267" on="0"/>
        <pt x="1210" y="1050" on="1"/>
        <pt x="1020" y="960" on="1"/>
        <pt x="1010" y="960" on="1"/>
        <pt x="1010" y="1050" on="1"/>
        <pt x="1010" y="1184" on="0"/>
        <pt x="938" y="1267" on="1"/>
        <pt x="849" y="1370" on="0"/>
        <pt x="705" y="1370" on="1"/>
        <pt x="560" y="1370" on="0"/>
        <pt x="472" y="1267" on="1"/>
        <pt x="400" y="1184" on="0"/>
        <pt x="400" y="1050" on="1"/>
        <pt x="400" y="460" on="1"/>
        <pt x="400" y="328" on="0"/>
        <pt x="472" y="243" on="1"/>
        <pt x="559" y="140" on="0"/>
        <pt x="705" y="140" on="1"/>
        <pt x="848" y="140" on="0"/>
        <pt x="938" y="243" on="1"/>
        <pt x="1010" y="326" on="0"/>
        <pt x="1010" y="460" on="1"/>
        <pt x="1010" y="522" on="1"/>
        <pt x="647" y="522" on="1"/>
        <pt x="647" y="532" on="1"/>
        <pt x="704" y="652" on="1"/>
        <pt x="1210" y="652" on="1"/>
        <pt x="1210" y="350" on="1"/>
      </contour>
      <contour>
        <pt x="595" y="-450" on="1"/>
        <pt x="585" y="-450" on="1"/>
        <pt x="409" y="-366" on="1"/>
        <pt x="630" y="-50" on="1"/>
        <pt x="640" y="-50" on="1"/>
        <pt x="757" y="-105" on="1"/>
      </contour>
    </TTGlyph>
    <TTGlyph name="Gdotaccent" xMin="200" yMin="-40" xMax="1210" yMax="1966">
      <contour>
        <pt x="705" y="-40" on="1"/>
        <pt x="477" y="-40" on="0"/>
        <pt x="335" y="105" on="1"/>
        <pt x="200" y="243" on="0"/>
        <pt x="200" y="460" on="1"/>
        <pt x="200" y="1160" on="1"/>
        <pt x="705" y="1550" on="1"/>
        <pt x="933" y="1550" on="0"/>
        <pt x="1075" y="1405" on="1"/>
        <pt x="1210" y="1267" on="0"/>
        <pt x="1210" y="1050" on="1"/>
        <pt x="1020" y="960" on="1"/>
        <pt x="1010" y="960" on="1"/>
        <pt x="1010" y="1050" on="1"/>
        <pt x="1010" y="1184" on="0"/>
        <pt x="938" y="1267" on="1"/>
        <pt x="849" y="1370" on="0"/>
        <pt x="705" y="1370" on="1"/>
        <pt x="560" y="1370" on="0"/>
        <pt x="472" y="1267" on="1"/>
        <pt x="400" y="1184" on="0"/>
        <pt x="400" y="1050" on="1"/>
        <pt x="400" y="460" on="1"/>
        <pt x="400" y="328" on="0"/>
        <pt x="472" y="243" on="1"/>
        <pt x="559" y="140" on="0"/>
        <pt x="705" y="140" on="1"/>
        <pt x="848" y="140" on="0"/>
        <pt x="938" y="243" on="1"/>
        <pt x="1010" y="326" on="0"/>
        <pt x="1010" y="460" on="1"/>
        <pt x="1010" y="522" on="1"/>
        <pt x="647" y="522" on="1"/>
        <pt x="647" y="532" on="1"/>
        <pt x="704" y="652" on="1"/>
        <pt x="1210" y="652" on="1"/>
        <pt x="1210" y="350" on="1"/>
      </contour>
      <contour>
        <pt x="800" y="1966" on="1"/>
        <pt x="800" y="1738" on="1"/>
        <pt x="610" y="1648" on="1"/>
        <pt x="600" y="1648" on="1"/>
        <pt x="600" y="1876" on="1"/>
        <pt x="790" y="1966" on="1"/>
      </contour>
    </TTGlyph>
    <TTGlyph name="H" xMin="50" yMin="-40" xMax="1190" yMax="1550">
      <contour>
        <pt x="990" y="-40" on="1"/>
        <pt x="990" y="1460" on="1"/>
        <pt x="1180" y="1550" on="1"/>
        <pt x="1190" y="1550" on="1"/>
        <pt x="1190" y="50" on="1"/>
        <pt x="1000" y="-40" on="1"/>
      </contour>
      <contour>
        <pt x="200" y="-40" on="1"/>
        <pt x="200" y="522" on="1"/>
        <pt x="50" y="522" on="1"/>
        <pt x="50" y="532" on="1"/>
        <pt x="107" y="652" on="1"/>
        <pt x="200" y="652" on="1"/>
        <pt x="200" y="1460" on="1"/>
        <pt x="390" y="1550" on="1"/>
        <pt x="400" y="1550" on="1"/>
        <pt x="400" y="652" on="1"/>
        <pt x="870" y="652" on="1"/>
        <pt x="870" y="642" on="1"/>
        <pt x="813" y="522" on="1"/>
        <pt x="400" y="522" on="1"/>
        <pt x="400" y="50" on="1"/>
        <pt x="210" y="-40" on="1"/>
      </contour>
    </TTGlyph>
    <TTGlyph name="Hbar" xMin="50" yMin="-40" xMax="1340" yMax="1550">
      <contour>
        <pt x="200" y="-40" on="1"/>
        <pt x="200" y="522" on="1"/>
        <pt x="50" y="522" on="1"/>
        <pt x="50" y="532" on="1"/>
        <pt x="107" y="652" on="1"/>
        <pt x="200" y="652" on="1"/>
        <pt x="200" y="1240" on="1"/>
        <pt x="50" y="1240" on="1"/>
        <pt x="50" y="1250" on="1"/>
        <pt x="107" y="1370" on="1"/>
        <pt x="200" y="1370" on="1"/>
        <pt x="200" y="1460" on="1"/>
        <pt x="390" y="1550" on="1"/>
        <pt x="400" y="1550" on="1"/>
        <pt x="400" y="1370" on="1"/>
        <pt x="990" y="1370" on="1"/>
        <pt x="990" y="1460" on="1"/>
        <pt x="1180" y="1550" on="1"/>
        <pt x="1190" y="1550" on="1"/>
        <pt x="1190" y="1370" on="1"/>
        <pt x="1340" y="1370" on="1"/>
        <pt x="1340" y="1360" on="1"/>
        <pt x="1283" y="1240" on="1"/>
        <pt x="1190" y="1240" on="1"/>
        <pt x="1190" y="50" on="1"/>
        <pt x="1000" y="-40" on="1"/>
        <pt x="990" y="-40" on="1"/>
        <pt x="990" y="1240" on="1"/>
        <pt x="400" y="1240" on="1"/>
        <pt x="400" y="652" on="1"/>
        <pt x="870" y="652" on="1"/>
        <pt x="870" y="642" on="1"/>
        <pt x="813" y="522" on="1"/>
        <pt x="400" y="522" on="1"/>
        <pt x="400" y="50" on="1"/>
        <pt x="210" y="-40" on="1"/>
      </contour>
    </TTGlyph>
    <TTGlyph name="Hcircumflex" xMin="50" yMin="-40" xMax="1190" yMax="1966">
      <contour>
        <pt x="990" y="-40" on="1"/>
        <pt x="990" y="1460" on="1"/>
        <pt x="1180" y="1550" on="1"/>
        <pt x="1190" y="1550" on="1"/>
        <pt x="1190" y="50" on="1"/>
        <pt x="1000" y="-40" on="1"/>
      </contour>
      <contour>
        <pt x="200" y="-40" on="1"/>
        <pt x="200" y="522" on="1"/>
        <pt x="50" y="522" on="1"/>
        <pt x="50" y="532" on="1"/>
        <pt x="107" y="652" on="1"/>
        <pt x="200" y="652" on="1"/>
        <pt x="200" y="1460" on="1"/>
        <pt x="390" y="1550" on="1"/>
        <pt x="400" y="1550" on="1"/>
        <pt x="400" y="652" on="1"/>
        <pt x="870" y="652" on="1"/>
        <pt x="870" y="642" on="1"/>
        <pt x="813" y="522" on="1"/>
        <pt x="400" y="522" on="1"/>
        <pt x="400" y="50" on="1"/>
        <pt x="210" y="-40" on="1"/>
      </contour>
      <contour>
        <pt x="806" y="1966" on="1"/>
        <pt x="1031" y="1648" on="1"/>
        <pt x="858" y="1566" on="1"/>
        <pt x="848" y="1566" on="1"/>
        <pt x="707" y="1794" on="1"/>
        <pt x="566" y="1566" on="1"/>
        <pt x="556" y="1566" on="1"/>
        <pt x="453" y="1615" on="1"/>
        <pt x="623" y="1884" on="1"/>
        <pt x="796" y="1966" on="1"/>
      </contour>
    </TTGlyph>
    <TTGlyph name="I" xMin="200" yMin="-40" xMax="400" yMax="1550">
      <contour>
        <pt x="200" y="-40" on="1"/>
        <pt x="200" y="1460" on="1"/>
        <pt x="390" y="1550" on="1"/>
        <pt x="400" y="1550" on="1"/>
        <pt x="400" y="50" on="1"/>
        <pt x="210" y="-40" on="1"/>
      </contour>
    </TTGlyph>
    <TTGlyph name="IJ" xMin="200" yMin="-40" xMax="1493" yMax="1550">
      <contour>
        <pt x="988" y="-40" on="1"/>
        <pt x="760" y="-40" on="0"/>
        <pt x="618" y="105" on="1"/>
        <pt x="483" y="243" on="0"/>
        <pt x="483" y="460" on="1"/>
        <pt x="673" y="550" on="1"/>
        <pt x="683" y="550" on="1"/>
        <pt x="683" y="460" on="1"/>
        <pt x="683" y="326" on="0"/>
        <pt x="755" y="243" on="1"/>
        <pt x="844" y="140" on="0"/>
        <pt x="988" y="140" on="1"/>
        <pt x="1133" y="140" on="0"/>
        <pt x="1221" y="243" on="1"/>
        <pt x="1293" y="326" on="0"/>
        <pt x="1293" y="460" on="1"/>
        <pt x="1293" y="1328" on="1"/>
        <pt x="820" y="1328" on="1"/>
        <pt x="820" y="1338" on="1"/>
        <pt x="901" y="1510" on="1"/>
        <pt x="1493" y="1510" on="1"/>
        <pt x="1493" y="350" on="1"/>
      </contour>
      <contour>
        <pt x="200" y="-40" on="1"/>
        <pt x="200" y="1460" on="1"/>
        <pt x="390" y="1550" on="1"/>
        <pt x="400" y="1550" on="1"/>
        <pt x="400" y="50" on="1"/>
        <pt x="210" y="-40" on="1"/>
      </contour>
    </TTGlyph>
    <TTGlyph name="Iacute" xMin="185" yMin="-40" xMax="533" yMax="1966">
      <contour>
        <pt x="347" y="1966" on="1"/>
        <pt x="357" y="1966" on="1"/>
        <pt x="533" y="1882" on="1"/>
        <pt x="312" y="1566" on="1"/>
        <pt x="302" y="1566" on="1"/>
        <pt x="185" y="1621" on="1"/>
      </contour>
      <contour>
        <pt x="200" y="-40" on="1"/>
        <pt x="200" y="1460" on="1"/>
        <pt x="390" y="1550" on="1"/>
        <pt x="400" y="1550" on="1"/>
        <pt x="400" y="50" on="1"/>
        <pt x="210" y="-40" on="1"/>
      </contour>
    </TTGlyph>
    <TTGlyph name="Ibreve" xMin="2" yMin="-40" xMax="598" yMax="1902">
      <contour>
        <pt x="2" y="1785" on="1"/>
        <pt x="133" y="1902" on="1"/>
        <pt x="143" y="1902" on="1"/>
        <pt x="227" y="1796" on="0"/>
        <pt x="329" y="1796" on="1"/>
        <pt x="432" y="1796" on="0"/>
        <pt x="539" y="1897" on="1"/>
        <pt x="549" y="1897" on="1"/>
        <pt x="598" y="1853" on="1"/>
        <pt x="347" y="1638" on="1"/>
        <pt x="158" y="1638" on="0"/>
      </contour>
      <contour>
        <pt x="200" y="-40" on="1"/>
        <pt x="200" y="1460" on="1"/>
        <pt x="390" y="1550" on="1"/>
        <pt x="400" y="1550" on="1"/>
        <pt x="400" y="50" on="1"/>
        <pt x="210" y="-40" on="1"/>
      </contour>
    </TTGlyph>
    <TTGlyph name="Icircumflex" xMin="11" yMin="-40" xMax="589" yMax="1966">
      <contour>
        <pt x="364" y="1966" on="1"/>
        <pt x="589" y="1648" on="1"/>
        <pt x="416" y="1566" on="1"/>
        <pt x="406" y="1566" on="1"/>
        <pt x="265" y="1794" on="1"/>
        <pt x="124" y="1566" on="1"/>
        <pt x="114" y="1566" on="1"/>
        <pt x="11" y="1615" on="1"/>
        <pt x="181" y="1884" on="1"/>
        <pt x="354" y="1966" on="1"/>
      </contour>
      <contour>
        <pt x="200" y="-40" on="1"/>
        <pt x="200" y="1460" on="1"/>
        <pt x="390" y="1550" on="1"/>
        <pt x="400" y="1550" on="1"/>
        <pt x="400" y="50" on="1"/>
        <pt x="210" y="-40" on="1"/>
      </contour>
    </TTGlyph>
    <TTGlyph name="Idieresis" xMin="64" yMin="-40" xMax="537" yMax="1966">
      <contour>
        <pt x="527" y="1966" on="1"/>
        <pt x="537" y="1966" on="1"/>
        <pt x="537" y="1738" on="1"/>
        <pt x="347" y="1648" on="1"/>
        <pt x="337" y="1648" on="1"/>
        <pt x="337" y="1876" on="1"/>
      </contour>
      <contour>
        <pt x="254" y="1966" on="1"/>
        <pt x="264" y="1966" on="1"/>
        <pt x="264" y="1738" on="1"/>
        <pt x="74" y="1648" on="1"/>
        <pt x="64" y="1648" on="1"/>
        <pt x="64" y="1876" on="1"/>
      </contour>
      <contour>
        <pt x="200" y="-40" on="1"/>
        <pt x="200" y="1460" on="1"/>
        <pt x="390" y="1550" on="1"/>
        <pt x="400" y="1550" on="1"/>
        <pt x="400" y="50" on="1"/>
        <pt x="210" y="-40" on="1"/>
      </contour>
    </TTGlyph>
    <TTGlyph name="Idotaccent" xMin="200" yMin="-40" xMax="400" yMax="1966">
      <contour>
        <pt x="200" y="-40" on="1"/>
        <pt x="200" y="1460" on="1"/>
        <pt x="390" y="1550" on="1"/>
        <pt x="400" y="1550" on="1"/>
        <pt x="400" y="50" on="1"/>
        <pt x="210" y="-40" on="1"/>
      </contour>
      <contour>
        <pt x="400" y="1966" on="1"/>
        <pt x="400" y="1738" on="1"/>
        <pt x="210" y="1648" on="1"/>
        <pt x="200" y="1648" on="1"/>
        <pt x="200" y="1876" on="1"/>
        <pt x="390" y="1966" on="1"/>
      </contour>
    </TTGlyph>
    <TTGlyph name="Igrave" xMin="65" yMin="-40" xMax="413" yMax="1966">
      <contour>
        <pt x="241" y="1966" on="1"/>
        <pt x="251" y="1966" on="1"/>
        <pt x="413" y="1621" on="1"/>
        <pt x="296" y="1566" on="1"/>
        <pt x="286" y="1566" on="1"/>
        <pt x="65" y="1882" on="1"/>
      </contour>
      <contour>
        <pt x="200" y="-40" on="1"/>
        <pt x="200" y="1460" on="1"/>
        <pt x="390" y="1550" on="1"/>
        <pt x="400" y="1550" on="1"/>
        <pt x="400" y="50" on="1"/>
        <pt x="210" y="-40" on="1"/>
      </contour>
    </TTGlyph>
    <TTGlyph name="Imacron" xMin="30" yMin="-40" xMax="569" yMax="1820">
      <contour>
        <pt x="200" y="-40" on="1"/>
        <pt x="200" y="1460" on="1"/>
        <pt x="390" y="1550" on="1"/>
        <pt x="400" y="1550" on="1"/>
        <pt x="400" y="50" on="1"/>
        <pt x="210" y="-40" on="1"/>
      </contour>
      <contour>
        <pt x="30" y="1638" on="1"/>
        <pt x="30" y="1648" on="1"/>
        <pt x="111" y="1820" on="1"/>
        <pt x="569" y="1820" on="1"/>
        <pt x="569" y="1810" on="1"/>
        <pt x="488" y="1638" on="1"/>
      </contour>
    </TTGlyph>
    <TTGlyph name="Iogonek" xMin="99" yMin="-450" xMax="400" yMax="1550">
      <contour>
        <pt x="200" y="-40" on="1"/>
        <pt x="200" y="1460" on="1"/>
        <pt x="390" y="1550" on="1"/>
        <pt x="400" y="1550" on="1"/>
        <pt x="400" y="50" on="1"/>
        <pt x="350" y="26" on="1"/>
        <pt x="287" y="-80" on="0"/>
        <pt x="287" y="-178" on="1"/>
        <pt x="287" y="-290" on="0"/>
        <pt x="395" y="-360" on="1"/>
        <pt x="205" y="-450" on="1"/>
        <pt x="195" y="-450" on="1"/>
        <pt x="112" y="-348" on="0"/>
        <pt x="99" y="-159" on="1"/>
      </contour>
    </TTGlyph>
    <TTGlyph name="Itilde" xMin="5" yMin="-40" xMax="595" yMax="1895">
      <contour>
        <pt x="83" y="1638" on="1"/>
        <pt x="5" y="1687" on="1"/>
        <pt x="210" y="1895" on="1"/>
        <pt x="274" y="1895" on="0"/>
        <pt x="305" y="1856" on="1"/>
        <pt x="352" y="1797" on="0"/>
        <pt x="404" y="1797" on="1"/>
        <pt x="465" y="1797" on="0"/>
        <pt x="507" y="1895" on="1"/>
        <pt x="517" y="1895" on="1"/>
        <pt x="595" y="1846" on="1"/>
        <pt x="390" y="1638" on="1"/>
        <pt x="326" y="1638" on="0"/>
        <pt x="295" y="1677" on="1"/>
        <pt x="248" y="1736" on="0"/>
        <pt x="196" y="1736" on="1"/>
        <pt x="135" y="1736" on="0"/>
        <pt x="93" y="1638" on="1"/>
      </contour>
      <contour>
        <pt x="200" y="-40" on="1"/>
        <pt x="200" y="1460" on="1"/>
        <pt x="390" y="1550" on="1"/>
        <pt x="400" y="1550" on="1"/>
        <pt x="400" y="50" on="1"/>
        <pt x="210" y="-40" on="1"/>
      </contour>
    </TTGlyph>
    <TTGlyph name="J" xMin="80" yMin="-40" xMax="1090" yMax="1510">
      <contour>
        <pt x="585" y="-40" on="1"/>
        <pt x="357" y="-40" on="0"/>
        <pt x="215" y="105" on="1"/>
        <pt x="80" y="243" on="0"/>
        <pt x="80" y="460" on="1"/>
        <pt x="270" y="550" on="1"/>
        <pt x="280" y="550" on="1"/>
        <pt x="280" y="460" on="1"/>
        <pt x="280" y="326" on="0"/>
        <pt x="352" y="243" on="1"/>
        <pt x="441" y="140" on="0"/>
        <pt x="585" y="140" on="1"/>
        <pt x="730" y="140" on="0"/>
        <pt x="818" y="243" on="1"/>
        <pt x="890" y="326" on="0"/>
        <pt x="890" y="460" on="1"/>
        <pt x="890" y="1328" on="1"/>
        <pt x="417" y="1328" on="1"/>
        <pt x="417" y="1338" on="1"/>
        <pt x="498" y="1510" on="1"/>
        <pt x="1090" y="1510" on="1"/>
        <pt x="1090" y="350" on="1"/>
      </contour>
    </TTGlyph>
    <TTGlyph name="Jcircumflex" xMin="80" yMin="-40" xMax="1090" yMax="1966">
      <contour>
        <pt x="585" y="-40" on="1"/>
        <pt x="357" y="-40" on="0"/>
        <pt x="215" y="105" on="1"/>
        <pt x="80" y="243" on="0"/>
        <pt x="80" y="460" on="1"/>
        <pt x="270" y="550" on="1"/>
        <pt x="280" y="550" on="1"/>
        <pt x="280" y="460" on="1"/>
        <pt x="280" y="326" on="0"/>
        <pt x="352" y="243" on="1"/>
        <pt x="441" y="140" on="0"/>
        <pt x="585" y="140" on="1"/>
        <pt x="730" y="140" on="0"/>
        <pt x="818" y="243" on="1"/>
        <pt x="890" y="326" on="0"/>
        <pt x="890" y="460" on="1"/>
        <pt x="890" y="1328" on="1"/>
        <pt x="417" y="1328" on="1"/>
        <pt x="417" y="1338" on="1"/>
        <pt x="498" y="1510" on="1"/>
        <pt x="1090" y="1510" on="1"/>
        <pt x="1090" y="350" on="1"/>
      </contour>
      <contour>
        <pt x="844" y="1966" on="1"/>
        <pt x="1069" y="1648" on="1"/>
        <pt x="896" y="1566" on="1"/>
        <pt x="886" y="1566" on="1"/>
        <pt x="745" y="1794" on="1"/>
        <pt x="604" y="1566" on="1"/>
        <pt x="594" y="1566" on="1"/>
        <pt x="491" y="1615" on="1"/>
        <pt x="661" y="1884" on="1"/>
        <pt x="834" y="1966" on="1"/>
      </contour>
    </TTGlyph>
    <TTGlyph name="K" xMin="200" yMin="-40" xMax="1214" yMax="1550">
      <contour>
        <pt x="200" y="-40" on="1"/>
        <pt x="200" y="1460" on="1"/>
        <pt x="390" y="1550" on="1"/>
        <pt x="400" y="1550" on="1"/>
        <pt x="400" y="355" on="1"/>
        <pt x="539" y="402" on="0"/>
        <pt x="663" y="481" on="1"/>
        <pt x="510" y="700" on="1"/>
        <pt x="686" y="784" on="1"/>
        <pt x="696" y="784" on="1"/>
        <pt x="822" y="603" on="1"/>
        <pt x="960" y="777" on="0"/>
        <pt x="960" y="1258" on="1"/>
        <pt x="960" y="1460" on="1"/>
        <pt x="1150" y="1550" on="1"/>
        <pt x="1160" y="1550" on="1"/>
        <pt x="1160" y="1262" on="1"/>
        <pt x="1160" y="766" on="0"/>
        <pt x="888" y="509" on="1"/>
        <pt x="1214" y="43" on="1"/>
        <pt x="1038" y="-40" on="1"/>
        <pt x="1028" y="-40" on="1"/>
        <pt x="729" y="387" on="1"/>
        <pt x="576" y="301" on="0"/>
        <pt x="400" y="255" on="1"/>
        <pt x="400" y="50" on="1"/>
        <pt x="210" y="-40" on="1"/>
      </contour>
    </TTGlyph>
    <TTGlyph name="Kcommaaccent" xMin="200" yMin="-450" xMax="1214" yMax="1550">
      <contour>
        <pt x="595" y="-450" on="1"/>
        <pt x="585" y="-450" on="1"/>
        <pt x="409" y="-366" on="1"/>
        <pt x="630" y="-50" on="1"/>
        <pt x="640" y="-50" on="1"/>
        <pt x="757" y="-105" on="1"/>
      </contour>
      <contour>
        <pt x="200" y="-40" on="1"/>
        <pt x="200" y="1460" on="1"/>
        <pt x="390" y="1550" on="1"/>
        <pt x="400" y="1550" on="1"/>
        <pt x="400" y="355" on="1"/>
        <pt x="539" y="402" on="0"/>
        <pt x="663" y="481" on="1"/>
        <pt x="510" y="700" on="1"/>
        <pt x="686" y="784" on="1"/>
        <pt x="696" y="784" on="1"/>
        <pt x="822" y="603" on="1"/>
        <pt x="960" y="777" on="0"/>
        <pt x="960" y="1258" on="1"/>
        <pt x="960" y="1460" on="1"/>
        <pt x="1150" y="1550" on="1"/>
        <pt x="1160" y="1550" on="1"/>
        <pt x="1160" y="1262" on="1"/>
        <pt x="1160" y="766" on="0"/>
        <pt x="888" y="509" on="1"/>
        <pt x="1214" y="43" on="1"/>
        <pt x="1038" y="-40" on="1"/>
        <pt x="1028" y="-40" on="1"/>
        <pt x="729" y="387" on="1"/>
        <pt x="576" y="301" on="0"/>
        <pt x="400" y="255" on="1"/>
        <pt x="400" y="50" on="1"/>
        <pt x="210" y="-40" on="1"/>
      </contour>
    </TTGlyph>
    <TTGlyph name="L" xMin="50" yMin="0" xMax="1083" yMax="1550">
      <contour>
        <pt x="50" y="0" on="1"/>
        <pt x="50" y="10" on="1"/>
        <pt x="107" y="130" on="1"/>
        <pt x="200" y="130" on="1"/>
        <pt x="200" y="1460" on="1"/>
        <pt x="390" y="1550" on="1"/>
        <pt x="400" y="1550" on="1"/>
        <pt x="400" y="130" on="1"/>
        <pt x="1083" y="130" on="1"/>
        <pt x="1083" y="120" on="1"/>
        <pt x="1026" y="0" on="1"/>
      </contour>
    </TTGlyph>
    <TTGlyph name="Lacute" xMin="50" yMin="0" xMax="1083" yMax="1966">
      <contour>
        <pt x="50" y="0" on="1"/>
        <pt x="50" y="10" on="1"/>
        <pt x="107" y="130" on="1"/>
        <pt x="200" y="130" on="1"/>
        <pt x="200" y="1460" on="1"/>
        <pt x="390" y="1550" on="1"/>
        <pt x="400" y="1550" on="1"/>
        <pt x="400" y="130" on="1"/>
        <pt x="1083" y="130" on="1"/>
        <pt x="1083" y="120" on="1"/>
        <pt x="1026" y="0" on="1"/>
      </contour>
      <contour>
        <pt x="347" y="1966" on="1"/>
        <pt x="357" y="1966" on="1"/>
        <pt x="533" y="1882" on="1"/>
        <pt x="312" y="1566" on="1"/>
        <pt x="302" y="1566" on="1"/>
        <pt x="185" y="1621" on="1"/>
      </contour>
    </TTGlyph>
    <TTGlyph name="Lcaron" xMin="50" yMin="0" xMax="1083" yMax="1556">
      <contour>
        <pt x="50" y="0" on="1"/>
        <pt x="50" y="10" on="1"/>
        <pt x="107" y="130" on="1"/>
        <pt x="200" y="130" on="1"/>
        <pt x="200" y="1460" on="1"/>
        <pt x="390" y="1550" on="1"/>
        <pt x="400" y="1550" on="1"/>
        <pt x="400" y="130" on="1"/>
        <pt x="1083" y="130" on="1"/>
        <pt x="1083" y="120" on="1"/>
        <pt x="1026" y="0" on="1"/>
      </contour>
      <contour>
        <pt x="663" y="1556" on="1"/>
        <pt x="673" y="1556" on="1"/>
        <pt x="849" y="1472" on="1"/>
        <pt x="628" y="1156" on="1"/>
        <pt x="618" y="1156" on="1"/>
        <pt x="501" y="1211" on="1"/>
      </contour>
    </TTGlyph>
    <TTGlyph name="Lcommaaccent" xMin="50" yMin="-450" xMax="1083" yMax="1550">
      <contour>
        <pt x="50" y="0" on="1"/>
        <pt x="50" y="10" on="1"/>
        <pt x="107" y="130" on="1"/>
        <pt x="200" y="130" on="1"/>
        <pt x="200" y="1460" on="1"/>
        <pt x="390" y="1550" on="1"/>
        <pt x="400" y="1550" on="1"/>
        <pt x="400" y="130" on="1"/>
        <pt x="1083" y="130" on="1"/>
        <pt x="1083" y="120" on="1"/>
        <pt x="1026" y="0" on="1"/>
      </contour>
      <contour>
        <pt x="520" y="-450" on="1"/>
        <pt x="510" y="-450" on="1"/>
        <pt x="334" y="-366" on="1"/>
        <pt x="555" y="-50" on="1"/>
        <pt x="565" y="-50" on="1"/>
        <pt x="682" y="-105" on="1"/>
      </contour>
    </TTGlyph>
    <TTGlyph name="Ldot" xMin="50" yMin="0" xMax="1083" yMax="1550">
      <contour>
        <pt x="50" y="0" on="1"/>
        <pt x="50" y="10" on="1"/>
        <pt x="107" y="130" on="1"/>
        <pt x="200" y="130" on="1"/>
        <pt x="200" y="1460" on="1"/>
        <pt x="390" y="1550" on="1"/>
        <pt x="400" y="1550" on="1"/>
        <pt x="400" y="130" on="1"/>
        <pt x="1083" y="130" on="1"/>
        <pt x="1083" y="120" on="1"/>
        <pt x="1026" y="0" on="1"/>
      </contour>
      <contour>
        <pt x="731" y="1140" on="1"/>
        <pt x="731" y="912" on="1"/>
        <pt x="541" y="822" on="1"/>
        <pt x="531" y="822" on="1"/>
        <pt x="531" y="1050" on="1"/>
        <pt x="721" y="1140" on="1"/>
      </contour>
    </TTGlyph>
    <TTGlyph name="Lslash" xMin="50" yMin="0" xMax="1083" yMax="1550">
      <contour>
        <pt x="50" y="0" on="1"/>
        <pt x="50" y="10" on="1"/>
        <pt x="107" y="130" on="1"/>
        <pt x="200" y="130" on="1"/>
        <pt x="200" y="484" on="1"/>
        <pt x="127" y="575" on="1"/>
        <pt x="200" y="637" on="1"/>
        <pt x="200" y="1460" on="1"/>
        <pt x="390" y="1550" on="1"/>
        <pt x="400" y="1550" on="1"/>
        <pt x="400" y="808" on="1"/>
        <pt x="790" y="1140" on="1"/>
        <pt x="800" y="1140" on="1"/>
        <pt x="873" y="1049" on="1"/>
        <pt x="400" y="652" on="1"/>
        <pt x="400" y="130" on="1"/>
        <pt x="1083" y="130" on="1"/>
        <pt x="1083" y="120" on="1"/>
        <pt x="1026" y="0" on="1"/>
      </contour>
    </TTGlyph>
    <TTGlyph name="M" xMin="200" yMin="-40" xMax="2020" yMax="1550">
      <contour>
        <pt x="200" y="-40" on="1"/>
        <pt x="200" y="1160" on="1"/>
        <pt x="705" y="1550" on="1"/>
        <pt x="935" y="1550" on="0"/>
        <pt x="1075" y="1405" on="1"/>
        <pt x="1130" y="1348" on="0"/>
        <pt x="1163" y="1278" on="1"/>
        <pt x="1515" y="1550" on="1"/>
        <pt x="1743" y="1550" on="0"/>
        <pt x="1885" y="1405" on="1"/>
        <pt x="2020" y="1267" on="0"/>
        <pt x="2020" y="1050" on="1"/>
        <pt x="2020" y="52" on="1"/>
        <pt x="1830" y="-40" on="1"/>
        <pt x="1820" y="-40" on="1"/>
        <pt x="1820" y="1050" on="1"/>
        <pt x="1820" y="1184" on="0"/>
        <pt x="1748" y="1267" on="1"/>
        <pt x="1659" y="1370" on="0"/>
        <pt x="1515" y="1370" on="1"/>
        <pt x="1368" y="1370" on="0"/>
        <pt x="1282" y="1267" on="1"/>
        <pt x="1210" y="1181" on="0"/>
        <pt x="1210" y="1050" on="1"/>
        <pt x="1210" y="52" on="1"/>
        <pt x="1210" y="50" on="1"/>
        <pt x="1020" y="-40" on="1"/>
        <pt x="1010" y="-40" on="1"/>
        <pt x="1010" y="1050" on="1"/>
        <pt x="1010" y="1184" on="0"/>
        <pt x="938" y="1267" on="1"/>
        <pt x="849" y="1370" on="0"/>
        <pt x="705" y="1370" on="1"/>
        <pt x="558" y="1370" on="0"/>
        <pt x="472" y="1267" on="1"/>
        <pt x="400" y="1181" on="0"/>
        <pt x="400" y="1050" on="1"/>
        <pt x="400" y="50" on="1"/>
        <pt x="210" y="-40" on="1"/>
      </contour>
    </TTGlyph>
    <TTGlyph name="N" xMin="200" yMin="-40" xMax="1210" yMax="1550">
      <contour>
        <pt x="200" y="-40" on="1"/>
        <pt x="200" y="1160" on="1"/>
        <pt x="705" y="1550" on="1"/>
        <pt x="933" y="1550" on="0"/>
        <pt x="1075" y="1405" on="1"/>
        <pt x="1210" y="1267" on="0"/>
        <pt x="1210" y="1050" on="1"/>
        <pt x="1210" y="52" on="1"/>
        <pt x="1020" y="-40" on="1"/>
        <pt x="1010" y="-40" on="1"/>
        <pt x="1010" y="1050" on="1"/>
        <pt x="1010" y="1184" on="0"/>
        <pt x="938" y="1267" on="1"/>
        <pt x="849" y="1370" on="0"/>
        <pt x="705" y="1370" on="1"/>
        <pt x="558" y="1370" on="0"/>
        <pt x="472" y="1267" on="1"/>
        <pt x="400" y="1181" on="0"/>
        <pt x="400" y="1050" on="1"/>
        <pt x="400" y="50" on="1"/>
        <pt x="210" y="-40" on="1"/>
      </contour>
    </TTGlyph>
    <TTGlyph name="Nacute" xMin="200" yMin="-40" xMax="1210" yMax="1966">
      <contour>
        <pt x="200" y="-40" on="1"/>
        <pt x="200" y="1160" on="1"/>
        <pt x="705" y="1550" on="1"/>
        <pt x="933" y="1550" on="0"/>
        <pt x="1075" y="1405" on="1"/>
        <pt x="1210" y="1267" on="0"/>
        <pt x="1210" y="1050" on="1"/>
        <pt x="1210" y="52" on="1"/>
        <pt x="1020" y="-40" on="1"/>
        <pt x="1010" y="-40" on="1"/>
        <pt x="1010" y="1050" on="1"/>
        <pt x="1010" y="1184" on="0"/>
        <pt x="938" y="1267" on="1"/>
        <pt x="849" y="1370" on="0"/>
        <pt x="705" y="1370" on="1"/>
        <pt x="558" y="1370" on="0"/>
        <pt x="472" y="1267" on="1"/>
        <pt x="400" y="1181" on="0"/>
        <pt x="400" y="1050" on="1"/>
        <pt x="400" y="50" on="1"/>
        <pt x="210" y="-40" on="1"/>
      </contour>
      <contour>
        <pt x="796" y="1966" on="1"/>
        <pt x="806" y="1966" on="1"/>
        <pt x="982" y="1882" on="1"/>
        <pt x="761" y="1566" on="1"/>
        <pt x="751" y="1566" on="1"/>
        <pt x="634" y="1621" on="1"/>
      </contour>
    </TTGlyph>
    <TTGlyph name="Ncaron" xMin="200" yMin="-40" xMax="1210" yMax="1966">
      <contour>
        <pt x="200" y="-40" on="1"/>
        <pt x="200" y="1160" on="1"/>
        <pt x="705" y="1550" on="1"/>
        <pt x="933" y="1550" on="0"/>
        <pt x="1075" y="1405" on="1"/>
        <pt x="1210" y="1267" on="0"/>
        <pt x="1210" y="1050" on="1"/>
        <pt x="1210" y="52" on="1"/>
        <pt x="1020" y="-40" on="1"/>
        <pt x="1010" y="-40" on="1"/>
        <pt x="1010" y="1050" on="1"/>
        <pt x="1010" y="1184" on="0"/>
        <pt x="938" y="1267" on="1"/>
        <pt x="849" y="1370" on="0"/>
        <pt x="705" y="1370" on="1"/>
        <pt x="558" y="1370" on="0"/>
        <pt x="472" y="1267" on="1"/>
        <pt x="400" y="1181" on="0"/>
        <pt x="400" y="1050" on="1"/>
        <pt x="400" y="50" on="1"/>
        <pt x="210" y="-40" on="1"/>
      </contour>
      <contour>
        <pt x="577" y="1966" on="1"/>
        <pt x="587" y="1966" on="1"/>
        <pt x="728" y="1738" on="1"/>
        <pt x="869" y="1966" on="1"/>
        <pt x="879" y="1966" on="1"/>
        <pt x="982" y="1917" on="1"/>
        <pt x="812" y="1648" on="1"/>
        <pt x="639" y="1566" on="1"/>
        <pt x="629" y="1566" on="1"/>
        <pt x="404" y="1884" on="1"/>
      </contour>
    </TTGlyph>
    <TTGlyph name="Ncommaaccent" xMin="200" yMin="-450" xMax="1210" yMax="1550">
      <contour>
        <pt x="200" y="-40" on="1"/>
        <pt x="200" y="1160" on="1"/>
        <pt x="705" y="1550" on="1"/>
        <pt x="933" y="1550" on="0"/>
        <pt x="1075" y="1405" on="1"/>
        <pt x="1210" y="1267" on="0"/>
        <pt x="1210" y="1050" on="1"/>
        <pt x="1210" y="52" on="1"/>
        <pt x="1020" y="-40" on="1"/>
        <pt x="1010" y="-40" on="1"/>
        <pt x="1010" y="1050" on="1"/>
        <pt x="1010" y="1184" on="0"/>
        <pt x="938" y="1267" on="1"/>
        <pt x="849" y="1370" on="0"/>
        <pt x="705" y="1370" on="1"/>
        <pt x="558" y="1370" on="0"/>
        <pt x="472" y="1267" on="1"/>
        <pt x="400" y="1181" on="0"/>
        <pt x="400" y="1050" on="1"/>
        <pt x="400" y="50" on="1"/>
        <pt x="210" y="-40" on="1"/>
      </contour>
      <contour>
        <pt x="595" y="-450" on="1"/>
        <pt x="585" y="-450" on="1"/>
        <pt x="409" y="-366" on="1"/>
        <pt x="630" y="-50" on="1"/>
        <pt x="640" y="-50" on="1"/>
        <pt x="757" y="-105" on="1"/>
      </contour>
    </TTGlyph>
    <TTGlyph name="Ntilde" xMin="200" yMin="-40" xMax="1210" yMax="1896">
      <contour>
        <pt x="200" y="-40" on="1"/>
        <pt x="200" y="1160" on="1"/>
        <pt x="705" y="1550" on="1"/>
        <pt x="933" y="1550" on="0"/>
        <pt x="1075" y="1405" on="1"/>
        <pt x="1210" y="1267" on="0"/>
        <pt x="1210" y="1050" on="1"/>
        <pt x="1210" y="52" on="1"/>
        <pt x="1020" y="-40" on="1"/>
        <pt x="1010" y="-40" on="1"/>
        <pt x="1010" y="1050" on="1"/>
        <pt x="1010" y="1184" on="0"/>
        <pt x="938" y="1267" on="1"/>
        <pt x="849" y="1370" on="0"/>
        <pt x="705" y="1370" on="1"/>
        <pt x="558" y="1370" on="0"/>
        <pt x="472" y="1267" on="1"/>
        <pt x="400" y="1181" on="0"/>
        <pt x="400" y="1050" on="1"/>
        <pt x="400" y="50" on="1"/>
        <pt x="210" y="-40" on="1"/>
      </contour>
      <contour>
        <pt x="510" y="1639" on="1"/>
        <pt x="425" y="1688" on="1"/>
        <pt x="637" y="1896" on="1"/>
        <pt x="701" y="1896" on="0"/>
        <pt x="732" y="1857" on="1"/>
        <pt x="779" y="1798" on="0"/>
        <pt x="831" y="1798" on="1"/>
        <pt x="892" y="1798" on="0"/>
        <pt x="934" y="1896" on="1"/>
        <pt x="944" y="1896" on="1"/>
        <pt x="1029" y="1847" on="1"/>
        <pt x="817" y="1639" on="1"/>
        <pt x="753" y="1639" on="0"/>
        <pt x="722" y="1678" on="1"/>
        <pt x="675" y="1737" on="0"/>
        <pt x="623" y="1737" on="1"/>
        <pt x="562" y="1737" on="0"/>
        <pt x="520" y="1639" on="1"/>
      </contour>
    </TTGlyph>
    <TTGlyph name="O" xMin="200" yMin="-40" xMax="1210" yMax="1550">
      <contour>
        <pt x="705" y="140" on="1"/>
        <pt x="848" y="140" on="0"/>
        <pt x="938" y="243" on="1"/>
        <pt x="1010" y="326" on="0"/>
        <pt x="1010" y="460" on="1"/>
        <pt x="1010" y="1050" on="1"/>
        <pt x="1010" y="1184" on="0"/>
        <pt x="938" y="1267" on="1"/>
        <pt x="849" y="1370" on="0"/>
        <pt x="705" y="1370" on="1"/>
        <pt x="560" y="1370" on="0"/>
        <pt x="472" y="1267" on="1"/>
        <pt x="400" y="1184" on="0"/>
        <pt x="400" y="1050" on="1"/>
        <pt x="400" y="460" on="1"/>
        <pt x="400" y="328" on="0"/>
        <pt x="472" y="243" on="1"/>
        <pt x="559" y="140" on="0"/>
      </contour>
      <contour>
        <pt x="705" y="-40" on="1"/>
        <pt x="477" y="-40" on="0"/>
        <pt x="335" y="105" on="1"/>
        <pt x="200" y="243" on="0"/>
        <pt x="200" y="460" on="1"/>
        <pt x="200" y="1160" on="1"/>
        <pt x="705" y="1550" on="1"/>
        <pt x="933" y="1550" on="0"/>
        <pt x="1075" y="1405" on="1"/>
        <pt x="1210" y="1267" on="0"/>
        <pt x="1210" y="1050" on="1"/>
        <pt x="1210" y="350" on="1"/>
      </contour>
    </TTGlyph>
    <TTGlyph name="OE" xMin="200" yMin="-40" xMax="1893" yMax="1550">
      <contour>
        <pt x="705" y="-40" on="1"/>
        <pt x="477" y="-40" on="0"/>
        <pt x="335" y="105" on="1"/>
        <pt x="200" y="243" on="0"/>
        <pt x="200" y="460" on="1"/>
        <pt x="200" y="1160" on="1"/>
        <pt x="705" y="1550" on="1"/>
        <pt x="884" y="1550" on="0"/>
        <pt x="1011" y="1460" on="1"/>
        <pt x="1116" y="1510" on="1"/>
        <pt x="1750" y="1510" on="1"/>
        <pt x="1750" y="1500" on="1"/>
        <pt x="1693" y="1380" on="1"/>
        <pt x="1210" y="1380" on="1"/>
        <pt x="1210" y="652" on="1"/>
        <pt x="1680" y="652" on="1"/>
        <pt x="1680" y="642" on="1"/>
        <pt x="1623" y="522" on="1"/>
        <pt x="1210" y="522" on="1"/>
        <pt x="1210" y="130" on="1"/>
        <pt x="1893" y="130" on="1"/>
        <pt x="1893" y="120" on="1"/>
        <pt x="1836" y="0" on="1"/>
        <pt x="1010" y="0" on="1"/>
        <pt x="1010" y="196" on="1"/>
      </contour>
      <contour>
        <pt x="705" y="140" on="1"/>
        <pt x="848" y="140" on="0"/>
        <pt x="938" y="243" on="1"/>
        <pt x="1010" y="326" on="0"/>
        <pt x="1010" y="460" on="1"/>
        <pt x="1010" y="1050" on="1"/>
        <pt x="1010" y="1184" on="0"/>
        <pt x="938" y="1267" on="1"/>
        <pt x="849" y="1370" on="0"/>
        <pt x="561" y="1370" on="0"/>
        <pt x="472" y="1267" on="1"/>
        <pt x="400" y="1183" on="0"/>
        <pt x="400" y="1050" on="1"/>
        <pt x="400" y="460" on="1"/>
        <pt x="400" y="328" on="0"/>
        <pt x="472" y="243" on="1"/>
        <pt x="559" y="140" on="0"/>
      </contour>
    </TTGlyph>
    <TTGlyph name="Oacute" xMin="200" yMin="-40" xMax="1210" yMax="1966">
      <contour>
        <pt x="705" y="140" on="1"/>
        <pt x="848" y="140" on="0"/>
        <pt x="938" y="243" on="1"/>
        <pt x="1010" y="326" on="0"/>
        <pt x="1010" y="460" on="1"/>
        <pt x="1010" y="1050" on="1"/>
        <pt x="1010" y="1184" on="0"/>
        <pt x="938" y="1267" on="1"/>
        <pt x="849" y="1370" on="0"/>
        <pt x="705" y="1370" on="1"/>
        <pt x="560" y="1370" on="0"/>
        <pt x="472" y="1267" on="1"/>
        <pt x="400" y="1184" on="0"/>
        <pt x="400" y="1050" on="1"/>
        <pt x="400" y="460" on="1"/>
        <pt x="400" y="328" on="0"/>
        <pt x="472" y="243" on="1"/>
        <pt x="559" y="140" on="0"/>
      </contour>
      <contour>
        <pt x="705" y="-40" on="1"/>
        <pt x="477" y="-40" on="0"/>
        <pt x="335" y="105" on="1"/>
        <pt x="200" y="243" on="0"/>
        <pt x="200" y="460" on="1"/>
        <pt x="200" y="1160" on="1"/>
        <pt x="705" y="1550" on="1"/>
        <pt x="933" y="1550" on="0"/>
        <pt x="1075" y="1405" on="1"/>
        <pt x="1210" y="1267" on="0"/>
        <pt x="1210" y="1050" on="1"/>
        <pt x="1210" y="350" on="1"/>
      </contour>
      <contour>
        <pt x="796" y="1966" on="1"/>
        <pt x="806" y="1966" on="1"/>
        <pt x="982" y="1882" on="1"/>
        <pt x="761" y="1566" on="1"/>
        <pt x="751" y="1566" on="1"/>
        <pt x="634" y="1621" on="1"/>
      </contour>
    </TTGlyph>
    <TTGlyph name="Obreve" xMin="200" yMin="-40" xMax="1210" yMax="1902">
      <contour>
        <pt x="705" y="140" on="1"/>
        <pt x="848" y="140" on="0"/>
        <pt x="938" y="243" on="1"/>
        <pt x="1010" y="326" on="0"/>
        <pt x="1010" y="460" on="1"/>
        <pt x="1010" y="1050" on="1"/>
        <pt x="1010" y="1184" on="0"/>
        <pt x="938" y="1267" on="1"/>
        <pt x="849" y="1370" on="0"/>
        <pt x="705" y="1370" on="1"/>
        <pt x="560" y="1370" on="0"/>
        <pt x="472" y="1267" on="1"/>
        <pt x="400" y="1184" on="0"/>
        <pt x="400" y="1050" on="1"/>
        <pt x="400" y="460" on="1"/>
        <pt x="400" y="328" on="0"/>
        <pt x="472" y="243" on="1"/>
        <pt x="559" y="140" on="0"/>
      </contour>
      <contour>
        <pt x="705" y="-40" on="1"/>
        <pt x="477" y="-40" on="0"/>
        <pt x="335" y="105" on="1"/>
        <pt x="200" y="243" on="0"/>
        <pt x="200" y="460" on="1"/>
        <pt x="200" y="1160" on="1"/>
        <pt x="705" y="1550" on="1"/>
        <pt x="933" y="1550" on="0"/>
        <pt x="1075" y="1405" on="1"/>
        <pt x="1210" y="1267" on="0"/>
        <pt x="1210" y="1050" on="1"/>
        <pt x="1210" y="350" on="1"/>
      </contour>
      <contour>
        <pt x="402" y="1785" on="1"/>
        <pt x="533" y="1902" on="1"/>
        <pt x="543" y="1902" on="1"/>
        <pt x="627" y="1796" on="0"/>
        <pt x="729" y="1796" on="1"/>
        <pt x="832" y="1796" on="0"/>
        <pt x="939" y="1897" on="1"/>
        <pt x="949" y="1897" on="1"/>
        <pt x="998" y="1853" on="1"/>
        <pt x="747" y="1638" on="1"/>
        <pt x="558" y="1638" on="0"/>
      </contour>
    </TTGlyph>
    <TTGlyph name="Ocircumflex" xMin="200" yMin="-40" xMax="1210" yMax="1966">
      <contour>
        <pt x="705" y="140" on="1"/>
        <pt x="848" y="140" on="0"/>
        <pt x="938" y="243" on="1"/>
        <pt x="1010" y="326" on="0"/>
        <pt x="1010" y="460" on="1"/>
        <pt x="1010" y="1050" on="1"/>
        <pt x="1010" y="1184" on="0"/>
        <pt x="938" y="1267" on="1"/>
        <pt x="849" y="1370" on="0"/>
        <pt x="705" y="1370" on="1"/>
        <pt x="560" y="1370" on="0"/>
        <pt x="472" y="1267" on="1"/>
        <pt x="400" y="1184" on="0"/>
        <pt x="400" y="1050" on="1"/>
        <pt x="400" y="460" on="1"/>
        <pt x="400" y="328" on="0"/>
        <pt x="472" y="243" on="1"/>
        <pt x="559" y="140" on="0"/>
      </contour>
      <contour>
        <pt x="705" y="-40" on="1"/>
        <pt x="477" y="-40" on="0"/>
        <pt x="335" y="105" on="1"/>
        <pt x="200" y="243" on="0"/>
        <pt x="200" y="460" on="1"/>
        <pt x="200" y="1160" on="1"/>
        <pt x="705" y="1550" on="1"/>
        <pt x="933" y="1550" on="0"/>
        <pt x="1075" y="1405" on="1"/>
        <pt x="1210" y="1267" on="0"/>
        <pt x="1210" y="1050" on="1"/>
        <pt x="1210" y="350" on="1"/>
      </contour>
      <contour>
        <pt x="806" y="1966" on="1"/>
        <pt x="1031" y="1648" on="1"/>
        <pt x="858" y="1566" on="1"/>
        <pt x="848" y="1566" on="1"/>
        <pt x="707" y="1794" on="1"/>
        <pt x="566" y="1566" on="1"/>
        <pt x="556" y="1566" on="1"/>
        <pt x="453" y="1615" on="1"/>
        <pt x="623" y="1884" on="1"/>
        <pt x="796" y="1966" on="1"/>
      </contour>
    </TTGlyph>
    <TTGlyph name="Odieresis" xMin="200" yMin="-40" xMax="1210" yMax="1966">
      <contour>
        <pt x="705" y="140" on="1"/>
        <pt x="848" y="140" on="0"/>
        <pt x="938" y="243" on="1"/>
        <pt x="1010" y="326" on="0"/>
        <pt x="1010" y="460" on="1"/>
        <pt x="1010" y="1050" on="1"/>
        <pt x="1010" y="1184" on="0"/>
        <pt x="938" y="1267" on="1"/>
        <pt x="849" y="1370" on="0"/>
        <pt x="705" y="1370" on="1"/>
        <pt x="560" y="1370" on="0"/>
        <pt x="472" y="1267" on="1"/>
        <pt x="400" y="1184" on="0"/>
        <pt x="400" y="1050" on="1"/>
        <pt x="400" y="460" on="1"/>
        <pt x="400" y="328" on="0"/>
        <pt x="472" y="243" on="1"/>
        <pt x="559" y="140" on="0"/>
      </contour>
      <contour>
        <pt x="705" y="-40" on="1"/>
        <pt x="477" y="-40" on="0"/>
        <pt x="335" y="105" on="1"/>
        <pt x="200" y="243" on="0"/>
        <pt x="200" y="460" on="1"/>
        <pt x="200" y="1160" on="1"/>
        <pt x="705" y="1550" on="1"/>
        <pt x="933" y="1550" on="0"/>
        <pt x="1075" y="1405" on="1"/>
        <pt x="1210" y="1267" on="0"/>
        <pt x="1210" y="1050" on="1"/>
        <pt x="1210" y="350" on="1"/>
      </contour>
      <contour>
        <pt x="934" y="1966" on="1"/>
        <pt x="944" y="1966" on="1"/>
        <pt x="944" y="1738" on="1"/>
        <pt x="754" y="1648" on="1"/>
        <pt x="744" y="1648" on="1"/>
        <pt x="744" y="1876" on="1"/>
      </contour>
      <contour>
        <pt x="661" y="1966" on="1"/>
        <pt x="671" y="1966" on="1"/>
        <pt x="671" y="1738" on="1"/>
        <pt x="481" y="1648" on="1"/>
        <pt x="471" y="1648" on="1"/>
        <pt x="471" y="1876" on="1"/>
      </contour>
    </TTGlyph>
    <TTGlyph name="Ograve" xMin="200" yMin="-40" xMax="1210" yMax="1966">
      <contour>
        <pt x="705" y="140" on="1"/>
        <pt x="848" y="140" on="0"/>
        <pt x="938" y="243" on="1"/>
        <pt x="1010" y="326" on="0"/>
        <pt x="1010" y="460" on="1"/>
        <pt x="1010" y="1050" on="1"/>
        <pt x="1010" y="1184" on="0"/>
        <pt x="938" y="1267" on="1"/>
        <pt x="849" y="1370" on="0"/>
        <pt x="705" y="1370" on="1"/>
        <pt x="560" y="1370" on="0"/>
        <pt x="472" y="1267" on="1"/>
        <pt x="400" y="1184" on="0"/>
        <pt x="400" y="1050" on="1"/>
        <pt x="400" y="460" on="1"/>
        <pt x="400" y="328" on="0"/>
        <pt x="472" y="243" on="1"/>
        <pt x="559" y="140" on="0"/>
      </contour>
      <contour>
        <pt x="705" y="-40" on="1"/>
        <pt x="477" y="-40" on="0"/>
        <pt x="335" y="105" on="1"/>
        <pt x="200" y="243" on="0"/>
        <pt x="200" y="460" on="1"/>
        <pt x="200" y="1160" on="1"/>
        <pt x="705" y="1550" on="1"/>
        <pt x="933" y="1550" on="0"/>
        <pt x="1075" y="1405" on="1"/>
        <pt x="1210" y="1267" on="0"/>
        <pt x="1210" y="1050" on="1"/>
        <pt x="1210" y="350" on="1"/>
      </contour>
      <contour>
        <pt x="596" y="1966" on="1"/>
        <pt x="606" y="1966" on="1"/>
        <pt x="768" y="1621" on="1"/>
        <pt x="651" y="1566" on="1"/>
        <pt x="641" y="1566" on="1"/>
        <pt x="420" y="1882" on="1"/>
      </contour>
    </TTGlyph>
    <TTGlyph name="Ohungarumlaut" xMin="200" yMin="-40" xMax="1210" yMax="1966">
      <contour>
        <pt x="705" y="140" on="1"/>
        <pt x="848" y="140" on="0"/>
        <pt x="938" y="243" on="1"/>
        <pt x="1010" y="326" on="0"/>
        <pt x="1010" y="460" on="1"/>
        <pt x="1010" y="1050" on="1"/>
        <pt x="1010" y="1184" on="0"/>
        <pt x="938" y="1267" on="1"/>
        <pt x="849" y="1370" on="0"/>
        <pt x="705" y="1370" on="1"/>
        <pt x="560" y="1370" on="0"/>
        <pt x="472" y="1267" on="1"/>
        <pt x="400" y="1184" on="0"/>
        <pt x="400" y="1050" on="1"/>
        <pt x="400" y="460" on="1"/>
        <pt x="400" y="328" on="0"/>
        <pt x="472" y="243" on="1"/>
        <pt x="559" y="140" on="0"/>
      </contour>
      <contour>
        <pt x="705" y="-40" on="1"/>
        <pt x="477" y="-40" on="0"/>
        <pt x="335" y="105" on="1"/>
        <pt x="200" y="243" on="0"/>
        <pt x="200" y="460" on="1"/>
        <pt x="200" y="1160" on="1"/>
        <pt x="705" y="1550" on="1"/>
        <pt x="933" y="1550" on="0"/>
        <pt x="1075" y="1405" on="1"/>
        <pt x="1210" y="1267" on="0"/>
        <pt x="1210" y="1050" on="1"/>
        <pt x="1210" y="350" on="1"/>
      </contour>
      <contour>
        <pt x="910" y="1966" on="1"/>
        <pt x="920" y="1966" on="1"/>
        <pt x="1096" y="1882" on="1"/>
        <pt x="875" y="1566" on="1"/>
        <pt x="865" y="1566" on="1"/>
        <pt x="748" y="1621" on="1"/>
      </contour>
      <contour>
        <pt x="637" y="1966" on="1"/>
        <pt x="647" y="1966" on="1"/>
        <pt x="823" y="1882" on="1"/>
        <pt x="602" y="1566" on="1"/>
        <pt x="592" y="1566" on="1"/>
        <pt x="475" y="1621" on="1"/>
      </contour>
    </TTGlyph>
    <TTGlyph name="Omacron" xMin="200" yMin="-40" xMax="1210" yMax="1820">
      <contour>
        <pt x="705" y="140" on="1"/>
        <pt x="848" y="140" on="0"/>
        <pt x="938" y="243" on="1"/>
        <pt x="1010" y="326" on="0"/>
        <pt x="1010" y="460" on="1"/>
        <pt x="1010" y="1050" on="1"/>
        <pt x="1010" y="1184" on="0"/>
        <pt x="938" y="1267" on="1"/>
        <pt x="849" y="1370" on="0"/>
        <pt x="705" y="1370" on="1"/>
        <pt x="560" y="1370" on="0"/>
        <pt x="472" y="1267" on="1"/>
        <pt x="400" y="1184" on="0"/>
        <pt x="400" y="1050" on="1"/>
        <pt x="400" y="460" on="1"/>
        <pt x="400" y="328" on="0"/>
        <pt x="472" y="243" on="1"/>
        <pt x="559" y="140" on="0"/>
      </contour>
      <contour>
        <pt x="705" y="-40" on="1"/>
        <pt x="477" y="-40" on="0"/>
        <pt x="335" y="105" on="1"/>
        <pt x="200" y="243" on="0"/>
        <pt x="200" y="460" on="1"/>
        <pt x="200" y="1160" on="1"/>
        <pt x="705" y="1550" on="1"/>
        <pt x="933" y="1550" on="0"/>
        <pt x="1075" y="1405" on="1"/>
        <pt x="1210" y="1267" on="0"/>
        <pt x="1210" y="1050" on="1"/>
        <pt x="1210" y="350" on="1"/>
      </contour>
      <contour>
        <pt x="467" y="1638" on="1"/>
        <pt x="467" y="1648" on="1"/>
        <pt x="548" y="1820" on="1"/>
        <pt x="1006" y="1820" on="1"/>
        <pt x="1006" y="1810" on="1"/>
        <pt x="925" y="1638" on="1"/>
      </contour>
    </TTGlyph>
    <TTGlyph name="Omega" xMin="150" yMin="0" xMax="1260" yMax="1550">
      <contour>
        <pt x="150" y="0" on="1"/>
        <pt x="150" y="10" on="1"/>
        <pt x="207" y="130" on="1"/>
        <pt x="532" y="130" on="1"/>
        <pt x="376" y="215" on="0"/>
        <pt x="299" y="320" on="1"/>
        <pt x="200" y="452" on="0"/>
        <pt x="200" y="613" on="1"/>
        <pt x="200" y="1160" on="1"/>
        <pt x="705" y="1550" on="1"/>
        <pt x="933" y="1550" on="0"/>
        <pt x="1075" y="1405" on="1"/>
        <pt x="1210" y="1267" on="0"/>
        <pt x="1210" y="1050" on="1"/>
        <pt x="1210" y="503" on="1"/>
        <pt x="896" y="130" on="1"/>
        <pt x="1260" y="130" on="1"/>
        <pt x="1260" y="120" on="1"/>
        <pt x="1203" y="0" on="1"/>
        <pt x="802" y="0" on="1"/>
        <pt x="802" y="182" on="1"/>
        <pt x="914" y="262" on="0"/>
        <pt x="964" y="374" on="1"/>
        <pt x="1010" y="477" on="0"/>
        <pt x="1010" y="613" on="1"/>
        <pt x="1010" y="1050" on="1"/>
        <pt x="1010" y="1184" on="0"/>
        <pt x="938" y="1267" on="1"/>
        <pt x="849" y="1370" on="0"/>
        <pt x="561" y="1370" on="0"/>
        <pt x="472" y="1267" on="1"/>
        <pt x="400" y="1183" on="0"/>
        <pt x="400" y="1050" on="1"/>
        <pt x="400" y="613" on="1"/>
        <pt x="400" y="477" on="0"/>
        <pt x="446" y="374" on="1"/>
        <pt x="496" y="262" on="0"/>
        <pt x="608" y="182" on="1"/>
        <pt x="608" y="0" on="1"/>
      </contour>
    </TTGlyph>
    <TTGlyph name="Oslash" xMin="200" yMin="-40" xMax="1210" yMax="1550">
      <contour>
        <pt x="404" y="-40" on="1"/>
        <pt x="394" y="-40" on="1"/>
        <pt x="290" y="10" on="1"/>
        <pt x="334" y="106" on="1"/>
        <pt x="200" y="243" on="0"/>
        <pt x="200" y="460" on="1"/>
        <pt x="200" y="1160" on="1"/>
        <pt x="705" y="1550" on="1"/>
        <pt x="860" y="1550" on="0"/>
        <pt x="975" y="1483" on="1"/>
        <pt x="1006" y="1550" on="1"/>
        <pt x="1016" y="1550" on="1"/>
        <pt x="1120" y="1499" on="1"/>
        <pt x="1076" y="1404" on="1"/>
        <pt x="1210" y="1266" on="0"/>
        <pt x="1210" y="1050" on="1"/>
        <pt x="1210" y="350" on="1"/>
        <pt x="705" y="-40" on="1"/>
        <pt x="550" y="-40" on="0"/>
        <pt x="435" y="27" on="1"/>
      </contour>
      <contour>
        <pt x="705" y="140" on="1"/>
        <pt x="848" y="140" on="0"/>
        <pt x="938" y="243" on="1"/>
        <pt x="1010" y="325" on="0"/>
        <pt x="1010" y="460" on="1"/>
        <pt x="1010" y="1050" on="1"/>
        <pt x="1010" y="1135" on="0"/>
        <pt x="981" y="1200" on="1"/>
        <pt x="516" y="201" on="1"/>
        <pt x="593" y="140" on="0"/>
      </contour>
      <contour>
        <pt x="430" y="310" on="1"/>
        <pt x="894" y="1309" on="1"/>
        <pt x="816" y="1370" on="0"/>
        <pt x="705" y="1370" on="1"/>
        <pt x="561" y="1370" on="0"/>
        <pt x="472" y="1267" on="1"/>
        <pt x="400" y="1183" on="0"/>
        <pt x="400" y="1050" on="1"/>
        <pt x="400" y="460" on="1"/>
        <pt x="400" y="375" on="0"/>
      </contour>
    </TTGlyph>
    <TTGlyph name="Oslashacute" xMin="200" yMin="-40" xMax="1210" yMax="1966">
      <contour>
        <pt x="404" y="-40" on="1"/>
        <pt x="394" y="-40" on="1"/>
        <pt x="290" y="10" on="1"/>
        <pt x="334" y="106" on="1"/>
        <pt x="200" y="243" on="0"/>
        <pt x="200" y="460" on="1"/>
        <pt x="200" y="1160" on="1"/>
        <pt x="705" y="1550" on="1"/>
        <pt x="860" y="1550" on="0"/>
        <pt x="975" y="1483" on="1"/>
        <pt x="1006" y="1550" on="1"/>
        <pt x="1016" y="1550" on="1"/>
        <pt x="1120" y="1499" on="1"/>
        <pt x="1076" y="1404" on="1"/>
        <pt x="1210" y="1266" on="0"/>
        <pt x="1210" y="1050" on="1"/>
        <pt x="1210" y="350" on="1"/>
        <pt x="705" y="-40" on="1"/>
        <pt x="550" y="-40" on="0"/>
        <pt x="435" y="27" on="1"/>
      </contour>
      <contour>
        <pt x="705" y="140" on="1"/>
        <pt x="848" y="140" on="0"/>
        <pt x="938" y="243" on="1"/>
        <pt x="1010" y="325" on="0"/>
        <pt x="1010" y="460" on="1"/>
        <pt x="1010" y="1050" on="1"/>
        <pt x="1010" y="1135" on="0"/>
        <pt x="981" y="1200" on="1"/>
        <pt x="516" y="201" on="1"/>
        <pt x="593" y="140" on="0"/>
      </contour>
      <contour>
        <pt x="430" y="310" on="1"/>
        <pt x="894" y="1309" on="1"/>
        <pt x="816" y="1370" on="0"/>
        <pt x="705" y="1370" on="1"/>
        <pt x="561" y="1370" on="0"/>
        <pt x="472" y="1267" on="1"/>
        <pt x="400" y="1183" on="0"/>
        <pt x="400" y="1050" on="1"/>
        <pt x="400" y="460" on="1"/>
        <pt x="400" y="375" on="0"/>
      </contour>
      <contour>
        <pt x="796" y="1966" on="1"/>
        <pt x="806" y="1966" on="1"/>
        <pt x="982" y="1882" on="1"/>
        <pt x="761" y="1566" on="1"/>
        <pt x="751" y="1566" on="1"/>
        <pt x="634" y="1621" on="1"/>
      </contour>
    </TTGlyph>
    <TTGlyph name="Otilde" xMin="200" yMin="-40" xMax="1210" yMax="1896">
      <contour>
        <pt x="705" y="140" on="1"/>
        <pt x="848" y="140" on="0"/>
        <pt x="938" y="243" on="1"/>
        <pt x="1010" y="326" on="0"/>
        <pt x="1010" y="460" on="1"/>
        <pt x="1010" y="1050" on="1"/>
        <pt x="1010" y="1184" on="0"/>
        <pt x="938" y="1267" on="1"/>
        <pt x="849" y="1370" on="0"/>
        <pt x="705" y="1370" on="1"/>
        <pt x="560" y="1370" on="0"/>
        <pt x="472" y="1267" on="1"/>
        <pt x="400" y="1184" on="0"/>
        <pt x="400" y="1050" on="1"/>
        <pt x="400" y="460" on="1"/>
        <pt x="400" y="328" on="0"/>
        <pt x="472" y="243" on="1"/>
        <pt x="559" y="140" on="0"/>
      </contour>
      <contour>
        <pt x="705" y="-40" on="1"/>
        <pt x="477" y="-40" on="0"/>
        <pt x="335" y="105" on="1"/>
        <pt x="200" y="243" on="0"/>
        <pt x="200" y="460" on="1"/>
        <pt x="200" y="1160" on="1"/>
        <pt x="705" y="1550" on="1"/>
        <pt x="933" y="1550" on="0"/>
        <pt x="1075" y="1405" on="1"/>
        <pt x="1210" y="1267" on="0"/>
        <pt x="1210" y="1050" on="1"/>
        <pt x="1210" y="350" on="1"/>
      </contour>
      <contour>
        <pt x="510" y="1639" on="1"/>
        <pt x="425" y="1688" on="1"/>
        <pt x="637" y="1896" on="1"/>
        <pt x="701" y="1896" on="0"/>
        <pt x="732" y="1857" on="1"/>
        <pt x="779" y="1798" on="0"/>
        <pt x="831" y="1798" on="1"/>
        <pt x="892" y="1798" on="0"/>
        <pt x="934" y="1896" on="1"/>
        <pt x="944" y="1896" on="1"/>
        <pt x="1029" y="1847" on="1"/>
        <pt x="817" y="1639" on="1"/>
        <pt x="753" y="1639" on="0"/>
        <pt x="722" y="1678" on="1"/>
        <pt x="675" y="1737" on="0"/>
        <pt x="623" y="1737" on="1"/>
        <pt x="562" y="1737" on="0"/>
        <pt x="520" y="1639" on="1"/>
      </contour>
    </TTGlyph>
    <TTGlyph name="P" xMin="200" yMin="-40" xMax="1159" yMax="1550">
      <contour>
        <pt x="200" y="-40" on="1"/>
        <pt x="200" y="1460" on="1"/>
        <pt x="390" y="1550" on="1"/>
        <pt x="400" y="1550" on="1"/>
        <pt x="400" y="355" on="1"/>
        <pt x="593" y="414" on="0"/>
        <pt x="772" y="556" on="1"/>
        <pt x="973" y="715" on="0"/>
        <pt x="973" y="951" on="1"/>
        <pt x="973" y="1135" on="0"/>
        <pt x="819" y="1267" on="1"/>
        <pt x="679" y="1387" on="0"/>
        <pt x="411" y="1441" on="1"/>
        <pt x="640" y="1550" on="1"/>
        <pt x="650" y="1550" on="1"/>
        <pt x="847" y="1511" on="0"/>
        <pt x="988" y="1371" on="1"/>
        <pt x="1159" y="1202" on="0"/>
        <pt x="1159" y="952" on="1"/>
        <pt x="1159" y="669" on="0"/>
        <pt x="837" y="454" on="1"/>
        <pt x="639" y="322" on="0"/>
        <pt x="400" y="255" on="1"/>
        <pt x="400" y="50" on="1"/>
        <pt x="210" y="-40" on="1"/>
      </contour>
    </TTGlyph>
    <TTGlyph name="Pi" xMin="200" yMin="-40" xMax="1190" yMax="1510">
      <contour>
        <pt x="210" y="-40" on="1"/>
        <pt x="200" y="-40" on="1"/>
        <pt x="200" y="1460" on="1"/>
        <pt x="306" y="1510" on="1"/>
        <pt x="1190" y="1510" on="1"/>
        <pt x="1190" y="50" on="1"/>
        <pt x="1000" y="-40" on="1"/>
        <pt x="990" y="-40" on="1"/>
        <pt x="990" y="1380" on="1"/>
        <pt x="400" y="1380" on="1"/>
        <pt x="400" y="50" on="1"/>
      </contour>
    </TTGlyph>
    <TTGlyph name="Q" xMin="200" yMin="-40" xMax="1210" yMax="1550">
      <contour>
        <pt x="705" y="-40" on="1"/>
        <pt x="477" y="-40" on="0"/>
        <pt x="335" y="105" on="1"/>
        <pt x="200" y="243" on="0"/>
        <pt x="200" y="460" on="1"/>
        <pt x="200" y="1160" on="1"/>
        <pt x="705" y="1550" on="1"/>
        <pt x="933" y="1550" on="0"/>
        <pt x="1075" y="1405" on="1"/>
        <pt x="1210" y="1267" on="0"/>
        <pt x="1210" y="1050" on="1"/>
        <pt x="1210" y="350" on="1"/>
        <pt x="1042" y="220" on="1"/>
        <pt x="1166" y="43" on="1"/>
        <pt x="990" y="-40" on="1"/>
        <pt x="980" y="-40" on="1"/>
        <pt x="884" y="98" on="1"/>
      </contour>
      <contour>
        <pt x="980" y="309" on="1"/>
        <pt x="1010" y="374" on="0"/>
        <pt x="1010" y="460" on="1"/>
        <pt x="1010" y="1050" on="1"/>
        <pt x="1010" y="1184" on="0"/>
        <pt x="938" y="1267" on="1"/>
        <pt x="849" y="1370" on="0"/>
        <pt x="561" y="1370" on="0"/>
        <pt x="472" y="1267" on="1"/>
        <pt x="400" y="1183" on="0"/>
        <pt x="400" y="1050" on="1"/>
        <pt x="400" y="460" on="1"/>
        <pt x="400" y="328" on="0"/>
        <pt x="472" y="243" on="1"/>
        <pt x="559" y="140" on="0"/>
        <pt x="705" y="140" on="1"/>
        <pt x="777" y="140" on="0"/>
        <pt x="836" y="166" on="1"/>
        <pt x="663" y="413" on="1"/>
        <pt x="839" y="497" on="1"/>
        <pt x="849" y="497" on="1"/>
      </contour>
    </TTGlyph>
    <TTGlyph name="R" xMin="200" yMin="-40" xMax="1214" yMax="1550">
      <contour>
        <pt x="200" y="-40" on="1"/>
        <pt x="200" y="1460" on="1"/>
        <pt x="390" y="1550" on="1"/>
        <pt x="400" y="1550" on="1"/>
        <pt x="400" y="355" on="1"/>
        <pt x="533" y="397" on="0"/>
        <pt x="663" y="481" on="1"/>
        <pt x="510" y="700" on="1"/>
        <pt x="686" y="784" on="1"/>
        <pt x="696" y="784" on="1"/>
        <pt x="822" y="603" on="1"/>
        <pt x="973" y="750" on="0"/>
        <pt x="973" y="951" on="1"/>
        <pt x="973" y="1127" on="0"/>
        <pt x="819" y="1267" on="1"/>
        <pt x="687" y="1385" on="0"/>
        <pt x="411" y="1441" on="1"/>
        <pt x="640" y="1550" on="1"/>
        <pt x="650" y="1550" on="1"/>
        <pt x="847" y="1511" on="0"/>
        <pt x="988" y="1371" on="1"/>
        <pt x="1159" y="1201" on="0"/>
        <pt x="1159" y="952" on="1"/>
        <pt x="1159" y="698" on="0"/>
        <pt x="897" y="497" on="1"/>
        <pt x="1214" y="43" on="1"/>
        <pt x="1038" y="-40" on="1"/>
        <pt x="1028" y="-40" on="1"/>
        <pt x="728" y="388" on="1"/>
        <pt x="575" y="304" on="0"/>
        <pt x="400" y="255" on="1"/>
        <pt x="400" y="50" on="1"/>
        <pt x="210" y="-40" on="1"/>
      </contour>
    </TTGlyph>
    <TTGlyph name="Racute" xMin="200" yMin="-40" xMax="1214" yMax="1966">
      <contour>
        <pt x="755" y="1966" on="1"/>
        <pt x="765" y="1966" on="1"/>
        <pt x="941" y="1882" on="1"/>
        <pt x="720" y="1566" on="1"/>
        <pt x="710" y="1566" on="1"/>
        <pt x="593" y="1621" on="1"/>
      </contour>
      <contour>
        <pt x="200" y="-40" on="1"/>
        <pt x="200" y="1460" on="1"/>
        <pt x="390" y="1550" on="1"/>
        <pt x="400" y="1550" on="1"/>
        <pt x="400" y="355" on="1"/>
        <pt x="533" y="397" on="0"/>
        <pt x="663" y="481" on="1"/>
        <pt x="510" y="700" on="1"/>
        <pt x="686" y="784" on="1"/>
        <pt x="696" y="784" on="1"/>
        <pt x="822" y="603" on="1"/>
        <pt x="973" y="750" on="0"/>
        <pt x="973" y="951" on="1"/>
        <pt x="973" y="1127" on="0"/>
        <pt x="819" y="1267" on="1"/>
        <pt x="687" y="1385" on="0"/>
        <pt x="411" y="1441" on="1"/>
        <pt x="640" y="1550" on="1"/>
        <pt x="650" y="1550" on="1"/>
        <pt x="847" y="1511" on="0"/>
        <pt x="988" y="1371" on="1"/>
        <pt x="1159" y="1201" on="0"/>
        <pt x="1159" y="952" on="1"/>
        <pt x="1159" y="698" on="0"/>
        <pt x="897" y="497" on="1"/>
        <pt x="1214" y="43" on="1"/>
        <pt x="1038" y="-40" on="1"/>
        <pt x="1028" y="-40" on="1"/>
        <pt x="728" y="388" on="1"/>
        <pt x="575" y="304" on="0"/>
        <pt x="400" y="255" on="1"/>
        <pt x="400" y="50" on="1"/>
        <pt x="210" y="-40" on="1"/>
      </contour>
    </TTGlyph>
    <TTGlyph name="Rcaron" xMin="200" yMin="-40" xMax="1214" yMax="1966">
      <contour>
        <pt x="529" y="1966" on="1"/>
        <pt x="539" y="1966" on="1"/>
        <pt x="680" y="1738" on="1"/>
        <pt x="821" y="1966" on="1"/>
        <pt x="831" y="1966" on="1"/>
        <pt x="934" y="1917" on="1"/>
        <pt x="764" y="1648" on="1"/>
        <pt x="591" y="1566" on="1"/>
        <pt x="581" y="1566" on="1"/>
        <pt x="356" y="1884" on="1"/>
      </contour>
      <contour>
        <pt x="200" y="-40" on="1"/>
        <pt x="200" y="1460" on="1"/>
        <pt x="390" y="1550" on="1"/>
        <pt x="400" y="1550" on="1"/>
        <pt x="400" y="355" on="1"/>
        <pt x="533" y="397" on="0"/>
        <pt x="663" y="481" on="1"/>
        <pt x="510" y="700" on="1"/>
        <pt x="686" y="784" on="1"/>
        <pt x="696" y="784" on="1"/>
        <pt x="822" y="603" on="1"/>
        <pt x="973" y="750" on="0"/>
        <pt x="973" y="951" on="1"/>
        <pt x="973" y="1127" on="0"/>
        <pt x="819" y="1267" on="1"/>
        <pt x="687" y="1385" on="0"/>
        <pt x="411" y="1441" on="1"/>
        <pt x="640" y="1550" on="1"/>
        <pt x="650" y="1550" on="1"/>
        <pt x="847" y="1511" on="0"/>
        <pt x="988" y="1371" on="1"/>
        <pt x="1159" y="1201" on="0"/>
        <pt x="1159" y="952" on="1"/>
        <pt x="1159" y="698" on="0"/>
        <pt x="897" y="497" on="1"/>
        <pt x="1214" y="43" on="1"/>
        <pt x="1038" y="-40" on="1"/>
        <pt x="1028" y="-40" on="1"/>
        <pt x="728" y="388" on="1"/>
        <pt x="575" y="304" on="0"/>
        <pt x="400" y="255" on="1"/>
        <pt x="400" y="50" on="1"/>
        <pt x="210" y="-40" on="1"/>
      </contour>
    </TTGlyph>
    <TTGlyph name="Rcommaaccent" xMin="200" yMin="-450" xMax="1214" yMax="1550">
      <contour>
        <pt x="595" y="-450" on="1"/>
        <pt x="585" y="-450" on="1"/>
        <pt x="409" y="-366" on="1"/>
        <pt x="630" y="-50" on="1"/>
        <pt x="640" y="-50" on="1"/>
        <pt x="757" y="-105" on="1"/>
      </contour>
      <contour>
        <pt x="200" y="-40" on="1"/>
        <pt x="200" y="1460" on="1"/>
        <pt x="390" y="1550" on="1"/>
        <pt x="400" y="1550" on="1"/>
        <pt x="400" y="355" on="1"/>
        <pt x="533" y="397" on="0"/>
        <pt x="663" y="481" on="1"/>
        <pt x="510" y="700" on="1"/>
        <pt x="686" y="784" on="1"/>
        <pt x="696" y="784" on="1"/>
        <pt x="822" y="603" on="1"/>
        <pt x="973" y="750" on="0"/>
        <pt x="973" y="951" on="1"/>
        <pt x="973" y="1127" on="0"/>
        <pt x="819" y="1267" on="1"/>
        <pt x="687" y="1385" on="0"/>
        <pt x="411" y="1441" on="1"/>
        <pt x="640" y="1550" on="1"/>
        <pt x="650" y="1550" on="1"/>
        <pt x="847" y="1511" on="0"/>
        <pt x="988" y="1371" on="1"/>
        <pt x="1159" y="1201" on="0"/>
        <pt x="1159" y="952" on="1"/>
        <pt x="1159" y="698" on="0"/>
        <pt x="897" y="497" on="1"/>
        <pt x="1214" y="43" on="1"/>
        <pt x="1038" y="-40" on="1"/>
        <pt x="1028" y="-40" on="1"/>
        <pt x="728" y="388" on="1"/>
        <pt x="575" y="304" on="0"/>
        <pt x="400" y="255" on="1"/>
        <pt x="400" y="50" on="1"/>
        <pt x="210" y="-40" on="1"/>
      </contour>
    </TTGlyph>
    <TTGlyph name="S" xMin="160" yMin="-40" xMax="1170" yMax="1550">
      <contour>
        <pt x="665" y="-40" on="1"/>
        <pt x="432" y="-40" on="0"/>
        <pt x="295" y="105" on="1"/>
        <pt x="160" y="248" on="0"/>
        <pt x="160" y="460" on="1"/>
        <pt x="350" y="550" on="1"/>
        <pt x="360" y="550" on="1"/>
        <pt x="360" y="460" on="1"/>
        <pt x="360" y="328" on="0"/>
        <pt x="432" y="243" on="1"/>
        <pt x="519" y="140" on="0"/>
        <pt x="665" y="140" on="1"/>
        <pt x="808" y="140" on="0"/>
        <pt x="898" y="243" on="1"/>
        <pt x="970" y="326" on="0"/>
        <pt x="970" y="460" on="1"/>
        <pt x="970" y="589" on="0"/>
        <pt x="911" y="657" on="1"/>
        <pt x="829" y="751" on="0"/>
        <pt x="664" y="751" on="1"/>
        <pt x="479" y="751" on="0"/>
        <pt x="350" y="871" on="1"/>
        <pt x="250" y="964" on="0"/>
        <pt x="250" y="1134" on="1"/>
        <pt x="250" y="1230" on="1"/>
        <pt x="665" y="1550" on="1"/>
        <pt x="854" y="1537" on="0"/>
        <pt x="956" y="1454" on="1"/>
        <pt x="1080" y="1353" on="0"/>
        <pt x="1080" y="1157" on="1"/>
        <pt x="890" y="1067" on="1"/>
        <pt x="880" y="1067" on="1"/>
        <pt x="880" y="1157" on="1"/>
        <pt x="880" y="1280" on="0"/>
        <pt x="815" y="1337" on="1"/>
        <pt x="752" y="1392" on="0"/>
        <pt x="665" y="1392" on="1"/>
        <pt x="568" y="1392" on="0"/>
        <pt x="450" y="1270" on="0"/>
        <pt x="450" y="1157" on="1"/>
        <pt x="450" y="1048" on="0"/>
        <pt x="495" y="998" on="1"/>
        <pt x="555" y="931" on="0"/>
        <pt x="664" y="931" on="1"/>
        <pt x="903" y="931" on="0"/>
        <pt x="1035" y="817" on="1"/>
        <pt x="1170" y="700" on="0"/>
        <pt x="1170" y="462" on="1"/>
        <pt x="1170" y="350" on="1"/>
      </contour>
    </TTGlyph>
    <TTGlyph name="Sacute" xMin="160" yMin="-40" xMax="1170" yMax="1966">
      <contour>
        <pt x="665" y="-40" on="1"/>
        <pt x="432" y="-40" on="0"/>
        <pt x="295" y="105" on="1"/>
        <pt x="160" y="248" on="0"/>
        <pt x="160" y="460" on="1"/>
        <pt x="350" y="550" on="1"/>
        <pt x="360" y="550" on="1"/>
        <pt x="360" y="460" on="1"/>
        <pt x="360" y="328" on="0"/>
        <pt x="432" y="243" on="1"/>
        <pt x="519" y="140" on="0"/>
        <pt x="665" y="140" on="1"/>
        <pt x="808" y="140" on="0"/>
        <pt x="898" y="243" on="1"/>
        <pt x="970" y="326" on="0"/>
        <pt x="970" y="460" on="1"/>
        <pt x="970" y="589" on="0"/>
        <pt x="911" y="657" on="1"/>
        <pt x="829" y="751" on="0"/>
        <pt x="664" y="751" on="1"/>
        <pt x="479" y="751" on="0"/>
        <pt x="350" y="871" on="1"/>
        <pt x="250" y="964" on="0"/>
        <pt x="250" y="1134" on="1"/>
        <pt x="250" y="1230" on="1"/>
        <pt x="665" y="1550" on="1"/>
        <pt x="854" y="1537" on="0"/>
        <pt x="956" y="1454" on="1"/>
        <pt x="1080" y="1353" on="0"/>
        <pt x="1080" y="1157" on="1"/>
        <pt x="890" y="1067" on="1"/>
        <pt x="880" y="1067" on="1"/>
        <pt x="880" y="1157" on="1"/>
        <pt x="880" y="1280" on="0"/>
        <pt x="815" y="1337" on="1"/>
        <pt x="752" y="1392" on="0"/>
        <pt x="665" y="1392" on="1"/>
        <pt x="568" y="1392" on="0"/>
        <pt x="450" y="1270" on="0"/>
        <pt x="450" y="1157" on="1"/>
        <pt x="450" y="1048" on="0"/>
        <pt x="495" y="998" on="1"/>
        <pt x="555" y="931" on="0"/>
        <pt x="664" y="931" on="1"/>
        <pt x="903" y="931" on="0"/>
        <pt x="1035" y="817" on="1"/>
        <pt x="1170" y="700" on="0"/>
        <pt x="1170" y="462" on="1"/>
        <pt x="1170" y="350" on="1"/>
      </contour>
      <contour>
        <pt x="796" y="1966" on="1"/>
        <pt x="806" y="1966" on="1"/>
        <pt x="982" y="1882" on="1"/>
        <pt x="761" y="1566" on="1"/>
        <pt x="751" y="1566" on="1"/>
        <pt x="634" y="1621" on="1"/>
      </contour>
    </TTGlyph>
    <TTGlyph name="Scaron" xMin="160" yMin="-40" xMax="1170" yMax="1966">
      <contour>
        <pt x="665" y="-40" on="1"/>
        <pt x="432" y="-40" on="0"/>
        <pt x="295" y="105" on="1"/>
        <pt x="160" y="248" on="0"/>
        <pt x="160" y="460" on="1"/>
        <pt x="350" y="550" on="1"/>
        <pt x="360" y="550" on="1"/>
        <pt x="360" y="460" on="1"/>
        <pt x="360" y="328" on="0"/>
        <pt x="432" y="243" on="1"/>
        <pt x="519" y="140" on="0"/>
        <pt x="665" y="140" on="1"/>
        <pt x="808" y="140" on="0"/>
        <pt x="898" y="243" on="1"/>
        <pt x="970" y="326" on="0"/>
        <pt x="970" y="460" on="1"/>
        <pt x="970" y="589" on="0"/>
        <pt x="911" y="657" on="1"/>
        <pt x="829" y="751" on="0"/>
        <pt x="664" y="751" on="1"/>
        <pt x="479" y="751" on="0"/>
        <pt x="350" y="871" on="1"/>
        <pt x="250" y="964" on="0"/>
        <pt x="250" y="1134" on="1"/>
        <pt x="250" y="1230" on="1"/>
        <pt x="665" y="1550" on="1"/>
        <pt x="854" y="1537" on="0"/>
        <pt x="956" y="1454" on="1"/>
        <pt x="1080" y="1353" on="0"/>
        <pt x="1080" y="1157" on="1"/>
        <pt x="890" y="1067" on="1"/>
        <pt x="880" y="1067" on="1"/>
        <pt x="880" y="1157" on="1"/>
        <pt x="880" y="1280" on="0"/>
        <pt x="815" y="1337" on="1"/>
        <pt x="752" y="1392" on="0"/>
        <pt x="665" y="1392" on="1"/>
        <pt x="568" y="1392" on="0"/>
        <pt x="450" y="1270" on="0"/>
        <pt x="450" y="1157" on="1"/>
        <pt x="450" y="1048" on="0"/>
        <pt x="495" y="998" on="1"/>
        <pt x="555" y="931" on="0"/>
        <pt x="664" y="931" on="1"/>
        <pt x="903" y="931" on="0"/>
        <pt x="1035" y="817" on="1"/>
        <pt x="1170" y="700" on="0"/>
        <pt x="1170" y="462" on="1"/>
        <pt x="1170" y="350" on="1"/>
      </contour>
      <contour>
        <pt x="577" y="1966" on="1"/>
        <pt x="587" y="1966" on="1"/>
        <pt x="728" y="1738" on="1"/>
        <pt x="869" y="1966" on="1"/>
        <pt x="879" y="1966" on="1"/>
        <pt x="982" y="1917" on="1"/>
        <pt x="812" y="1648" on="1"/>
        <pt x="639" y="1566" on="1"/>
        <pt x="629" y="1566" on="1"/>
        <pt x="404" y="1884" on="1"/>
      </contour>
    </TTGlyph>
    <TTGlyph name="Scedilla" xMin="160" yMin="-450" xMax="1170" yMax="1550">
      <contour>
        <pt x="160" y="460" on="1"/>
        <pt x="350" y="550" on="1"/>
        <pt x="360" y="550" on="1"/>
        <pt x="360" y="460" on="1"/>
        <pt x="360" y="328" on="0"/>
        <pt x="432" y="243" on="1"/>
        <pt x="519" y="140" on="0"/>
        <pt x="665" y="140" on="1"/>
        <pt x="808" y="140" on="0"/>
        <pt x="898" y="243" on="1"/>
        <pt x="970" y="326" on="0"/>
        <pt x="970" y="460" on="1"/>
        <pt x="970" y="589" on="0"/>
        <pt x="911" y="657" on="1"/>
        <pt x="829" y="751" on="0"/>
        <pt x="664" y="751" on="1"/>
        <pt x="479" y="751" on="0"/>
        <pt x="350" y="871" on="1"/>
        <pt x="250" y="964" on="0"/>
        <pt x="250" y="1134" on="1"/>
        <pt x="250" y="1230" on="1"/>
        <pt x="665" y="1550" on="1"/>
        <pt x="854" y="1537" on="0"/>
        <pt x="956" y="1454" on="1"/>
        <pt x="1080" y="1353" on="0"/>
        <pt x="1080" y="1157" on="1"/>
        <pt x="890" y="1067" on="1"/>
        <pt x="880" y="1067" on="1"/>
        <pt x="880" y="1157" on="1"/>
        <pt x="880" y="1280" on="0"/>
        <pt x="815" y="1337" on="1"/>
        <pt x="752" y="1392" on="0"/>
        <pt x="665" y="1392" on="1"/>
        <pt x="568" y="1392" on="0"/>
        <pt x="450" y="1270" on="0"/>
        <pt x="450" y="1157" on="1"/>
        <pt x="450" y="1048" on="0"/>
        <pt x="495" y="998" on="1"/>
        <pt x="555" y="931" on="0"/>
        <pt x="664" y="931" on="1"/>
        <pt x="903" y="931" on="0"/>
        <pt x="1035" y="817" on="1"/>
        <pt x="1170" y="700" on="0"/>
        <pt x="1170" y="462" on="1"/>
        <pt x="1170" y="350" on="1"/>
        <pt x="736" y="15" on="1"/>
        <pt x="883" y="-159" on="1"/>
        <pt x="870" y="-348" on="0"/>
        <pt x="787" y="-450" on="1"/>
        <pt x="777" y="-450" on="1"/>
        <pt x="587" y="-360" on="1"/>
        <pt x="695" y="-290" on="0"/>
        <pt x="695" y="-178" on="1"/>
        <pt x="695" y="-112" on="0"/>
        <pt x="665" y="-40" on="1"/>
        <pt x="432" y="-40" on="0"/>
        <pt x="295" y="105" on="1"/>
        <pt x="160" y="248" on="0"/>
      </contour>
    </TTGlyph>
    <TTGlyph name="Scircumflex" xMin="160" yMin="-40" xMax="1170" yMax="1966">
      <contour>
        <pt x="665" y="-40" on="1"/>
        <pt x="432" y="-40" on="0"/>
        <pt x="295" y="105" on="1"/>
        <pt x="160" y="248" on="0"/>
        <pt x="160" y="460" on="1"/>
        <pt x="350" y="550" on="1"/>
        <pt x="360" y="550" on="1"/>
        <pt x="360" y="460" on="1"/>
        <pt x="360" y="328" on="0"/>
        <pt x="432" y="243" on="1"/>
        <pt x="519" y="140" on="0"/>
        <pt x="665" y="140" on="1"/>
        <pt x="808" y="140" on="0"/>
        <pt x="898" y="243" on="1"/>
        <pt x="970" y="326" on="0"/>
        <pt x="970" y="460" on="1"/>
        <pt x="970" y="589" on="0"/>
        <pt x="911" y="657" on="1"/>
        <pt x="829" y="751" on="0"/>
        <pt x="664" y="751" on="1"/>
        <pt x="479" y="751" on="0"/>
        <pt x="350" y="871" on="1"/>
        <pt x="250" y="964" on="0"/>
        <pt x="250" y="1134" on="1"/>
        <pt x="250" y="1230" on="1"/>
        <pt x="665" y="1550" on="1"/>
        <pt x="854" y="1537" on="0"/>
        <pt x="956" y="1454" on="1"/>
        <pt x="1080" y="1353" on="0"/>
        <pt x="1080" y="1157" on="1"/>
        <pt x="890" y="1067" on="1"/>
        <pt x="880" y="1067" on="1"/>
        <pt x="880" y="1157" on="1"/>
        <pt x="880" y="1280" on="0"/>
        <pt x="815" y="1337" on="1"/>
        <pt x="752" y="1392" on="0"/>
        <pt x="665" y="1392" on="1"/>
        <pt x="568" y="1392" on="0"/>
        <pt x="450" y="1270" on="0"/>
        <pt x="450" y="1157" on="1"/>
        <pt x="450" y="1048" on="0"/>
        <pt x="495" y="998" on="1"/>
        <pt x="555" y="931" on="0"/>
        <pt x="664" y="931" on="1"/>
        <pt x="903" y="931" on="0"/>
        <pt x="1035" y="817" on="1"/>
        <pt x="1170" y="700" on="0"/>
        <pt x="1170" y="462" on="1"/>
        <pt x="1170" y="350" on="1"/>
      </contour>
      <contour>
        <pt x="806" y="1966" on="1"/>
        <pt x="1031" y="1648" on="1"/>
        <pt x="858" y="1566" on="1"/>
        <pt x="848" y="1566" on="1"/>
        <pt x="707" y="1794" on="1"/>
        <pt x="566" y="1566" on="1"/>
        <pt x="556" y="1566" on="1"/>
        <pt x="453" y="1615" on="1"/>
        <pt x="623" y="1884" on="1"/>
        <pt x="796" y="1966" on="1"/>
      </contour>
    </TTGlyph>
    <TTGlyph name="Scommaaccent" xMin="160" yMin="-450" xMax="1170" yMax="1550">
      <contour>
        <pt x="665" y="-40" on="1"/>
        <pt x="432" y="-40" on="0"/>
        <pt x="295" y="105" on="1"/>
        <pt x="160" y="248" on="0"/>
        <pt x="160" y="460" on="1"/>
        <pt x="350" y="550" on="1"/>
        <pt x="360" y="550" on="1"/>
        <pt x="360" y="460" on="1"/>
        <pt x="360" y="328" on="0"/>
        <pt x="432" y="243" on="1"/>
        <pt x="519" y="140" on="0"/>
        <pt x="665" y="140" on="1"/>
        <pt x="808" y="140" on="0"/>
        <pt x="898" y="243" on="1"/>
        <pt x="970" y="326" on="0"/>
        <pt x="970" y="460" on="1"/>
        <pt x="970" y="589" on="0"/>
        <pt x="911" y="657" on="1"/>
        <pt x="829" y="751" on="0"/>
        <pt x="664" y="751" on="1"/>
        <pt x="479" y="751" on="0"/>
        <pt x="350" y="871" on="1"/>
        <pt x="250" y="964" on="0"/>
        <pt x="250" y="1134" on="1"/>
        <pt x="250" y="1230" on="1"/>
        <pt x="665" y="1550" on="1"/>
        <pt x="854" y="1537" on="0"/>
        <pt x="956" y="1454" on="1"/>
        <pt x="1080" y="1353" on="0"/>
        <pt x="1080" y="1157" on="1"/>
        <pt x="890" y="1067" on="1"/>
        <pt x="880" y="1067" on="1"/>
        <pt x="880" y="1157" on="1"/>
        <pt x="880" y="1280" on="0"/>
        <pt x="815" y="1337" on="1"/>
        <pt x="752" y="1392" on="0"/>
        <pt x="665" y="1392" on="1"/>
        <pt x="568" y="1392" on="0"/>
        <pt x="450" y="1270" on="0"/>
        <pt x="450" y="1157" on="1"/>
        <pt x="450" y="1048" on="0"/>
        <pt x="495" y="998" on="1"/>
        <pt x="555" y="931" on="0"/>
        <pt x="664" y="931" on="1"/>
        <pt x="903" y="931" on="0"/>
        <pt x="1035" y="817" on="1"/>
        <pt x="1170" y="700" on="0"/>
        <pt x="1170" y="462" on="1"/>
        <pt x="1170" y="350" on="1"/>
      </contour>
      <contour>
        <pt x="595" y="-450" on="1"/>
        <pt x="585" y="-450" on="1"/>
        <pt x="409" y="-366" on="1"/>
        <pt x="630" y="-50" on="1"/>
        <pt x="640" y="-50" on="1"/>
        <pt x="757" y="-105" on="1"/>
      </contour>
    </TTGlyph>
    <TTGlyph name="Sigma" xMin="100" yMin="0" xMax="1053" yMax="1510">
      <contour>
        <pt x="100" y="0" on="1"/>
        <pt x="584" y="776" on="1"/>
        <pt x="101" y="1460" on="1"/>
        <pt x="207" y="1510" on="1"/>
        <pt x="962" y="1510" on="1"/>
        <pt x="962" y="1500" on="1"/>
        <pt x="905" y="1380" on="1"/>
        <pt x="380" y="1380" on="1"/>
        <pt x="805" y="774" on="1"/>
        <pt x="391" y="130" on="1"/>
        <pt x="1053" y="130" on="1"/>
        <pt x="1053" y="120" on="1"/>
        <pt x="996" y="0" on="1"/>
      </contour>
    </TTGlyph>
    <TTGlyph name="T" xMin="5" yMin="-40" xMax="1061" yMax="1510">
      <contour>
        <pt x="433" y="-40" on="1"/>
        <pt x="433" y="1380" on="1"/>
        <pt x="5" y="1380" on="1"/>
        <pt x="5" y="1390" on="1"/>
        <pt x="62" y="1510" on="1"/>
        <pt x="1061" y="1510" on="1"/>
        <pt x="1061" y="1500" on="1"/>
        <pt x="1004" y="1380" on="1"/>
        <pt x="633" y="1380" on="1"/>
        <pt x="633" y="50" on="1"/>
        <pt x="443" y="-40" on="1"/>
      </contour>
    </TTGlyph>
    <TTGlyph name="Tbar" xMin="5" yMin="-40" xMax="1061" yMax="1510">
      <contour>
        <pt x="433" y="-40" on="1"/>
        <pt x="433" y="522" on="1"/>
        <pt x="224" y="522" on="1"/>
        <pt x="224" y="532" on="1"/>
        <pt x="281" y="652" on="1"/>
        <pt x="433" y="652" on="1"/>
        <pt x="433" y="1380" on="1"/>
        <pt x="5" y="1380" on="1"/>
        <pt x="5" y="1390" on="1"/>
        <pt x="62" y="1510" on="1"/>
        <pt x="1061" y="1510" on="1"/>
        <pt x="1061" y="1500" on="1"/>
        <pt x="1004" y="1380" on="1"/>
        <pt x="633" y="1380" on="1"/>
        <pt x="633" y="652" on="1"/>
        <pt x="841" y="652" on="1"/>
        <pt x="841" y="642" on="1"/>
        <pt x="784" y="522" on="1"/>
        <pt x="633" y="522" on="1"/>
        <pt x="633" y="50" on="1"/>
        <pt x="443" y="-40" on="1"/>
      </contour>
    </TTGlyph>
    <TTGlyph name="Tcaron" xMin="5" yMin="-40" xMax="1061" yMax="1966">
      <contour>
        <pt x="433" y="-40" on="1"/>
        <pt x="433" y="1380" on="1"/>
        <pt x="5" y="1380" on="1"/>
        <pt x="5" y="1390" on="1"/>
        <pt x="62" y="1510" on="1"/>
        <pt x="1061" y="1510" on="1"/>
        <pt x="1061" y="1500" on="1"/>
        <pt x="1004" y="1380" on="1"/>
        <pt x="633" y="1380" on="1"/>
        <pt x="633" y="50" on="1"/>
        <pt x="443" y="-40" on="1"/>
      </contour>
      <contour>
        <pt x="401" y="1966" on="1"/>
        <pt x="411" y="1966" on="1"/>
        <pt x="552" y="1738" on="1"/>
        <pt x="693" y="1966" on="1"/>
        <pt x="703" y="1966" on="1"/>
        <pt x="806" y="1917" on="1"/>
        <pt x="636" y="1648" on="1"/>
        <pt x="463" y="1566" on="1"/>
        <pt x="453" y="1566" on="1"/>
        <pt x="228" y="1884" on="1"/>
      </contour>
    </TTGlyph>
    <TTGlyph name="Tcommaaccent" xMin="5" yMin="-450" xMax="1061" yMax="1510">
      <contour>
        <pt x="433" y="-40" on="1"/>
        <pt x="433" y="1380" on="1"/>
        <pt x="5" y="1380" on="1"/>
        <pt x="5" y="1390" on="1"/>
        <pt x="62" y="1510" on="1"/>
        <pt x="1061" y="1510" on="1"/>
        <pt x="1061" y="1500" on="1"/>
        <pt x="1004" y="1380" on="1"/>
        <pt x="633" y="1380" on="1"/>
        <pt x="633" y="50" on="1"/>
        <pt x="811" y="-159" on="1"/>
        <pt x="798" y="-348" on="0"/>
        <pt x="715" y="-450" on="1"/>
        <pt x="705" y="-450" on="1"/>
        <pt x="515" y="-360" on="1"/>
        <pt x="623" y="-290" on="0"/>
        <pt x="623" y="-178" on="1"/>
        <pt x="623" y="-84" on="0"/>
        <pt x="565" y="18" on="1"/>
        <pt x="443" y="-40" on="1"/>
      </contour>
    </TTGlyph>
    <TTGlyph name="Thorn" xMin="200" yMin="-40" xMax="1210" yMax="1550">
      <contour>
        <pt x="705" y="448" on="1"/>
        <pt x="855" y="448" on="0"/>
        <pt x="938" y="551" on="1"/>
        <pt x="1010" y="640" on="0"/>
        <pt x="1010" y="768" on="1"/>
        <pt x="1010" y="858" on="1"/>
        <pt x="1010" y="990" on="0"/>
        <pt x="938" y="1075" on="1"/>
        <pt x="849" y="1178" on="0"/>
        <pt x="705" y="1178" on="1"/>
        <pt x="558" y="1178" on="0"/>
        <pt x="472" y="1075" on="1"/>
        <pt x="400" y="988" on="0"/>
        <pt x="400" y="858" on="1"/>
        <pt x="400" y="768" on="1"/>
        <pt x="400" y="636" on="0"/>
        <pt x="472" y="551" on="1"/>
        <pt x="559" y="448" on="0"/>
      </contour>
      <contour>
        <pt x="200" y="-40" on="1"/>
        <pt x="200" y="1460" on="1"/>
        <pt x="390" y="1550" on="1"/>
        <pt x="400" y="1550" on="1"/>
        <pt x="400" y="1122" on="1"/>
        <pt x="705" y="1358" on="1"/>
        <pt x="937" y="1358" on="0"/>
        <pt x="1075" y="1213" on="1"/>
        <pt x="1210" y="1071" on="0"/>
        <pt x="1210" y="858" on="1"/>
        <pt x="1210" y="658" on="1"/>
        <pt x="705" y="268" on="1"/>
        <pt x="523" y="268" on="0"/>
        <pt x="400" y="356" on="1"/>
        <pt x="400" y="50" on="1"/>
        <pt x="210" y="-40" on="1"/>
      </contour>
    </TTGlyph>
    <TTGlyph name="U" xMin="200" yMin="-40" xMax="1210" yMax="1550">
      <contour>
        <pt x="705" y="-40" on="1"/>
        <pt x="477" y="-40" on="0"/>
        <pt x="335" y="105" on="1"/>
        <pt x="200" y="243" on="0"/>
        <pt x="200" y="460" on="1"/>
        <pt x="200" y="1458" on="1"/>
        <pt x="390" y="1550" on="1"/>
        <pt x="400" y="1550" on="1"/>
        <pt x="400" y="460" on="1"/>
        <pt x="400" y="326" on="0"/>
        <pt x="472" y="243" on="1"/>
        <pt x="561" y="140" on="0"/>
        <pt x="705" y="140" on="1"/>
        <pt x="852" y="140" on="0"/>
        <pt x="938" y="243" on="1"/>
        <pt x="1010" y="329" on="0"/>
        <pt x="1010" y="460" on="1"/>
        <pt x="1010" y="1460" on="1"/>
        <pt x="1200" y="1550" on="1"/>
        <pt x="1210" y="1550" on="1"/>
        <pt x="1210" y="350" on="1"/>
      </contour>
    </TTGlyph>
    <TTGlyph name="Uacute" xMin="200" yMin="-40" xMax="1210" yMax="1966">
      <contour>
        <pt x="705" y="-40" on="1"/>
        <pt x="477" y="-40" on="0"/>
        <pt x="335" y="105" on="1"/>
        <pt x="200" y="243" on="0"/>
        <pt x="200" y="460" on="1"/>
        <pt x="200" y="1458" on="1"/>
        <pt x="390" y="1550" on="1"/>
        <pt x="400" y="1550" on="1"/>
        <pt x="400" y="460" on="1"/>
        <pt x="400" y="326" on="0"/>
        <pt x="472" y="243" on="1"/>
        <pt x="561" y="140" on="0"/>
        <pt x="705" y="140" on="1"/>
        <pt x="852" y="140" on="0"/>
        <pt x="938" y="243" on="1"/>
        <pt x="1010" y="329" on="0"/>
        <pt x="1010" y="460" on="1"/>
        <pt x="1010" y="1460" on="1"/>
        <pt x="1200" y="1550" on="1"/>
        <pt x="1210" y="1550" on="1"/>
        <pt x="1210" y="350" on="1"/>
      </contour>
      <contour>
        <pt x="796" y="1966" on="1"/>
        <pt x="806" y="1966" on="1"/>
        <pt x="982" y="1882" on="1"/>
        <pt x="761" y="1566" on="1"/>
        <pt x="751" y="1566" on="1"/>
        <pt x="634" y="1621" on="1"/>
      </contour>
    </TTGlyph>
    <TTGlyph name="Ubreve" xMin="200" yMin="-40" xMax="1210" yMax="1902">
      <contour>
        <pt x="705" y="-40" on="1"/>
        <pt x="477" y="-40" on="0"/>
        <pt x="335" y="105" on="1"/>
        <pt x="200" y="243" on="0"/>
        <pt x="200" y="460" on="1"/>
        <pt x="200" y="1458" on="1"/>
        <pt x="390" y="1550" on="1"/>
        <pt x="400" y="1550" on="1"/>
        <pt x="400" y="460" on="1"/>
        <pt x="400" y="326" on="0"/>
        <pt x="472" y="243" on="1"/>
        <pt x="561" y="140" on="0"/>
        <pt x="705" y="140" on="1"/>
        <pt x="852" y="140" on="0"/>
        <pt x="938" y="243" on="1"/>
        <pt x="1010" y="329" on="0"/>
        <pt x="1010" y="460" on="1"/>
        <pt x="1010" y="1460" on="1"/>
        <pt x="1200" y="1550" on="1"/>
        <pt x="1210" y="1550" on="1"/>
        <pt x="1210" y="350" on="1"/>
      </contour>
      <contour>
        <pt x="402" y="1785" on="1"/>
        <pt x="533" y="1902" on="1"/>
        <pt x="543" y="1902" on="1"/>
        <pt x="627" y="1796" on="0"/>
        <pt x="729" y="1796" on="1"/>
        <pt x="832" y="1796" on="0"/>
        <pt x="939" y="1897" on="1"/>
        <pt x="949" y="1897" on="1"/>
        <pt x="998" y="1853" on="1"/>
        <pt x="747" y="1638" on="1"/>
        <pt x="558" y="1638" on="0"/>
      </contour>
    </TTGlyph>
    <TTGlyph name="Ucircumflex" xMin="200" yMin="-40" xMax="1210" yMax="1966">
      <contour>
        <pt x="705" y="-40" on="1"/>
        <pt x="477" y="-40" on="0"/>
        <pt x="335" y="105" on="1"/>
        <pt x="200" y="243" on="0"/>
        <pt x="200" y="460" on="1"/>
        <pt x="200" y="1458" on="1"/>
        <pt x="390" y="1550" on="1"/>
        <pt x="400" y="1550" on="1"/>
        <pt x="400" y="460" on="1"/>
        <pt x="400" y="326" on="0"/>
        <pt x="472" y="243" on="1"/>
        <pt x="561" y="140" on="0"/>
        <pt x="705" y="140" on="1"/>
        <pt x="852" y="140" on="0"/>
        <pt x="938" y="243" on="1"/>
        <pt x="1010" y="329" on="0"/>
        <pt x="1010" y="460" on="1"/>
        <pt x="1010" y="1460" on="1"/>
        <pt x="1200" y="1550" on="1"/>
        <pt x="1210" y="1550" on="1"/>
        <pt x="1210" y="350" on="1"/>
      </contour>
      <contour>
        <pt x="806" y="1966" on="1"/>
        <pt x="1031" y="1648" on="1"/>
        <pt x="858" y="1566" on="1"/>
        <pt x="848" y="1566" on="1"/>
        <pt x="707" y="1794" on="1"/>
        <pt x="566" y="1566" on="1"/>
        <pt x="556" y="1566" on="1"/>
        <pt x="453" y="1615" on="1"/>
        <pt x="623" y="1884" on="1"/>
        <pt x="796" y="1966" on="1"/>
      </contour>
    </TTGlyph>
    <TTGlyph name="Udieresis" xMin="200" yMin="-40" xMax="1210" yMax="1966">
      <contour>
        <pt x="705" y="-40" on="1"/>
        <pt x="477" y="-40" on="0"/>
        <pt x="335" y="105" on="1"/>
        <pt x="200" y="243" on="0"/>
        <pt x="200" y="460" on="1"/>
        <pt x="200" y="1458" on="1"/>
        <pt x="390" y="1550" on="1"/>
        <pt x="400" y="1550" on="1"/>
        <pt x="400" y="460" on="1"/>
        <pt x="400" y="326" on="0"/>
        <pt x="472" y="243" on="1"/>
        <pt x="561" y="140" on="0"/>
        <pt x="705" y="140" on="1"/>
        <pt x="852" y="140" on="0"/>
        <pt x="938" y="243" on="1"/>
        <pt x="1010" y="329" on="0"/>
        <pt x="1010" y="460" on="1"/>
        <pt x="1010" y="1460" on="1"/>
        <pt x="1200" y="1550" on="1"/>
        <pt x="1210" y="1550" on="1"/>
        <pt x="1210" y="350" on="1"/>
      </contour>
      <contour>
        <pt x="934" y="1966" on="1"/>
        <pt x="944" y="1966" on="1"/>
        <pt x="944" y="1738" on="1"/>
        <pt x="754" y="1648" on="1"/>
        <pt x="744" y="1648" on="1"/>
        <pt x="744" y="1876" on="1"/>
      </contour>
      <contour>
        <pt x="661" y="1966" on="1"/>
        <pt x="671" y="1966" on="1"/>
        <pt x="671" y="1738" on="1"/>
        <pt x="481" y="1648" on="1"/>
        <pt x="471" y="1648" on="1"/>
        <pt x="471" y="1876" on="1"/>
      </contour>
    </TTGlyph>
    <TTGlyph name="Ugrave" xMin="200" yMin="-40" xMax="1210" yMax="1966">
      <contour>
        <pt x="705" y="-40" on="1"/>
        <pt x="477" y="-40" on="0"/>
        <pt x="335" y="105" on="1"/>
        <pt x="200" y="243" on="0"/>
        <pt x="200" y="460" on="1"/>
        <pt x="200" y="1458" on="1"/>
        <pt x="390" y="1550" on="1"/>
        <pt x="400" y="1550" on="1"/>
        <pt x="400" y="460" on="1"/>
        <pt x="400" y="326" on="0"/>
        <pt x="472" y="243" on="1"/>
        <pt x="561" y="140" on="0"/>
        <pt x="705" y="140" on="1"/>
        <pt x="852" y="140" on="0"/>
        <pt x="938" y="243" on="1"/>
        <pt x="1010" y="329" on="0"/>
        <pt x="1010" y="460" on="1"/>
        <pt x="1010" y="1460" on="1"/>
        <pt x="1200" y="1550" on="1"/>
        <pt x="1210" y="1550" on="1"/>
        <pt x="1210" y="350" on="1"/>
      </contour>
      <contour>
        <pt x="596" y="1966" on="1"/>
        <pt x="606" y="1966" on="1"/>
        <pt x="768" y="1621" on="1"/>
        <pt x="651" y="1566" on="1"/>
        <pt x="641" y="1566" on="1"/>
        <pt x="420" y="1882" on="1"/>
      </contour>
    </TTGlyph>
    <TTGlyph name="Uhungarumlaut" xMin="200" yMin="-40" xMax="1210" yMax="1966">
      <contour>
        <pt x="705" y="-40" on="1"/>
        <pt x="477" y="-40" on="0"/>
        <pt x="335" y="105" on="1"/>
        <pt x="200" y="243" on="0"/>
        <pt x="200" y="460" on="1"/>
        <pt x="200" y="1458" on="1"/>
        <pt x="390" y="1550" on="1"/>
        <pt x="400" y="1550" on="1"/>
        <pt x="400" y="460" on="1"/>
        <pt x="400" y="326" on="0"/>
        <pt x="472" y="243" on="1"/>
        <pt x="561" y="140" on="0"/>
        <pt x="705" y="140" on="1"/>
        <pt x="852" y="140" on="0"/>
        <pt x="938" y="243" on="1"/>
        <pt x="1010" y="329" on="0"/>
        <pt x="1010" y="460" on="1"/>
        <pt x="1010" y="1460" on="1"/>
        <pt x="1200" y="1550" on="1"/>
        <pt x="1210" y="1550" on="1"/>
        <pt x="1210" y="350" on="1"/>
      </contour>
      <contour>
        <pt x="910" y="1966" on="1"/>
        <pt x="920" y="1966" on="1"/>
        <pt x="1096" y="1882" on="1"/>
        <pt x="875" y="1566" on="1"/>
        <pt x="865" y="1566" on="1"/>
        <pt x="748" y="1621" on="1"/>
      </contour>
      <contour>
        <pt x="637" y="1966" on="1"/>
        <pt x="647" y="1966" on="1"/>
        <pt x="823" y="1882" on="1"/>
        <pt x="602" y="1566" on="1"/>
        <pt x="592" y="1566" on="1"/>
        <pt x="475" y="1621" on="1"/>
      </contour>
    </TTGlyph>
    <TTGlyph name="Umacron" xMin="200" yMin="-40" xMax="1210" yMax="1820">
      <contour>
        <pt x="705" y="-40" on="1"/>
        <pt x="477" y="-40" on="0"/>
        <pt x="335" y="105" on="1"/>
        <pt x="200" y="243" on="0"/>
        <pt x="200" y="460" on="1"/>
        <pt x="200" y="1458" on="1"/>
        <pt x="390" y="1550" on="1"/>
        <pt x="400" y="1550" on="1"/>
        <pt x="400" y="460" on="1"/>
        <pt x="400" y="326" on="0"/>
        <pt x="472" y="243" on="1"/>
        <pt x="561" y="140" on="0"/>
        <pt x="705" y="140" on="1"/>
        <pt x="852" y="140" on="0"/>
        <pt x="938" y="243" on="1"/>
        <pt x="1010" y="329" on="0"/>
        <pt x="1010" y="460" on="1"/>
        <pt x="1010" y="1460" on="1"/>
        <pt x="1200" y="1550" on="1"/>
        <pt x="1210" y="1550" on="1"/>
        <pt x="1210" y="350" on="1"/>
      </contour>
      <contour>
        <pt x="467" y="1638" on="1"/>
        <pt x="467" y="1648" on="1"/>
        <pt x="548" y="1820" on="1"/>
        <pt x="1006" y="1820" on="1"/>
        <pt x="1006" y="1810" on="1"/>
        <pt x="925" y="1638" on="1"/>
      </contour>
    </TTGlyph>
    <TTGlyph name="Uogonek" xMin="200" yMin="-450" xMax="1210" yMax="1550">
      <contour>
        <pt x="811" y="42" on="1"/>
        <pt x="739" y="-72" on="0"/>
        <pt x="739" y="-178" on="1"/>
        <pt x="739" y="-290" on="0"/>
        <pt x="847" y="-360" on="1"/>
        <pt x="657" y="-450" on="1"/>
        <pt x="647" y="-450" on="1"/>
        <pt x="564" y="-348" on="0"/>
        <pt x="551" y="-159" on="1"/>
        <pt x="654" y="-38" on="1"/>
        <pt x="461" y="-23" on="0"/>
        <pt x="335" y="105" on="1"/>
        <pt x="200" y="242" on="0"/>
        <pt x="200" y="460" on="1"/>
        <pt x="200" y="1458" on="1"/>
        <pt x="390" y="1550" on="1"/>
        <pt x="400" y="1550" on="1"/>
        <pt x="400" y="460" on="1"/>
        <pt x="400" y="326" on="0"/>
        <pt x="472" y="243" on="1"/>
        <pt x="561" y="140" on="0"/>
        <pt x="705" y="140" on="1"/>
        <pt x="852" y="140" on="0"/>
        <pt x="938" y="243" on="1"/>
        <pt x="1010" y="329" on="0"/>
        <pt x="1010" y="460" on="1"/>
        <pt x="1010" y="1460" on="1"/>
        <pt x="1200" y="1550" on="1"/>
        <pt x="1210" y="1550" on="1"/>
        <pt x="1210" y="350" on="1"/>
      </contour>
    </TTGlyph>
    <TTGlyph name="Uring" xMin="200" yMin="-40" xMax="1210" yMax="1966">
      <contour>
        <pt x="705" y="-40" on="1"/>
        <pt x="477" y="-40" on="0"/>
        <pt x="335" y="105" on="1"/>
        <pt x="200" y="243" on="0"/>
        <pt x="200" y="460" on="1"/>
        <pt x="200" y="1458" on="1"/>
        <pt x="390" y="1550" on="1"/>
        <pt x="400" y="1550" on="1"/>
        <pt x="400" y="460" on="1"/>
        <pt x="400" y="326" on="0"/>
        <pt x="472" y="243" on="1"/>
        <pt x="561" y="140" on="0"/>
        <pt x="705" y="140" on="1"/>
        <pt x="852" y="140" on="0"/>
        <pt x="938" y="243" on="1"/>
        <pt x="1010" y="329" on="0"/>
        <pt x="1010" y="460" on="1"/>
        <pt x="1010" y="1460" on="1"/>
        <pt x="1200" y="1550" on="1"/>
        <pt x="1210" y="1550" on="1"/>
        <pt x="1210" y="350" on="1"/>
      </contour>
      <contour>
        <pt x="705" y="1966" on="1"/>
        <pt x="791" y="1964" on="0"/>
        <pt x="844" y="1920" on="1"/>
        <pt x="902" y="1872" on="0"/>
        <pt x="902" y="1777" on="1"/>
        <pt x="902" y="1753" on="1"/>
        <pt x="716" y="1589" on="1"/>
        <pt x="622" y="1596" on="0"/>
        <pt x="577" y="1635" on="1"/>
        <pt x="519" y="1685" on="0"/>
        <pt x="519" y="1777" on="1"/>
        <pt x="519" y="1802" on="1"/>
      </contour>
      <contour>
        <pt x="712" y="1862" on="1"/>
        <pt x="678" y="1862" on="0"/>
        <pt x="638" y="1820" on="0"/>
        <pt x="638" y="1777" on="1"/>
        <pt x="638" y="1731" on="0"/>
        <pt x="659" y="1712" on="1"/>
        <pt x="681" y="1692" on="0"/>
        <pt x="714" y="1692" on="1"/>
        <pt x="742" y="1692" on="0"/>
        <pt x="764" y="1714" on="1"/>
        <pt x="784" y="1733" on="0"/>
        <pt x="784" y="1777" on="1"/>
        <pt x="784" y="1822" on="0"/>
        <pt x="762" y="1843" on="1"/>
        <pt x="742" y="1862" on="0"/>
      </contour>
    </TTGlyph>
    <TTGlyph name="Utilde" xMin="200" yMin="-40" xMax="1210" yMax="1896">
      <contour>
        <pt x="705" y="-40" on="1"/>
        <pt x="477" y="-40" on="0"/>
        <pt x="335" y="105" on="1"/>
        <pt x="200" y="243" on="0"/>
        <pt x="200" y="460" on="1"/>
        <pt x="200" y="1458" on="1"/>
        <pt x="390" y="1550" on="1"/>
        <pt x="400" y="1550" on="1"/>
        <pt x="400" y="460" on="1"/>
        <pt x="400" y="326" on="0"/>
        <pt x="472" y="243" on="1"/>
        <pt x="561" y="140" on="0"/>
        <pt x="705" y="140" on="1"/>
        <pt x="852" y="140" on="0"/>
        <pt x="938" y="243" on="1"/>
        <pt x="1010" y="329" on="0"/>
        <pt x="1010" y="460" on="1"/>
        <pt x="1010" y="1460" on="1"/>
        <pt x="1200" y="1550" on="1"/>
        <pt x="1210" y="1550" on="1"/>
        <pt x="1210" y="350" on="1"/>
      </contour>
      <contour>
        <pt x="510" y="1639" on="1"/>
        <pt x="425" y="1688" on="1"/>
        <pt x="637" y="1896" on="1"/>
        <pt x="701" y="1896" on="0"/>
        <pt x="732" y="1857" on="1"/>
        <pt x="779" y="1798" on="0"/>
        <pt x="831" y="1798" on="1"/>
        <pt x="892" y="1798" on="0"/>
        <pt x="934" y="1896" on="1"/>
        <pt x="944" y="1896" on="1"/>
        <pt x="1029" y="1847" on="1"/>
        <pt x="817" y="1639" on="1"/>
        <pt x="753" y="1639" on="0"/>
        <pt x="722" y="1678" on="1"/>
        <pt x="675" y="1737" on="0"/>
        <pt x="623" y="1737" on="1"/>
        <pt x="562" y="1737" on="0"/>
        <pt x="520" y="1639" on="1"/>
      </contour>
    </TTGlyph>
    <TTGlyph name="V" xMin="5" yMin="-40" xMax="1186" yMax="1550">
      <contour>
        <pt x="515" y="-40" on="1"/>
        <pt x="5" y="1468" on="1"/>
        <pt x="178" y="1550" on="1"/>
        <pt x="188" y="1550" on="1"/>
        <pt x="630" y="234" on="1"/>
        <pt x="1069" y="1550" on="1"/>
        <pt x="1079" y="1550" on="1"/>
        <pt x="1186" y="1499" on="1"/>
        <pt x="698" y="42" on="1"/>
        <pt x="525" y="-40" on="1"/>
      </contour>
    </TTGlyph>
    <TTGlyph name="W" xMin="200" yMin="-40" xMax="2020" yMax="1550">
      <contour>
        <pt x="705" y="-40" on="1"/>
        <pt x="477" y="-40" on="0"/>
        <pt x="335" y="105" on="1"/>
        <pt x="200" y="243" on="0"/>
        <pt x="200" y="460" on="1"/>
        <pt x="200" y="1458" on="1"/>
        <pt x="390" y="1550" on="1"/>
        <pt x="400" y="1550" on="1"/>
        <pt x="400" y="460" on="1"/>
        <pt x="400" y="326" on="0"/>
        <pt x="472" y="243" on="1"/>
        <pt x="561" y="140" on="0"/>
        <pt x="705" y="140" on="1"/>
        <pt x="852" y="140" on="0"/>
        <pt x="938" y="243" on="1"/>
        <pt x="1010" y="329" on="0"/>
        <pt x="1010" y="460" on="1"/>
        <pt x="1010" y="1458" on="1"/>
        <pt x="1010" y="1460" on="1"/>
        <pt x="1200" y="1550" on="1"/>
        <pt x="1210" y="1550" on="1"/>
        <pt x="1210" y="460" on="1"/>
        <pt x="1210" y="326" on="0"/>
        <pt x="1282" y="243" on="1"/>
        <pt x="1371" y="140" on="0"/>
        <pt x="1515" y="140" on="1"/>
        <pt x="1662" y="140" on="0"/>
        <pt x="1748" y="243" on="1"/>
        <pt x="1820" y="329" on="0"/>
        <pt x="1820" y="460" on="1"/>
        <pt x="1820" y="1460" on="1"/>
        <pt x="2010" y="1550" on="1"/>
        <pt x="2020" y="1550" on="1"/>
        <pt x="2020" y="350" on="1"/>
        <pt x="1515" y="-40" on="1"/>
        <pt x="1285" y="-40" on="0"/>
        <pt x="1145" y="105" on="1"/>
        <pt x="1090" y="162" on="0"/>
        <pt x="1057" y="232" on="1"/>
      </contour>
    </TTGlyph>
    <TTGlyph name="Wacute" xMin="200" yMin="-40" xMax="2020" yMax="1966">
      <contour>
        <pt x="705" y="-40" on="1"/>
        <pt x="477" y="-40" on="0"/>
        <pt x="335" y="105" on="1"/>
        <pt x="200" y="243" on="0"/>
        <pt x="200" y="460" on="1"/>
        <pt x="200" y="1458" on="1"/>
        <pt x="390" y="1550" on="1"/>
        <pt x="400" y="1550" on="1"/>
        <pt x="400" y="460" on="1"/>
        <pt x="400" y="326" on="0"/>
        <pt x="472" y="243" on="1"/>
        <pt x="561" y="140" on="0"/>
        <pt x="705" y="140" on="1"/>
        <pt x="852" y="140" on="0"/>
        <pt x="938" y="243" on="1"/>
        <pt x="1010" y="329" on="0"/>
        <pt x="1010" y="460" on="1"/>
        <pt x="1010" y="1458" on="1"/>
        <pt x="1010" y="1460" on="1"/>
        <pt x="1200" y="1550" on="1"/>
        <pt x="1210" y="1550" on="1"/>
        <pt x="1210" y="460" on="1"/>
        <pt x="1210" y="326" on="0"/>
        <pt x="1282" y="243" on="1"/>
        <pt x="1371" y="140" on="0"/>
        <pt x="1515" y="140" on="1"/>
        <pt x="1662" y="140" on="0"/>
        <pt x="1748" y="243" on="1"/>
        <pt x="1820" y="329" on="0"/>
        <pt x="1820" y="460" on="1"/>
        <pt x="1820" y="1460" on="1"/>
        <pt x="2010" y="1550" on="1"/>
        <pt x="2020" y="1550" on="1"/>
        <pt x="2020" y="350" on="1"/>
        <pt x="1515" y="-40" on="1"/>
        <pt x="1285" y="-40" on="0"/>
        <pt x="1145" y="105" on="1"/>
        <pt x="1090" y="162" on="0"/>
        <pt x="1057" y="232" on="1"/>
      </contour>
      <contour>
        <pt x="1159" y="1966" on="1"/>
        <pt x="1169" y="1966" on="1"/>
        <pt x="1345" y="1882" on="1"/>
        <pt x="1124" y="1566" on="1"/>
        <pt x="1114" y="1566" on="1"/>
        <pt x="997" y="1621" on="1"/>
      </contour>
    </TTGlyph>
    <TTGlyph name="Wcircumflex" xMin="200" yMin="-40" xMax="2020" yMax="1966">
      <contour>
        <pt x="705" y="-40" on="1"/>
        <pt x="477" y="-40" on="0"/>
        <pt x="335" y="105" on="1"/>
        <pt x="200" y="243" on="0"/>
        <pt x="200" y="460" on="1"/>
        <pt x="200" y="1458" on="1"/>
        <pt x="390" y="1550" on="1"/>
        <pt x="400" y="1550" on="1"/>
        <pt x="400" y="460" on="1"/>
        <pt x="400" y="326" on="0"/>
        <pt x="472" y="243" on="1"/>
        <pt x="561" y="140" on="0"/>
        <pt x="705" y="140" on="1"/>
        <pt x="852" y="140" on="0"/>
        <pt x="938" y="243" on="1"/>
        <pt x="1010" y="329" on="0"/>
        <pt x="1010" y="460" on="1"/>
        <pt x="1010" y="1458" on="1"/>
        <pt x="1010" y="1460" on="1"/>
        <pt x="1200" y="1550" on="1"/>
        <pt x="1210" y="1550" on="1"/>
        <pt x="1210" y="460" on="1"/>
        <pt x="1210" y="326" on="0"/>
        <pt x="1282" y="243" on="1"/>
        <pt x="1371" y="140" on="0"/>
        <pt x="1515" y="140" on="1"/>
        <pt x="1662" y="140" on="0"/>
        <pt x="1748" y="243" on="1"/>
        <pt x="1820" y="329" on="0"/>
        <pt x="1820" y="460" on="1"/>
        <pt x="1820" y="1460" on="1"/>
        <pt x="2010" y="1550" on="1"/>
        <pt x="2020" y="1550" on="1"/>
        <pt x="2020" y="350" on="1"/>
        <pt x="1515" y="-40" on="1"/>
        <pt x="1285" y="-40" on="0"/>
        <pt x="1145" y="105" on="1"/>
        <pt x="1090" y="162" on="0"/>
        <pt x="1057" y="232" on="1"/>
      </contour>
      <contour>
        <pt x="1200" y="1966" on="1"/>
        <pt x="1425" y="1648" on="1"/>
        <pt x="1252" y="1566" on="1"/>
        <pt x="1242" y="1566" on="1"/>
        <pt x="1101" y="1794" on="1"/>
        <pt x="960" y="1566" on="1"/>
        <pt x="950" y="1566" on="1"/>
        <pt x="847" y="1615" on="1"/>
        <pt x="1017" y="1884" on="1"/>
        <pt x="1190" y="1966" on="1"/>
      </contour>
    </TTGlyph>
    <TTGlyph name="Wdieresis" xMin="200" yMin="-40" xMax="2020" yMax="1966">
      <contour>
        <pt x="705" y="-40" on="1"/>
        <pt x="477" y="-40" on="0"/>
        <pt x="335" y="105" on="1"/>
        <pt x="200" y="243" on="0"/>
        <pt x="200" y="460" on="1"/>
        <pt x="200" y="1458" on="1"/>
        <pt x="390" y="1550" on="1"/>
        <pt x="400" y="1550" on="1"/>
        <pt x="400" y="460" on="1"/>
        <pt x="400" y="326" on="0"/>
        <pt x="472" y="243" on="1"/>
        <pt x="561" y="140" on="0"/>
        <pt x="705" y="140" on="1"/>
        <pt x="852" y="140" on="0"/>
        <pt x="938" y="243" on="1"/>
        <pt x="1010" y="329" on="0"/>
        <pt x="1010" y="460" on="1"/>
        <pt x="1010" y="1458" on="1"/>
        <pt x="1010" y="1460" on="1"/>
        <pt x="1200" y="1550" on="1"/>
        <pt x="1210" y="1550" on="1"/>
        <pt x="1210" y="460" on="1"/>
        <pt x="1210" y="326" on="0"/>
        <pt x="1282" y="243" on="1"/>
        <pt x="1371" y="140" on="0"/>
        <pt x="1515" y="140" on="1"/>
        <pt x="1662" y="140" on="0"/>
        <pt x="1748" y="243" on="1"/>
        <pt x="1820" y="329" on="0"/>
        <pt x="1820" y="460" on="1"/>
        <pt x="1820" y="1460" on="1"/>
        <pt x="2010" y="1550" on="1"/>
        <pt x="2020" y="1550" on="1"/>
        <pt x="2020" y="350" on="1"/>
        <pt x="1515" y="-40" on="1"/>
        <pt x="1285" y="-40" on="0"/>
        <pt x="1145" y="105" on="1"/>
        <pt x="1090" y="162" on="0"/>
        <pt x="1057" y="232" on="1"/>
      </contour>
      <contour>
        <pt x="1326" y="1966" on="1"/>
        <pt x="1336" y="1966" on="1"/>
        <pt x="1336" y="1738" on="1"/>
        <pt x="1146" y="1648" on="1"/>
        <pt x="1136" y="1648" on="1"/>
        <pt x="1136" y="1876" on="1"/>
      </contour>
      <contour>
        <pt x="1053" y="1966" on="1"/>
        <pt x="1063" y="1966" on="1"/>
        <pt x="1063" y="1738" on="1"/>
        <pt x="873" y="1648" on="1"/>
        <pt x="863" y="1648" on="1"/>
        <pt x="863" y="1876" on="1"/>
      </contour>
    </TTGlyph>
    <TTGlyph name="Wgrave" xMin="200" yMin="-40" xMax="2020" yMax="1966">
      <contour>
        <pt x="705" y="-40" on="1"/>
        <pt x="477" y="-40" on="0"/>
        <pt x="335" y="105" on="1"/>
        <pt x="200" y="243" on="0"/>
        <pt x="200" y="460" on="1"/>
        <pt x="200" y="1458" on="1"/>
        <pt x="390" y="1550" on="1"/>
        <pt x="400" y="1550" on="1"/>
        <pt x="400" y="460" on="1"/>
        <pt x="400" y="326" on="0"/>
        <pt x="472" y="243" on="1"/>
        <pt x="561" y="140" on="0"/>
        <pt x="705" y="140" on="1"/>
        <pt x="852" y="140" on="0"/>
        <pt x="938" y="243" on="1"/>
        <pt x="1010" y="329" on="0"/>
        <pt x="1010" y="460" on="1"/>
        <pt x="1010" y="1458" on="1"/>
        <pt x="1010" y="1460" on="1"/>
        <pt x="1200" y="1550" on="1"/>
        <pt x="1210" y="1550" on="1"/>
        <pt x="1210" y="460" on="1"/>
        <pt x="1210" y="326" on="0"/>
        <pt x="1282" y="243" on="1"/>
        <pt x="1371" y="140" on="0"/>
        <pt x="1515" y="140" on="1"/>
        <pt x="1662" y="140" on="0"/>
        <pt x="1748" y="243" on="1"/>
        <pt x="1820" y="329" on="0"/>
        <pt x="1820" y="460" on="1"/>
        <pt x="1820" y="1460" on="1"/>
        <pt x="2010" y="1550" on="1"/>
        <pt x="2020" y="1550" on="1"/>
        <pt x="2020" y="350" on="1"/>
        <pt x="1515" y="-40" on="1"/>
        <pt x="1285" y="-40" on="0"/>
        <pt x="1145" y="105" on="1"/>
        <pt x="1090" y="162" on="0"/>
        <pt x="1057" y="232" on="1"/>
      </contour>
      <contour>
        <pt x="1047" y="1966" on="1"/>
        <pt x="1057" y="1966" on="1"/>
        <pt x="1219" y="1621" on="1"/>
        <pt x="1102" y="1566" on="1"/>
        <pt x="1092" y="1566" on="1"/>
        <pt x="871" y="1882" on="1"/>
      </contour>
    </TTGlyph>
    <TTGlyph name="X" xMin="100" yMin="-40" xMax="1178" yMax="1550">
      <contour>
        <pt x="215" y="-40" on="1"/>
        <pt x="205" y="-40" on="1"/>
        <pt x="100" y="10" on="1"/>
        <pt x="544" y="719" on="1"/>
        <pt x="100" y="1467" on="1"/>
        <pt x="275" y="1550" on="1"/>
        <pt x="285" y="1550" on="1"/>
        <pt x="663" y="911" on="1"/>
        <pt x="1063" y="1550" on="1"/>
        <pt x="1073" y="1550" on="1"/>
        <pt x="1178" y="1500" on="1"/>
        <pt x="735" y="791" on="1"/>
        <pt x="1178" y="42" on="1"/>
        <pt x="1004" y="-40" on="1"/>
        <pt x="994" y="-40" on="1"/>
        <pt x="615" y="599" on="1"/>
      </contour>
    </TTGlyph>
    <TTGlyph name="Y" xMin="100" yMin="-40" xMax="1178" yMax="1550">
      <contour>
        <pt x="516" y="-40" on="1"/>
        <pt x="516" y="522" on="1"/>
        <pt x="229" y="522" on="1"/>
        <pt x="229" y="532" on="1"/>
        <pt x="286" y="652" on="1"/>
        <pt x="466" y="652" on="1"/>
        <pt x="100" y="1467" on="1"/>
        <pt x="275" y="1550" on="1"/>
        <pt x="285" y="1550" on="1"/>
        <pt x="664" y="690" on="1"/>
        <pt x="1063" y="1550" on="1"/>
        <pt x="1073" y="1550" on="1"/>
        <pt x="1178" y="1500" on="1"/>
        <pt x="772" y="652" on="1"/>
        <pt x="1049" y="652" on="1"/>
        <pt x="1049" y="642" on="1"/>
        <pt x="992" y="522" on="1"/>
        <pt x="716" y="522" on="1"/>
        <pt x="716" y="50" on="1"/>
        <pt x="526" y="-40" on="1"/>
      </contour>
    </TTGlyph>
    <TTGlyph name="Yacute" xMin="100" yMin="-40" xMax="1178" yMax="1966">
      <contour>
        <pt x="516" y="-40" on="1"/>
        <pt x="516" y="522" on="1"/>
        <pt x="229" y="522" on="1"/>
        <pt x="229" y="532" on="1"/>
        <pt x="286" y="652" on="1"/>
        <pt x="466" y="652" on="1"/>
        <pt x="100" y="1467" on="1"/>
        <pt x="275" y="1550" on="1"/>
        <pt x="285" y="1550" on="1"/>
        <pt x="664" y="690" on="1"/>
        <pt x="1063" y="1550" on="1"/>
        <pt x="1073" y="1550" on="1"/>
        <pt x="1178" y="1500" on="1"/>
        <pt x="772" y="652" on="1"/>
        <pt x="1049" y="652" on="1"/>
        <pt x="1049" y="642" on="1"/>
        <pt x="992" y="522" on="1"/>
        <pt x="716" y="522" on="1"/>
        <pt x="716" y="50" on="1"/>
        <pt x="526" y="-40" on="1"/>
      </contour>
      <contour>
        <pt x="796" y="1966" on="1"/>
        <pt x="806" y="1966" on="1"/>
        <pt x="982" y="1882" on="1"/>
        <pt x="761" y="1566" on="1"/>
        <pt x="751" y="1566" on="1"/>
        <pt x="634" y="1621" on="1"/>
      </contour>
    </TTGlyph>
    <TTGlyph name="Ycircumflex" xMin="100" yMin="-40" xMax="1178" yMax="1966">
      <contour>
        <pt x="516" y="-40" on="1"/>
        <pt x="516" y="522" on="1"/>
        <pt x="229" y="522" on="1"/>
        <pt x="229" y="532" on="1"/>
        <pt x="286" y="652" on="1"/>
        <pt x="466" y="652" on="1"/>
        <pt x="100" y="1467" on="1"/>
        <pt x="275" y="1550" on="1"/>
        <pt x="285" y="1550" on="1"/>
        <pt x="664" y="690" on="1"/>
        <pt x="1063" y="1550" on="1"/>
        <pt x="1073" y="1550" on="1"/>
        <pt x="1178" y="1500" on="1"/>
        <pt x="772" y="652" on="1"/>
        <pt x="1049" y="652" on="1"/>
        <pt x="1049" y="642" on="1"/>
        <pt x="992" y="522" on="1"/>
        <pt x="716" y="522" on="1"/>
        <pt x="716" y="50" on="1"/>
        <pt x="526" y="-40" on="1"/>
      </contour>
      <contour>
        <pt x="748" y="1966" on="1"/>
        <pt x="973" y="1648" on="1"/>
        <pt x="800" y="1566" on="1"/>
        <pt x="790" y="1566" on="1"/>
        <pt x="649" y="1794" on="1"/>
        <pt x="508" y="1566" on="1"/>
        <pt x="498" y="1566" on="1"/>
        <pt x="395" y="1615" on="1"/>
        <pt x="565" y="1884" on="1"/>
        <pt x="738" y="1966" on="1"/>
      </contour>
    </TTGlyph>
    <TTGlyph name="Ydieresis" xMin="100" yMin="-40" xMax="1178" yMax="1966">
      <contour>
        <pt x="516" y="-40" on="1"/>
        <pt x="516" y="522" on="1"/>
        <pt x="229" y="522" on="1"/>
        <pt x="229" y="532" on="1"/>
        <pt x="286" y="652" on="1"/>
        <pt x="466" y="652" on="1"/>
        <pt x="100" y="1467" on="1"/>
        <pt x="275" y="1550" on="1"/>
        <pt x="285" y="1550" on="1"/>
        <pt x="664" y="690" on="1"/>
        <pt x="1063" y="1550" on="1"/>
        <pt x="1073" y="1550" on="1"/>
        <pt x="1178" y="1500" on="1"/>
        <pt x="772" y="652" on="1"/>
        <pt x="1049" y="652" on="1"/>
        <pt x="1049" y="642" on="1"/>
        <pt x="992" y="522" on="1"/>
        <pt x="716" y="522" on="1"/>
        <pt x="716" y="50" on="1"/>
        <pt x="526" y="-40" on="1"/>
      </contour>
      <contour>
        <pt x="900" y="1966" on="1"/>
        <pt x="910" y="1966" on="1"/>
        <pt x="910" y="1738" on="1"/>
        <pt x="720" y="1648" on="1"/>
        <pt x="710" y="1648" on="1"/>
        <pt x="710" y="1876" on="1"/>
      </contour>
      <contour>
        <pt x="627" y="1966" on="1"/>
        <pt x="637" y="1966" on="1"/>
        <pt x="637" y="1738" on="1"/>
        <pt x="447" y="1648" on="1"/>
        <pt x="437" y="1648" on="1"/>
        <pt x="437" y="1876" on="1"/>
      </contour>
    </TTGlyph>
    <TTGlyph name="Ygrave" xMin="100" yMin="-40" xMax="1178" yMax="1966">
      <contour>
        <pt x="516" y="-40" on="1"/>
        <pt x="516" y="522" on="1"/>
        <pt x="229" y="522" on="1"/>
        <pt x="229" y="532" on="1"/>
        <pt x="286" y="652" on="1"/>
        <pt x="466" y="652" on="1"/>
        <pt x="100" y="1467" on="1"/>
        <pt x="275" y="1550" on="1"/>
        <pt x="285" y="1550" on="1"/>
        <pt x="664" y="690" on="1"/>
        <pt x="1063" y="1550" on="1"/>
        <pt x="1073" y="1550" on="1"/>
        <pt x="1178" y="1500" on="1"/>
        <pt x="772" y="652" on="1"/>
        <pt x="1049" y="652" on="1"/>
        <pt x="1049" y="642" on="1"/>
        <pt x="992" y="522" on="1"/>
        <pt x="716" y="522" on="1"/>
        <pt x="716" y="50" on="1"/>
        <pt x="526" y="-40" on="1"/>
      </contour>
      <contour>
        <pt x="596" y="1966" on="1"/>
        <pt x="606" y="1966" on="1"/>
        <pt x="768" y="1621" on="1"/>
        <pt x="651" y="1566" on="1"/>
        <pt x="641" y="1566" on="1"/>
        <pt x="420" y="1882" on="1"/>
      </contour>
    </TTGlyph>
    <TTGlyph name="Z" xMin="150" yMin="0" xMax="1117" yMax="1510">
      <contour>
        <pt x="150" y="0" on="1"/>
        <pt x="150" y="10" on="1"/>
        <pt x="401" y="522" on="1"/>
        <pt x="150" y="522" on="1"/>
        <pt x="150" y="532" on="1"/>
        <pt x="207" y="652" on="1"/>
        <pt x="465" y="652" on="1"/>
        <pt x="822" y="1380" on="1"/>
        <pt x="163" y="1380" on="1"/>
        <pt x="163" y="1390" on="1"/>
        <pt x="220" y="1510" on="1"/>
        <pt x="1097" y="1510" on="1"/>
        <pt x="1097" y="1500" on="1"/>
        <pt x="678" y="652" on="1"/>
        <pt x="1097" y="652" on="1"/>
        <pt x="1097" y="642" on="1"/>
        <pt x="1040" y="522" on="1"/>
        <pt x="614" y="522" on="1"/>
        <pt x="420" y="130" on="1"/>
        <pt x="1117" y="130" on="1"/>
        <pt x="1117" y="120" on="1"/>
        <pt x="1060" y="0" on="1"/>
      </contour>
    </TTGlyph>
    <TTGlyph name="Zacute" xMin="150" yMin="0" xMax="1117" yMax="1966">
      <contour>
        <pt x="150" y="0" on="1"/>
        <pt x="150" y="10" on="1"/>
        <pt x="401" y="522" on="1"/>
        <pt x="150" y="522" on="1"/>
        <pt x="150" y="532" on="1"/>
        <pt x="207" y="652" on="1"/>
        <pt x="465" y="652" on="1"/>
        <pt x="822" y="1380" on="1"/>
        <pt x="163" y="1380" on="1"/>
        <pt x="163" y="1390" on="1"/>
        <pt x="220" y="1510" on="1"/>
        <pt x="1097" y="1510" on="1"/>
        <pt x="1097" y="1500" on="1"/>
        <pt x="678" y="652" on="1"/>
        <pt x="1097" y="652" on="1"/>
        <pt x="1097" y="642" on="1"/>
        <pt x="1040" y="522" on="1"/>
        <pt x="614" y="522" on="1"/>
        <pt x="420" y="130" on="1"/>
        <pt x="1117" y="130" on="1"/>
        <pt x="1117" y="120" on="1"/>
        <pt x="1060" y="0" on="1"/>
      </contour>
      <contour>
        <pt x="711" y="1966" on="1"/>
        <pt x="721" y="1966" on="1"/>
        <pt x="897" y="1882" on="1"/>
        <pt x="676" y="1566" on="1"/>
        <pt x="666" y="1566" on="1"/>
        <pt x="549" y="1621" on="1"/>
      </contour>
    </TTGlyph>
    <TTGlyph name="Zcaron" xMin="150" yMin="0" xMax="1117" yMax="1966">
      <contour>
        <pt x="150" y="0" on="1"/>
        <pt x="150" y="10" on="1"/>
        <pt x="401" y="522" on="1"/>
        <pt x="150" y="522" on="1"/>
        <pt x="150" y="532" on="1"/>
        <pt x="207" y="652" on="1"/>
        <pt x="465" y="652" on="1"/>
        <pt x="822" y="1380" on="1"/>
        <pt x="163" y="1380" on="1"/>
        <pt x="163" y="1390" on="1"/>
        <pt x="220" y="1510" on="1"/>
        <pt x="1097" y="1510" on="1"/>
        <pt x="1097" y="1500" on="1"/>
        <pt x="678" y="652" on="1"/>
        <pt x="1097" y="652" on="1"/>
        <pt x="1097" y="642" on="1"/>
        <pt x="1040" y="522" on="1"/>
        <pt x="614" y="522" on="1"/>
        <pt x="420" y="130" on="1"/>
        <pt x="1117" y="130" on="1"/>
        <pt x="1117" y="120" on="1"/>
        <pt x="1060" y="0" on="1"/>
      </contour>
      <contour>
        <pt x="524" y="1966" on="1"/>
        <pt x="534" y="1966" on="1"/>
        <pt x="675" y="1738" on="1"/>
        <pt x="816" y="1966" on="1"/>
        <pt x="826" y="1966" on="1"/>
        <pt x="929" y="1917" on="1"/>
        <pt x="759" y="1648" on="1"/>
        <pt x="586" y="1566" on="1"/>
        <pt x="576" y="1566" on="1"/>
        <pt x="351" y="1884" on="1"/>
      </contour>
    </TTGlyph>
    <TTGlyph name="Zdotaccent" xMin="150" yMin="0" xMax="1117" yMax="1966">
      <contour>
        <pt x="150" y="0" on="1"/>
        <pt x="150" y="10" on="1"/>
        <pt x="401" y="522" on="1"/>
        <pt x="150" y="522" on="1"/>
        <pt x="150" y="532" on="1"/>
        <pt x="207" y="652" on="1"/>
        <pt x="465" y="652" on="1"/>
        <pt x="822" y="1380" on="1"/>
        <pt x="163" y="1380" on="1"/>
        <pt x="163" y="1390" on="1"/>
        <pt x="220" y="1510" on="1"/>
        <pt x="1097" y="1510" on="1"/>
        <pt x="1097" y="1500" on="1"/>
        <pt x="678" y="652" on="1"/>
        <pt x="1097" y="652" on="1"/>
        <pt x="1097" y="642" on="1"/>
        <pt x="1040" y="522" on="1"/>
        <pt x="614" y="522" on="1"/>
        <pt x="420" y="130" on="1"/>
        <pt x="1117" y="130" on="1"/>
        <pt x="1117" y="120" on="1"/>
        <pt x="1060" y="0" on="1"/>
      </contour>
      <contour>
        <pt x="750" y="1966" on="1"/>
        <pt x="750" y="1738" on="1"/>
        <pt x="560" y="1648" on="1"/>
        <pt x="550" y="1648" on="1"/>
        <pt x="550" y="1876" on="1"/>
        <pt x="740" y="1966" on="1"/>
      </contour>
    </TTGlyph>
    <TTGlyph name="a" xMin="100" yMin="-40" xMax="930" yMax="1140">
      <contour>
        <pt x="515" y="118" on="1"/>
        <pt x="620" y="118" on="0"/>
        <pt x="671" y="179" on="1"/>
        <pt x="730" y="250" on="0"/>
        <pt x="730" y="356" on="1"/>
        <pt x="730" y="478" on="0"/>
        <pt x="665" y="536" on="1"/>
        <pt x="603" y="591" on="0"/>
        <pt x="515" y="591" on="1"/>
        <pt x="410" y="591" on="0"/>
        <pt x="359" y="530" on="1"/>
        <pt x="300" y="459" on="0"/>
        <pt x="300" y="356" on="1"/>
        <pt x="300" y="231" on="0"/>
        <pt x="365" y="173" on="1"/>
        <pt x="428" y="118" on="0"/>
      </contour>
      <contour>
        <pt x="515" y="-40" on="1"/>
        <pt x="329" y="-27" on="0"/>
        <pt x="224" y="56" on="1"/>
        <pt x="100" y="154" on="0"/>
        <pt x="100" y="353" on="1"/>
        <pt x="100" y="428" on="1"/>
        <pt x="515" y="749" on="1"/>
        <pt x="641" y="740" on="0"/>
        <pt x="730" y="699" on="1"/>
        <pt x="730" y="747" on="1"/>
        <pt x="730" y="868" on="0"/>
        <pt x="665" y="927" on="1"/>
        <pt x="603" y="982" on="0"/>
        <pt x="515" y="982" on="1"/>
        <pt x="417" y="982" on="0"/>
        <pt x="359" y="921" on="1"/>
        <pt x="304" y="977" on="1"/>
        <pt x="515" y="1140" on="1"/>
        <pt x="704" y="1127" on="0"/>
        <pt x="806" y="1044" on="1"/>
        <pt x="930" y="943" on="0"/>
        <pt x="930" y="747" on="1"/>
        <pt x="930" y="50" on="1"/>
        <pt x="740" y="-40" on="1"/>
        <pt x="730" y="-40" on="1"/>
        <pt x="730" y="127" on="1"/>
      </contour>
    </TTGlyph>
    <TTGlyph name="aacute" xMin="100" yMin="-40" xMax="930" yMax="1556">
      <contour>
        <pt x="515" y="118" on="1"/>
        <pt x="620" y="118" on="0"/>
        <pt x="671" y="179" on="1"/>
        <pt x="730" y="250" on="0"/>
        <pt x="730" y="356" on="1"/>
        <pt x="730" y="478" on="0"/>
        <pt x="665" y="536" on="1"/>
        <pt x="603" y="591" on="0"/>
        <pt x="515" y="591" on="1"/>
        <pt x="410" y="591" on="0"/>
        <pt x="359" y="530" on="1"/>
        <pt x="300" y="459" on="0"/>
        <pt x="300" y="356" on="1"/>
        <pt x="300" y="231" on="0"/>
        <pt x="365" y="173" on="1"/>
        <pt x="428" y="118" on="0"/>
      </contour>
      <contour>
        <pt x="515" y="-40" on="1"/>
        <pt x="329" y="-27" on="0"/>
        <pt x="224" y="56" on="1"/>
        <pt x="100" y="154" on="0"/>
        <pt x="100" y="353" on="1"/>
        <pt x="100" y="428" on="1"/>
        <pt x="515" y="749" on="1"/>
        <pt x="641" y="740" on="0"/>
        <pt x="730" y="699" on="1"/>
        <pt x="730" y="747" on="1"/>
        <pt x="730" y="868" on="0"/>
        <pt x="665" y="927" on="1"/>
        <pt x="603" y="982" on="0"/>
        <pt x="515" y="982" on="1"/>
        <pt x="417" y="982" on="0"/>
        <pt x="359" y="921" on="1"/>
        <pt x="304" y="977" on="1"/>
        <pt x="515" y="1140" on="1"/>
        <pt x="704" y="1127" on="0"/>
        <pt x="806" y="1044" on="1"/>
        <pt x="930" y="943" on="0"/>
        <pt x="930" y="747" on="1"/>
        <pt x="930" y="50" on="1"/>
        <pt x="740" y="-40" on="1"/>
        <pt x="730" y="-40" on="1"/>
        <pt x="730" y="127" on="1"/>
      </contour>
      <contour>
        <pt x="663" y="1556" on="1"/>
        <pt x="673" y="1556" on="1"/>
        <pt x="849" y="1472" on="1"/>
        <pt x="628" y="1156" on="1"/>
        <pt x="618" y="1156" on="1"/>
        <pt x="501" y="1211" on="1"/>
      </contour>
    </TTGlyph>
    <TTGlyph name="abreve" xMin="100" yMin="-40" xMax="930" yMax="1492">
      <contour>
        <pt x="515" y="118" on="1"/>
        <pt x="620" y="118" on="0"/>
        <pt x="671" y="179" on="1"/>
        <pt x="730" y="250" on="0"/>
        <pt x="730" y="356" on="1"/>
        <pt x="730" y="478" on="0"/>
        <pt x="665" y="536" on="1"/>
        <pt x="603" y="591" on="0"/>
        <pt x="515" y="591" on="1"/>
        <pt x="410" y="591" on="0"/>
        <pt x="359" y="530" on="1"/>
        <pt x="300" y="459" on="0"/>
        <pt x="300" y="356" on="1"/>
        <pt x="300" y="231" on="0"/>
        <pt x="365" y="173" on="1"/>
        <pt x="428" y="118" on="0"/>
      </contour>
      <contour>
        <pt x="515" y="-40" on="1"/>
        <pt x="329" y="-27" on="0"/>
        <pt x="224" y="56" on="1"/>
        <pt x="100" y="154" on="0"/>
        <pt x="100" y="353" on="1"/>
        <pt x="100" y="428" on="1"/>
        <pt x="515" y="749" on="1"/>
        <pt x="641" y="740" on="0"/>
        <pt x="730" y="699" on="1"/>
        <pt x="730" y="747" on="1"/>
        <pt x="730" y="868" on="0"/>
        <pt x="665" y="927" on="1"/>
        <pt x="603" y="982" on="0"/>
        <pt x="515" y="982" on="1"/>
        <pt x="417" y="982" on="0"/>
        <pt x="359" y="921" on="1"/>
        <pt x="304" y="977" on="1"/>
        <pt x="515" y="1140" on="1"/>
        <pt x="704" y="1127" on="0"/>
        <pt x="806" y="1044" on="1"/>
        <pt x="930" y="943" on="0"/>
        <pt x="930" y="747" on="1"/>
        <pt x="930" y="50" on="1"/>
        <pt x="740" y="-40" on="1"/>
        <pt x="730" y="-40" on="1"/>
        <pt x="730" y="127" on="1"/>
      </contour>
      <contour>
        <pt x="255" y="1375" on="1"/>
        <pt x="386" y="1492" on="1"/>
        <pt x="396" y="1492" on="1"/>
        <pt x="480" y="1386" on="0"/>
        <pt x="582" y="1386" on="1"/>
        <pt x="685" y="1386" on="0"/>
        <pt x="792" y="1487" on="1"/>
        <pt x="802" y="1487" on="1"/>
        <pt x="851" y="1443" on="1"/>
        <pt x="600" y="1228" on="1"/>
        <pt x="411" y="1228" on="0"/>
      </contour>
    </TTGlyph>
    <TTGlyph name="acircumflex" xMin="100" yMin="-40" xMax="930" yMax="1556">
      <contour>
        <pt x="515" y="118" on="1"/>
        <pt x="620" y="118" on="0"/>
        <pt x="671" y="179" on="1"/>
        <pt x="730" y="250" on="0"/>
        <pt x="730" y="356" on="1"/>
        <pt x="730" y="478" on="0"/>
        <pt x="665" y="536" on="1"/>
        <pt x="603" y="591" on="0"/>
        <pt x="515" y="591" on="1"/>
        <pt x="410" y="591" on="0"/>
        <pt x="359" y="530" on="1"/>
        <pt x="300" y="459" on="0"/>
        <pt x="300" y="356" on="1"/>
        <pt x="300" y="231" on="0"/>
        <pt x="365" y="173" on="1"/>
        <pt x="428" y="118" on="0"/>
      </contour>
      <contour>
        <pt x="515" y="-40" on="1"/>
        <pt x="329" y="-27" on="0"/>
        <pt x="224" y="56" on="1"/>
        <pt x="100" y="154" on="0"/>
        <pt x="100" y="353" on="1"/>
        <pt x="100" y="428" on="1"/>
        <pt x="515" y="749" on="1"/>
        <pt x="641" y="740" on="0"/>
        <pt x="730" y="699" on="1"/>
        <pt x="730" y="747" on="1"/>
        <pt x="730" y="868" on="0"/>
        <pt x="665" y="927" on="1"/>
        <pt x="603" y="982" on="0"/>
        <pt x="515" y="982" on="1"/>
        <pt x="417" y="982" on="0"/>
        <pt x="359" y="921" on="1"/>
        <pt x="304" y="977" on="1"/>
        <pt x="515" y="1140" on="1"/>
        <pt x="704" y="1127" on="0"/>
        <pt x="806" y="1044" on="1"/>
        <pt x="930" y="943" on="0"/>
        <pt x="930" y="747" on="1"/>
        <pt x="930" y="50" on="1"/>
        <pt x="740" y="-40" on="1"/>
        <pt x="730" y="-40" on="1"/>
        <pt x="730" y="127" on="1"/>
      </contour>
      <contour>
        <pt x="648" y="1556" on="1"/>
        <pt x="873" y="1238" on="1"/>
        <pt x="700" y="1156" on="1"/>
        <pt x="690" y="1156" on="1"/>
        <pt x="549" y="1384" on="1"/>
        <pt x="408" y="1156" on="1"/>
        <pt x="398" y="1156" on="1"/>
        <pt x="295" y="1205" on="1"/>
        <pt x="465" y="1474" on="1"/>
        <pt x="638" y="1556" on="1"/>
      </contour>
    </TTGlyph>
    <TTGlyph name="acute" xMin="150" yMin="1150" xMax="498" yMax="1550">
      <contour>
        <pt x="312" y="1550" on="1"/>
        <pt x="322" y="1550" on="1"/>
        <pt x="498" y="1466" on="1"/>
        <pt x="277" y="1150" on="1"/>
        <pt x="267" y="1150" on="1"/>
        <pt x="150" y="1205" on="1"/>
      </contour>
    </TTGlyph>
    <TTGlyph name="adieresis" xMin="100" yMin="-40" xMax="930" yMax="1550">
      <contour>
        <pt x="515" y="118" on="1"/>
        <pt x="620" y="118" on="0"/>
        <pt x="671" y="179" on="1"/>
        <pt x="730" y="250" on="0"/>
        <pt x="730" y="356" on="1"/>
        <pt x="730" y="478" on="0"/>
        <pt x="665" y="536" on="1"/>
        <pt x="603" y="591" on="0"/>
        <pt x="515" y="591" on="1"/>
        <pt x="410" y="591" on="0"/>
        <pt x="359" y="530" on="1"/>
        <pt x="300" y="459" on="0"/>
        <pt x="300" y="356" on="1"/>
        <pt x="300" y="231" on="0"/>
        <pt x="365" y="173" on="1"/>
        <pt x="428" y="118" on="0"/>
      </contour>
      <contour>
        <pt x="515" y="-40" on="1"/>
        <pt x="329" y="-27" on="0"/>
        <pt x="224" y="56" on="1"/>
        <pt x="100" y="154" on="0"/>
        <pt x="100" y="353" on="1"/>
        <pt x="100" y="428" on="1"/>
        <pt x="515" y="749" on="1"/>
        <pt x="641" y="740" on="0"/>
        <pt x="730" y="699" on="1"/>
        <pt x="730" y="747" on="1"/>
        <pt x="730" y="868" on="0"/>
        <pt x="665" y="927" on="1"/>
        <pt x="603" y="982" on="0"/>
        <pt x="515" y="982" on="1"/>
        <pt x="417" y="982" on="0"/>
        <pt x="359" y="921" on="1"/>
        <pt x="304" y="977" on="1"/>
        <pt x="515" y="1140" on="1"/>
        <pt x="704" y="1127" on="0"/>
        <pt x="806" y="1044" on="1"/>
        <pt x="930" y="943" on="0"/>
        <pt x="930" y="747" on="1"/>
        <pt x="930" y="50" on="1"/>
        <pt x="740" y="-40" on="1"/>
        <pt x="730" y="-40" on="1"/>
        <pt x="730" y="127" on="1"/>
      </contour>
      <contour>
        <pt x="793" y="1550" on="1"/>
        <pt x="803" y="1550" on="1"/>
        <pt x="803" y="1322" on="1"/>
        <pt x="613" y="1232" on="1"/>
        <pt x="603" y="1232" on="1"/>
        <pt x="603" y="1460" on="1"/>
      </contour>
      <contour>
        <pt x="520" y="1550" on="1"/>
        <pt x="530" y="1550" on="1"/>
        <pt x="530" y="1322" on="1"/>
        <pt x="340" y="1232" on="1"/>
        <pt x="330" y="1232" on="1"/>
        <pt x="330" y="1460" on="1"/>
      </contour>
    </TTGlyph>
    <TTGlyph name="ae" xMin="100" yMin="-40" xMax="1561" yMax="1140">
      <contour>
        <pt x="515" y="-40" on="1"/>
        <pt x="329" y="-27" on="0"/>
        <pt x="224" y="56" on="1"/>
        <pt x="100" y="154" on="0"/>
        <pt x="100" y="353" on="1"/>
        <pt x="100" y="428" on="1"/>
        <pt x="515" y="749" on="1"/>
        <pt x="641" y="740" on="0"/>
        <pt x="730" y="699" on="1"/>
        <pt x="730" y="747" on="1"/>
        <pt x="730" y="868" on="0"/>
        <pt x="665" y="927" on="1"/>
        <pt x="603" y="982" on="0"/>
        <pt x="515" y="982" on="1"/>
        <pt x="417" y="982" on="0"/>
        <pt x="359" y="921" on="1"/>
        <pt x="304" y="977" on="1"/>
        <pt x="515" y="1140" on="1"/>
        <pt x="704" y="1127" on="0"/>
        <pt x="806" y="1044" on="1"/>
        <pt x="859" y="1001" on="0"/>
        <pt x="889" y="941" on="1"/>
        <pt x="1146" y="1140" on="1"/>
        <pt x="1335" y="1127" on="0"/>
        <pt x="1437" y="1044" on="1"/>
        <pt x="1561" y="943" on="0"/>
        <pt x="1561" y="747" on="1"/>
        <pt x="946" y="250" on="1"/>
        <pt x="964" y="200" on="0"/>
        <pt x="996" y="173" on="1"/>
        <pt x="1061" y="118" on="0"/>
        <pt x="1144" y="118" on="1"/>
        <pt x="1231" y="118" on="0"/>
        <pt x="1302" y="179" on="1"/>
        <pt x="1361" y="230" on="0"/>
        <pt x="1361" y="353" on="1"/>
        <pt x="1551" y="443" on="1"/>
        <pt x="1561" y="443" on="1"/>
        <pt x="1561" y="281" on="1"/>
        <pt x="1146" y="-40" on="1"/>
        <pt x="987" y="-29" on="0"/>
        <pt x="890" y="31" on="1"/>
        <pt x="740" y="-40" on="1"/>
        <pt x="730" y="-40" on="1"/>
        <pt x="730" y="127" on="1"/>
      </contour>
      <contour>
        <pt x="515" y="118" on="1"/>
        <pt x="620" y="118" on="0"/>
        <pt x="671" y="179" on="1"/>
        <pt x="730" y="250" on="0"/>
        <pt x="730" y="356" on="1"/>
        <pt x="730" y="478" on="0"/>
        <pt x="665" y="536" on="1"/>
        <pt x="603" y="591" on="0"/>
        <pt x="515" y="591" on="1"/>
        <pt x="410" y="591" on="0"/>
        <pt x="359" y="530" on="1"/>
        <pt x="300" y="459" on="0"/>
        <pt x="300" y="356" on="1"/>
        <pt x="300" y="230" on="0"/>
        <pt x="365" y="173" on="1"/>
        <pt x="428" y="118" on="0"/>
      </contour>
      <contour>
        <pt x="931" y="397" on="1"/>
        <pt x="1361" y="746" on="1"/>
        <pt x="1361" y="872" on="0"/>
        <pt x="1230" y="982" on="0"/>
        <pt x="1146" y="982" on="1"/>
        <pt x="1049" y="982" on="0"/>
        <pt x="931" y="860" on="0"/>
        <pt x="931" y="747" on="1"/>
      </contour>
    </TTGlyph>
    <TTGlyph name="aeacute" xMin="100" yMin="-40" xMax="1561" yMax="1556">
      <contour>
        <pt x="515" y="-40" on="1"/>
        <pt x="329" y="-27" on="0"/>
        <pt x="224" y="56" on="1"/>
        <pt x="100" y="154" on="0"/>
        <pt x="100" y="353" on="1"/>
        <pt x="100" y="428" on="1"/>
        <pt x="515" y="749" on="1"/>
        <pt x="641" y="740" on="0"/>
        <pt x="730" y="699" on="1"/>
        <pt x="730" y="747" on="1"/>
        <pt x="730" y="868" on="0"/>
        <pt x="665" y="927" on="1"/>
        <pt x="603" y="982" on="0"/>
        <pt x="515" y="982" on="1"/>
        <pt x="417" y="982" on="0"/>
        <pt x="359" y="921" on="1"/>
        <pt x="304" y="977" on="1"/>
        <pt x="515" y="1140" on="1"/>
        <pt x="704" y="1127" on="0"/>
        <pt x="806" y="1044" on="1"/>
        <pt x="859" y="1001" on="0"/>
        <pt x="889" y="941" on="1"/>
        <pt x="1146" y="1140" on="1"/>
        <pt x="1335" y="1127" on="0"/>
        <pt x="1437" y="1044" on="1"/>
        <pt x="1561" y="943" on="0"/>
        <pt x="1561" y="747" on="1"/>
        <pt x="946" y="250" on="1"/>
        <pt x="964" y="200" on="0"/>
        <pt x="996" y="173" on="1"/>
        <pt x="1061" y="118" on="0"/>
        <pt x="1144" y="118" on="1"/>
        <pt x="1231" y="118" on="0"/>
        <pt x="1302" y="179" on="1"/>
        <pt x="1361" y="230" on="0"/>
        <pt x="1361" y="353" on="1"/>
        <pt x="1551" y="443" on="1"/>
        <pt x="1561" y="443" on="1"/>
        <pt x="1561" y="281" on="1"/>
        <pt x="1146" y="-40" on="1"/>
        <pt x="987" y="-29" on="0"/>
        <pt x="890" y="31" on="1"/>
        <pt x="740" y="-40" on="1"/>
        <pt x="730" y="-40" on="1"/>
        <pt x="730" y="127" on="1"/>
      </contour>
      <contour>
        <pt x="515" y="118" on="1"/>
        <pt x="620" y="118" on="0"/>
        <pt x="671" y="179" on="1"/>
        <pt x="730" y="250" on="0"/>
        <pt x="730" y="356" on="1"/>
        <pt x="730" y="478" on="0"/>
        <pt x="665" y="536" on="1"/>
        <pt x="603" y="591" on="0"/>
        <pt x="515" y="591" on="1"/>
        <pt x="410" y="591" on="0"/>
        <pt x="359" y="530" on="1"/>
        <pt x="300" y="459" on="0"/>
        <pt x="300" y="356" on="1"/>
        <pt x="300" y="230" on="0"/>
        <pt x="365" y="173" on="1"/>
        <pt x="428" y="118" on="0"/>
      </contour>
      <contour>
        <pt x="931" y="397" on="1"/>
        <pt x="1361" y="746" on="1"/>
        <pt x="1361" y="872" on="0"/>
        <pt x="1230" y="982" on="0"/>
        <pt x="1146" y="982" on="1"/>
        <pt x="1049" y="982" on="0"/>
        <pt x="931" y="860" on="0"/>
        <pt x="931" y="747" on="1"/>
      </contour>
      <contour>
        <pt x="989" y="1556" on="1"/>
        <pt x="999" y="1556" on="1"/>
        <pt x="1175" y="1472" on="1"/>
        <pt x="954" y="1156" on="1"/>
        <pt x="944" y="1156" on="1"/>
        <pt x="827" y="1211" on="1"/>
      </contour>
    </TTGlyph>
    <TTGlyph name="afii00208" xMin="25" yMin="664" xMax="1189" yMax="846">
      <contour>
        <pt x="25" y="664" on="1"/>
        <pt x="25" y="674" on="1"/>
        <pt x="106" y="846" on="1"/>
        <pt x="1189" y="846" on="1"/>
        <pt x="1189" y="836" on="1"/>
        <pt x="1108" y="664" on="1"/>
      </contour>
    </TTGlyph>
    <TTGlyph name="afii61248" xMin="150" yMin="-40" xMax="1488" yMax="1550">
      <contour>
        <pt x="1220" y="-40" on="1"/>
        <pt x="1085" y="-40" on="0"/>
        <pt x="1008" y="41" on="1"/>
        <pt x="934" y="120" on="0"/>
        <pt x="934" y="236" on="1"/>
        <pt x="934" y="599" on="1"/>
        <pt x="1202" y="806" on="1"/>
        <pt x="1338" y="806" on="0"/>
        <pt x="1414" y="725" on="1"/>
        <pt x="1488" y="646" on="0"/>
        <pt x="1488" y="530" on="1"/>
        <pt x="1488" y="167" on="1"/>
      </contour>
      <contour>
        <pt x="1153" y="100" on="0"/>
        <pt x="1271" y="100" on="0"/>
        <pt x="1309" y="143" on="1"/>
        <pt x="1338" y="177" on="0"/>
        <pt x="1338" y="236" on="1"/>
        <pt x="1338" y="530" on="1"/>
        <pt x="1338" y="590" on="0"/>
        <pt x="1309" y="623" on="1"/>
        <pt x="1271" y="666" on="0"/>
        <pt x="1212" y="666" on="1"/>
        <pt x="1155" y="666" on="0"/>
        <pt x="1113" y="623" on="1"/>
        <pt x="1084" y="593" on="0"/>
        <pt x="1084" y="530" on="1"/>
        <pt x="1084" y="236" on="1"/>
        <pt x="1084" y="174" on="0"/>
        <pt x="1113" y="143" on="1"/>
      </contour>
      <contour>
        <pt x="418" y="1550" on="1"/>
        <pt x="554" y="1550" on="0"/>
        <pt x="630" y="1469" on="1"/>
        <pt x="704" y="1390" on="0"/>
        <pt x="704" y="1259" on="1"/>
        <pt x="590" y="1204" on="1"/>
        <pt x="554" y="1204" on="1"/>
        <pt x="554" y="1274" on="1"/>
        <pt x="554" y="1334" on="0"/>
        <pt x="525" y="1367" on="1"/>
        <pt x="487" y="1410" on="0"/>
        <pt x="428" y="1410" on="1"/>
        <pt x="371" y="1410" on="0"/>
        <pt x="329" y="1367" on="1"/>
        <pt x="300" y="1337" on="0"/>
        <pt x="300" y="1274" on="1"/>
        <pt x="300" y="980" on="1"/>
        <pt x="300" y="918" on="0"/>
        <pt x="329" y="887" on="1"/>
        <pt x="369" y="844" on="0"/>
        <pt x="487" y="844" on="0"/>
        <pt x="525" y="887" on="1"/>
        <pt x="554" y="921" on="0"/>
        <pt x="554" y="980" on="1"/>
        <pt x="554" y="995" on="1"/>
        <pt x="669" y="1050" on="1"/>
        <pt x="704" y="1050" on="1"/>
        <pt x="704" y="910" on="1"/>
        <pt x="436" y="704" on="1"/>
        <pt x="301" y="704" on="0"/>
        <pt x="224" y="785" on="1"/>
        <pt x="150" y="864" on="0"/>
        <pt x="150" y="980" on="1"/>
        <pt x="150" y="1343" on="1"/>
      </contour>
      <contour>
        <pt x="536" y="-40" on="1"/>
        <pt x="395" y="28" on="1"/>
        <pt x="1104" y="1550" on="1"/>
        <pt x="1114" y="1550" on="1"/>
        <pt x="1255" y="1482" on="1"/>
        <pt x="546" y="-40" on="1"/>
      </contour>
    </TTGlyph>
</ttFont>
